$MeshFormat
4.1 0 8
$EndMeshFormat
$PhysicalNames
4
0 20 "PointsBoundary"
1 10 "CurveFixed"
1 11 "CurveFree"
2 1 "SurfaceBoundary"
$EndPhysicalNames
$Entities
16 16 4 0
1 0 2 0 1 20 
2 0 1.9 0 1 20 
3 0.75 1.9 0 1 20 
4 0.75 2 0 1 20 
5 2 1.9 0 1 20 
6 2 2 0 1 20 
7 1.25 2 0 1 20 
8 1.25 1.9 0 1 20 
9 2 -1.9 0 1 20 
10 2 -2 0 1 20 
11 1.25 -1.9 0 1 20 
12 1.25 -2 0 1 20 
13 0 -2 0 1 20 
14 0 -1.9 0 1 20 
15 0.75 -2 0 1 20 
16 0.75 -1.9 0 1 20 
1 -1e-07 1.8999999 -1e-07 1e-07 2.0000001 1e-07 1 10 2 1 -2 
2 -1.000000000028756e-07 1.8999999 -1e-07 0.7500000999999999 1.9000001 1e-07 1 11 2 2 -3 
3 0.7499999000000001 1.8999999 -1e-07 0.7500000999999999 2.0000001 1e-07 1 11 2 3 -4 
4 -1.000000000028756e-07 1.9999999 -1e-07 0.7500000999999999 2.0000001 1e-07 1 11 2 4 -1 
5 1.9999999 1.8999999 -1e-07 2.0000001 2.0000001 1e-07 1 10 2 5 -6 
6 1.2499999 1.9999999 -1e-07 2.0000001 2.0000001 1e-07 1 11 2 6 -7 
7 1.2499999 1.8999999 -1e-07 1.2500001 2.0000001 1e-07 1 11 2 7 -8 
8 1.2499999 1.8999999 -1e-07 2.0000001 1.9000001 1e-07 1 11 2 8 -5 
9 1.9999999 -2.0000001 -1e-07 2.0000001 -1.8999999 1e-07 1 10 2 9 -10 
10 1.2499999 -1.9000001 -1e-07 2.0000001 -1.8999999 1e-07 1 11 2 11 -9 
11 1.2499999 -2.0000001 -1e-07 1.2500001 -1.8999999 1e-07 1 11 2 12 -11 
12 1.2499999 -2.0000001 -1e-07 2.0000001 -1.9999999 1e-07 1 11 2 10 -12 
13 -1e-07 -2.0000001 -1e-07 1e-07 -1.8999999 1e-07 1 10 2 13 -14 
14 -1.000000000028756e-07 -2.0000001 -1e-07 0.7500000999999999 -1.9999999 1e-07 1 11 2 15 -13 
15 0.7499999000000001 -2.0000001 -1e-07 0.7500000999999999 -1.8999999 1e-07 1 11 2 16 -15 
16 -1.000000000028756e-07 -1.9000001 -1e-07 0.7500000999999999 -1.8999999 1e-07 1 11 2 14 -16 
1 -1.000000000028756e-07 1.8999999 -1e-07 0.7500000999999999 2.0000001 1e-07 1 1 4 1 2 3 4 
2 1.2499999 1.8999999 -1e-07 2.0000001 2.0000001 1e-07 1 1 4 -8 -7 -6 -5 
3 1.2499999 -2.0000001 -1e-07 2.0000001 -1.8999999 1e-07 1 1 4 12 11 10 9 
4 -1.000000000028756e-07 -2.0000001 -1e-07 0.7500000999999999 -1.8999999 1e-07 1 1 4 -13 -14 -15 -16 
$EndEntities
$Nodes
36 420 1 420
0 1 0 1
1
0 2 0
0 2 0 1
2
0 1.9 0
0 3 0 1
3
0.75 1.9 0
0 4 0 1
4
0.75 2 0
0 5 0 1
5
2 1.9 0
0 6 0 1
6
2 2 0
0 7 0 1
7
1.25 2 0
0 8 0 1
8
1.25 1.9 0
0 9 0 1
9
2 -1.9 0
0 10 0 1
10
2 -2 0
0 11 0 1
11
1.25 -1.9 0
0 12 0 1
12
1.25 -2 0
0 13 0 1
13
0 -2 0
0 14 0 1
14
0 -1.9 0
0 15 0 1
15
0.75 -2 0
0 16 0 1
16
0.75 -1.9 0
1 1 0 3
17
18
19
0 1.975 0
0 1.95 0
0 1.925 0
1 2 0 19
20
21
22
23
24
25
26
27
28
29
30
31
32
33
34
35
36
37
38
0.03750000000000001 1.9 0
0.07500000000000001 1.9 0
0.1125 1.9 0
0.15 1.9 0
0.1875 1.9 0
0.225 1.9 0
0.2625 1.9 0
0.3 1.9 0
0.3375 1.9 0
0.375 1.9 0
0.4125 1.9 0
0.4500000000000001 1.9 0
0.4875 1.9 0
0.525 1.9 0
0.5625 1.9 0
0.6000000000000001 1.9 0
0.6375000000000001 1.9 0
0.675 1.9 0
0.7125 1.9 0
1 3 0 3
39
40
41
0.75 1.925 0
0.75 1.95 0
0.75 1.975 0
1 4 0 19
42
43
44
45
46
47
48
49
50
51
52
53
54
55
56
57
58
59
60
0.7125 2 0
0.675 2 0
0.6375 2 0
0.6 2 0
0.5625 2 0
0.5249999999999999 2 0
0.4875 2 0
0.45 2 0
0.4125 2 0
0.375 2 0
0.3375 2 0
0.2999999999999999 2 0
0.2625 2 0
0.225 2 0
0.1875 2 0
0.15 2 0
0.1124999999999999 2 0
0.07499999999999998 2 0
0.03749999999999995 2 0
1 5 0 3
61
62
63
2 1.925 0
2 1.95 0
2 1.975 0
1 6 0 19
64
65
66
67
68
69
70
71
72
73
74
75
76
77
78
79
80
81
82
1.9625 2 0
1.925 2 0
1.8875 2 0
1.85 2 0
1.8125 2 0
1.775 2 0
1.7375 2 0
1.7 2 0
1.6625 2 0
1.625 2 0
1.5875 2 0
1.55 2 0
1.5125 2 0
1.475 2 0
1.4375 2 0
1.4 2 0
1.3625 2 0
1.325 2 0
1.2875 2 0
1 7 0 3
83
84
85
1.25 1.975 0
1.25 1.95 0
1.25 1.925 0
1 8 0 19
86
87
88
89
90
91
92
93
94
95
96
97
98
99
100
101
102
103
104
1.2875 1.9 0
1.325 1.9 0
1.3625 1.9 0
1.4 1.9 0
1.4375 1.9 0
1.475 1.9 0
1.5125 1.9 0
1.55 1.9 0
1.5875 1.9 0
1.625 1.9 0
1.6625 1.9 0
1.7 1.9 0
1.7375 1.9 0
1.775 1.9 0
1.8125 1.9 0
1.85 1.9 0
1.8875 1.9 0
1.925 1.9 0
1.9625 1.9 0
1 9 0 3
105
106
107
2 -1.925 0
2 -1.95 0
2 -1.975 0
1 10 0 19
108
109
110
111
112
113
114
115
116
117
118
119
120
121
122
123
124
125
126
1.2875 -1.9 0
1.325 -1.9 0
1.3625 -1.9 0
1.4 -1.9 0
1.4375 -1.9 0
1.475 -1.9 0
1.5125 -1.9 0
1.55 -1.9 0
1.5875 -1.9 0
1.625 -1.9 0
1.6625 -1.9 0
1.7 -1.9 0
1.7375 -1.9 0
1.775 -1.9 0
1.8125 -1.9 0
1.85 -1.9 0
1.8875 -1.9 0
1.925 -1.9 0
1.9625 -1.9 0
1 11 0 3
127
128
129
1.25 -1.975 0
1.25 -1.95 0
1.25 -1.925 0
1 12 0 19
130
131
132
133
134
135
136
137
138
139
140
141
142
143
144
145
146
147
148
1.9625 -2 0
1.925 -2 0
1.8875 -2 0
1.85 -2 0
1.8125 -2 0
1.775 -2 0
1.7375 -2 0
1.7 -2 0
1.6625 -2 0
1.625 -2 0
1.5875 -2 0
1.55 -2 0
1.5125 -2 0
1.475 -2 0
1.4375 -2 0
1.4 -2 0
1.3625 -2 0
1.325 -2 0
1.2875 -2 0
1 13 0 3
149
150
151
0 -1.975 0
0 -1.95 0
0 -1.925 0
1 14 0 19
152
153
154
155
156
157
158
159
160
161
162
163
164
165
166
167
168
169
170
0.7125 -2 0
0.675 -2 0
0.6375 -2 0
0.6 -2 0
0.5625 -2 0
0.5249999999999999 -2 0
0.4875 -2 0
0.45 -2 0
0.4125 -2 0
0.375 -2 0
0.3375 -2 0
0.2999999999999999 -2 0
0.2625 -2 0
0.225 -2 0
0.1875 -2 0
0.15 -2 0
0.1124999999999999 -2 0
0.07499999999999998 -2 0
0.03749999999999995 -2 0
1 15 0 3
171
172
173
0.75 -1.925 0
0.75 -1.95 0
0.75 -1.975 0
1 16 0 19
174
175
176
177
178
179
180
181
182
183
184
185
186
187
188
189
190
191
192
0.03750000000000001 -1.9 0
0.07500000000000001 -1.9 0
0.1125 -1.9 0
0.15 -1.9 0
0.1875 -1.9 0
0.225 -1.9 0
0.2625 -1.9 0
0.3 -1.9 0
0.3375 -1.9 0
0.375 -1.9 0
0.4125 -1.9 0
0.4500000000000001 -1.9 0
0.4875 -1.9 0
0.525 -1.9 0
0.5625 -1.9 0
0.6000000000000001 -1.9 0
0.6375000000000001 -1.9 0
0.675 -1.9 0
0.7125 -1.9 0
2 1 0 57
193
194
195
196
197
198
199
200
201
202
203
204
205
206
207
208
209
210
211
212
213
214
215
216
217
218
219
220
221
222
223
224
225
226
227
228
229
230
231
232
233
234
235
236
237
238
239
240
241
242
243
244
245
246
247
248
249
0.03749999999999998 1.975 0
0.07499999999999998 1.975 0
0.1124999999999999 1.975 0
0.15 1.975 0
0.1875 1.975 0
0.225 1.975000000000001 0
0.2625 1.975 0
0.3 1.975 0
0.3375 1.975 0
0.3749999999999999 1.975 0
0.4125 1.975 0
0.45 1.975 0
0.4875 1.975 0
0.5249999999999999 1.975 0
0.5625 1.975 0
0.6000000000000001 1.975 0
0.6375 1.975 0
0.675 1.975 0
0.7125 1.975 0
0.03749999999999999 1.95 0
0.07499999999999998 1.95 0
0.1125 1.95 0
0.15 1.95 0
0.1875 1.95 0
0.225 1.95 0
0.2625 1.95 0
0.3 1.95 0
0.3375 1.95 0
0.375 1.95 0
0.4124999999999999 1.95 0
0.45 1.95 0
0.4875000000000001 1.95 0
0.525 1.95 0
0.5625 1.95 0
0.6000000000000001 1.95 0
0.6375000000000001 1.95 0
0.675 1.95 0
0.7125 1.95 0
0.0375 1.925 0
0.075 1.925 0
0.1125 1.925 0
0.15 1.925 0
0.1875 1.925 0
0.225 1.925 0
0.2625 1.925 0
0.3 1.925 0
0.3375 1.925 0
0.375 1.925 0
0.4125 1.925 0
0.4500000000000001 1.925 0
0.4875 1.925 0
0.525 1.925 0
0.5625 1.925 0
0.6 1.925 0
0.6375000000000002 1.925 0
0.675 1.925 0
0.7125000000000001 1.925 0
2 2 0 57
250
251
252
253
254
255
256
257
258
259
260
261
262
263
264
265
266
267
268
269
270
271
272
273
274
275
276
277
278
279
280
281
282
283
284
285
286
287
288
289
290
291
292
293
294
295
296
297
298
299
300
301
302
303
304
305
306
1.2875 1.975 0
1.325 1.975 0
1.3625 1.975 0
1.4 1.975 0
1.4375 1.975 0
1.475 1.975 0
1.5125 1.975000000000001 0
1.55 1.975 0
1.5875 1.975 0
1.625 1.975 0
1.6625 1.975000000000001 0
1.7 1.975 0
1.7375 1.975 0
1.775 1.975 0
1.8125 1.975 0
1.85 1.975 0
1.8875 1.975 0
1.925 1.975 0
1.9625 1.975 0
1.2875 1.95 0
1.325 1.95 0
1.3625 1.95 0
1.4 1.95 0
1.4375 1.95 0
1.475 1.95 0
1.5125 1.95 0
1.55 1.95 0
1.5875 1.95 0
1.625 1.95 0
1.6625 1.95 0
1.7 1.95 0
1.7375 1.95 0
1.775 1.95 0
1.8125 1.95 0
1.85 1.95 0
1.8875 1.950000000000001 0
1.925 1.95 0
1.9625 1.95 0
1.2875 1.925 0
1.325 1.925 0
1.3625 1.925 0
1.4 1.925 0
1.4375 1.925 0
1.475 1.925 0
1.5125 1.925 0
1.55 1.925 0
1.5875 1.925 0
1.625 1.925 0
1.6625 1.925 0
1.7 1.925 0
1.7375 1.925 0
1.775 1.925 0
1.8125 1.925 0
1.85 1.925 0
1.8875 1.925 0
1.925 1.925 0
1.9625 1.925 0
2 3 0 57
307
308
309
310
311
312
313
314
315
316
317
318
319
320
321
322
323
324
325
326
327
328
329
330
331
332
333
334
335
336
337
338
339
340
341
342
343
344
345
346
347
348
349
350
351
352
353
354
355
356
357
358
359
360
361
362
363
1.2875 -1.925 0
1.325 -1.925 0
1.3625 -1.925 0
1.4 -1.925 0
1.4375 -1.925 0
1.475 -1.925 0
1.5125 -1.925 0
1.55 -1.925 0
1.5875 -1.925 0
1.625 -1.925 0
1.6625 -1.925 0
1.7 -1.925 0
1.7375 -1.925 0
1.775 -1.925 0
1.8125 -1.925 0
1.85 -1.925 0
1.8875 -1.925 0
1.925 -1.925 0
1.962499999999999 -1.925 0
1.2875 -1.95 0
1.325 -1.95 0
1.3625 -1.95 0
1.4 -1.95 0
1.4375 -1.95 0
1.475 -1.95 0
1.5125 -1.95 0
1.55 -1.95 0
1.5875 -1.95 0
1.625 -1.95 0
1.6625 -1.95 0
1.7 -1.95 0
1.7375 -1.95 0
1.775 -1.95 0
1.8125 -1.95 0
1.85 -1.95 0
1.8875 -1.95 0
1.925 -1.95 0
1.9625 -1.95 0
1.2875 -1.975 0
1.325 -1.975000000000001 0
1.3625 -1.975 0
1.4 -1.975 0
1.4375 -1.975 0
1.475 -1.975 0
1.5125 -1.975 0
1.55 -1.975000000000001 0
1.5875 -1.975 0
1.625 -1.975 0
1.6625 -1.975 0
1.7 -1.975000000000001 0
1.7375 -1.975 0
1.775 -1.975 0
1.8125 -1.975 0
1.85 -1.975 0
1.8875 -1.975 0
1.925 -1.975 0
1.9625 -1.975 0
2 4 0 57
364
365
366
367
368
369
370
371
372
373
374
375
376
377
378
379
380
381
382
383
384
385
386
387
388
389
390
391
392
393
394
395
396
397
398
399
400
401
402
403
404
405
406
407
408
409
410
411
412
413
414
415
416
417
418
419
420
0.03749999999999999 -1.925 0
0.07500000000000001 -1.925000000000001 0
0.1125 -1.925 0
0.15 -1.925 0
0.1875 -1.925 0
0.225 -1.925 0
0.2625 -1.925 0
0.3 -1.925 0
0.3375 -1.925 0
0.375 -1.925 0
0.4125000000000001 -1.925000000000001 0
0.45 -1.925 0
0.4874999999999999 -1.925 0
0.5249999999999999 -1.925 0
0.5624999999999999 -1.925 0
0.6000000000000002 -1.925 0
0.6375 -1.925 0
0.6749999999999999 -1.925 0
0.7125 -1.925 0
0.03749999999999999 -1.95 0
0.075 -1.95 0
0.1125 -1.95 0
0.15 -1.95 0
0.1875 -1.95 0
0.225 -1.950000000000001 0
0.2625 -1.95 0
0.2999999999999999 -1.95 0
0.3375 -1.95 0
0.375 -1.95 0
0.4125000000000001 -1.950000000000001 0
0.45 -1.95 0
0.4874999999999999 -1.95 0
0.5249999999999999 -1.95 0
0.5624999999999999 -1.95 0
0.6000000000000001 -1.95 0
0.6375 -1.95 0
0.675 -1.95 0
0.7124999999999999 -1.950000000000001 0
0.03749999999999998 -1.975 0
0.07499999999999997 -1.975 0
0.1125 -1.975 0
0.1499999999999999 -1.975 0
0.1875 -1.975 0
0.225 -1.975 0
0.2625 -1.975 0
0.2999999999999999 -1.974999999999999 0
0.3375 -1.975 0
0.3750000000000001 -1.975 0
0.4125 -1.975000000000001 0
0.45 -1.975 0
0.4875 -1.975 0
0.525 -1.975 0
0.5625 -1.975 0
0.6000000000000001 -1.975 0
0.6375 -1.975 0
0.6749999999999999 -1.975 0
0.7124999999999999 -1.975 0
$EndNodes
$Elements
36 528 1 528
0 1 15 1
1 1 
0 2 15 1
2 2 
0 3 15 1
3 3 
0 4 15 1
4 4 
0 5 15 1
5 5 
0 6 15 1
6 6 
0 7 15 1
7 7 
0 8 15 1
8 8 
0 9 15 1
9 9 
0 10 15 1
10 10 
0 11 15 1
11 11 
0 12 15 1
12 12 
0 13 15 1
13 13 
0 14 15 1
14 14 
0 15 15 1
15 15 
0 16 15 1
16 16 
1 1 1 4
17 1 17 
18 17 18 
19 18 19 
20 19 2 
1 2 1 20
21 2 20 
22 20 21 
23 21 22 
24 22 23 
25 23 24 
26 24 25 
27 25 26 
28 26 27 
29 27 28 
30 28 29 
31 29 30 
32 30 31 
33 31 32 
34 32 33 
35 33 34 
36 34 35 
37 35 36 
38 36 37 
39 37 38 
40 38 3 
1 3 1 4
41 3 39 
42 39 40 
43 40 41 
44 41 4 
1 4 1 20
45 4 42 
46 42 43 
47 43 44 
48 44 45 
49 45 46 
50 46 47 
51 47 48 
52 48 49 
53 49 50 
54 50 51 
55 51 52 
56 52 53 
57 53 54 
58 54 55 
59 55 56 
60 56 57 
61 57 58 
62 58 59 
63 59 60 
64 60 1 
1 5 1 4
65 5 61 
66 61 62 
67 62 63 
68 63 6 
1 6 1 20
69 6 64 
70 64 65 
71 65 66 
72 66 67 
73 67 68 
74 68 69 
75 69 70 
76 70 71 
77 71 72 
78 72 73 
79 73 74 
80 74 75 
81 75 76 
82 76 77 
83 77 78 
84 78 79 
85 79 80 
86 80 81 
87 81 82 
88 82 7 
1 7 1 4
89 7 83 
90 83 84 
91 84 85 
92 85 8 
1 8 1 20
93 8 86 
94 86 87 
95 87 88 
96 88 89 
97 89 90 
98 90 91 
99 91 92 
100 92 93 
101 93 94 
102 94 95 
103 95 96 
104 96 97 
105 97 98 
106 98 99 
107 99 100 
108 100 101 
109 101 102 
110 102 103 
111 103 104 
112 104 5 
1 9 1 4
113 9 105 
114 105 106 
115 106 107 
116 107 10 
1 10 1 20
117 11 108 
118 108 109 
119 109 110 
120 110 111 
121 111 112 
122 112 113 
123 113 114 
124 114 115 
125 115 116 
126 116 117 
127 117 118 
128 118 119 
129 119 120 
130 120 121 
131 121 122 
132 122 123 
133 123 124 
134 124 125 
135 125 126 
136 126 9 
1 11 1 4
137 12 127 
138 127 128 
139 128 129 
140 129 11 
1 12 1 20
141 10 130 
142 130 131 
143 131 132 
144 132 133 
145 133 134 
146 134 135 
147 135 136 
148 136 137 
149 137 138 
150 138 139 
151 139 140 
152 140 141 
153 141 142 
154 142 143 
155 143 144 
156 144 145 
157 145 146 
158 146 147 
159 147 148 
160 148 12 
1 13 1 4
161 13 149 
162 149 150 
163 150 151 
164 151 14 
1 14 1 20
165 15 152 
166 152 153 
167 153 154 
168 154 155 
169 155 156 
170 156 157 
171 157 158 
172 158 159 
173 159 160 
174 160 161 
175 161 162 
176 162 163 
177 163 164 
178 164 165 
179 165 166 
180 166 167 
181 167 168 
182 168 169 
183 169 170 
184 170 13 
1 15 1 4
185 16 171 
186 171 172 
187 172 173 
188 173 15 
1 16 1 20
189 14 174 
190 174 175 
191 175 176 
192 176 177 
193 177 178 
194 178 179 
195 179 180 
196 180 181 
197 181 182 
198 182 183 
199 183 184 
200 184 185 
201 185 186 
202 186 187 
203 187 188 
204 188 189 
205 189 190 
206 190 191 
207 191 192 
208 192 16 
2 1 3 80
209 1 17 193 60 
210 60 193 194 59 
211 59 194 195 58 
212 58 195 196 57 
213 57 196 197 56 
214 56 197 198 55 
215 55 198 199 54 
216 54 199 200 53 
217 53 200 201 52 
218 52 201 202 51 
219 51 202 203 50 
220 50 203 204 49 
221 49 204 205 48 
222 48 205 206 47 
223 47 206 207 46 
224 46 207 208 45 
225 45 208 209 44 
226 44 209 210 43 
227 43 210 211 42 
228 42 211 41 4 
229 17 18 212 193 
230 193 212 213 194 
231 194 213 214 195 
232 195 214 215 196 
233 196 215 216 197 
234 197 216 217 198 
235 198 217 218 199 
236 199 218 219 200 
237 200 219 220 201 
238 201 220 221 202 
239 202 221 222 203 
240 203 222 223 204 
241 204 223 224 205 
242 205 224 225 206 
243 206 225 226 207 
244 207 226 227 208 
245 208 227 228 209 
246 209 228 229 210 
247 210 229 230 211 
248 211 230 40 41 
249 18 19 231 212 
250 212 231 232 213 
251 213 232 233 214 
252 214 233 234 215 
253 215 234 235 216 
254 216 235 236 217 
255 217 236 237 218 
256 218 237 238 219 
257 219 238 239 220 
258 220 239 240 221 
259 221 240 241 222 
260 222 241 242 223 
261 223 242 243 224 
262 224 243 244 225 
263 225 244 245 226 
264 226 245 246 227 
265 227 246 247 228 
266 228 247 248 229 
267 229 248 249 230 
268 230 249 39 40 
269 19 2 20 231 
270 231 20 21 232 
271 232 21 22 233 
272 233 22 23 234 
273 234 23 24 235 
274 235 24 25 236 
275 236 25 26 237 
276 237 26 27 238 
277 238 27 28 239 
278 239 28 29 240 
279 240 29 30 241 
280 241 30 31 242 
281 242 31 32 243 
282 243 32 33 244 
283 244 33 34 245 
284 245 34 35 246 
285 246 35 36 247 
286 247 36 37 248 
287 248 37 38 249 
288 249 38 3 39 
2 2 3 80
289 7 83 250 82 
290 82 250 251 81 
291 81 251 252 80 
292 80 252 253 79 
293 79 253 254 78 
294 78 254 255 77 
295 77 255 256 76 
296 76 256 257 75 
297 75 257 258 74 
298 74 258 259 73 
299 73 259 260 72 
300 72 260 261 71 
301 71 261 262 70 
302 70 262 263 69 
303 69 263 264 68 
304 68 264 265 67 
305 67 265 266 66 
306 66 266 267 65 
307 65 267 268 64 
308 64 268 63 6 
309 83 84 269 250 
310 250 269 270 251 
311 251 270 271 252 
312 252 271 272 253 
313 253 272 273 254 
314 254 273 274 255 
315 255 274 275 256 
316 256 275 276 257 
317 257 276 277 258 
318 258 277 278 259 
319 259 278 279 260 
320 260 279 280 261 
321 261 280 281 262 
322 262 281 282 263 
323 263 282 283 264 
324 264 283 284 265 
325 265 284 285 266 
326 266 285 286 267 
327 267 286 287 268 
328 268 287 62 63 
329 84 85 288 269 
330 269 288 289 270 
331 270 289 290 271 
332 271 290 291 272 
333 272 291 292 273 
334 273 292 293 274 
335 274 293 294 275 
336 275 294 295 276 
337 276 295 296 277 
338 277 296 297 278 
339 278 297 298 279 
340 279 298 299 280 
341 280 299 300 281 
342 281 300 301 282 
343 282 301 302 283 
344 283 302 303 284 
345 284 303 304 285 
346 285 304 305 286 
347 286 305 306 287 
348 287 306 61 62 
349 85 8 86 288 
350 288 86 87 289 
351 289 87 88 290 
352 290 88 89 291 
353 291 89 90 292 
354 292 90 91 293 
355 293 91 92 294 
356 294 92 93 295 
357 295 93 94 296 
358 296 94 95 297 
359 297 95 96 298 
360 298 96 97 299 
361 299 97 98 300 
362 300 98 99 301 
363 301 99 100 302 
364 302 100 101 303 
365 303 101 102 304 
366 304 102 103 305 
367 305 103 104 306 
368 306 104 5 61 
2 3 3 80
369 11 129 307 108 
370 108 307 308 109 
371 109 308 309 110 
372 110 309 310 111 
373 111 310 311 112 
374 112 311 312 113 
375 113 312 313 114 
376 114 313 314 115 
377 115 314 315 116 
378 116 315 316 117 
379 117 316 317 118 
380 118 317 318 119 
381 119 318 319 120 
382 120 319 320 121 
383 121 320 321 122 
384 122 321 322 123 
385 123 322 323 124 
386 124 323 324 125 
387 125 324 325 126 
388 126 325 105 9 
389 129 128 326 307 
390 307 326 327 308 
391 308 327 328 309 
392 309 328 329 310 
393 310 329 330 311 
394 311 330 331 312 
395 312 331 332 313 
396 313 332 333 314 
397 314 333 334 315 
398 315 334 335 316 
399 316 335 336 317 
400 317 336 337 318 
401 318 337 338 319 
402 319 338 339 320 
403 320 339 340 321 
404 321 340 341 322 
405 322 341 342 323 
406 323 342 343 324 
407 324 343 344 325 
408 325 344 106 105 
409 128 127 345 326 
410 326 345 346 327 
411 327 346 347 328 
412 328 347 348 329 
413 329 348 349 330 
414 330 349 350 331 
415 331 350 351 332 
416 332 351 352 333 
417 333 352 353 334 
418 334 353 354 335 
419 335 354 355 336 
420 336 355 356 337 
421 337 356 357 338 
422 338 357 358 339 
423 339 358 359 340 
424 340 359 360 341 
425 341 360 361 342 
426 342 361 362 343 
427 343 362 363 344 
428 344 363 107 106 
429 127 12 148 345 
430 345 148 147 346 
431 346 147 146 347 
432 347 146 145 348 
433 348 145 144 349 
434 349 144 143 350 
435 350 143 142 351 
436 351 142 141 352 
437 352 141 140 353 
438 353 140 139 354 
439 354 139 138 355 
440 355 138 137 356 
441 356 137 136 357 
442 357 136 135 358 
443 358 135 134 359 
444 359 134 133 360 
445 360 133 132 361 
446 361 132 131 362 
447 362 131 130 363 
448 363 130 10 107 
2 4 3 80
449 14 151 364 174 
450 174 364 365 175 
451 175 365 366 176 
452 176 366 367 177 
453 177 367 368 178 
454 178 368 369 179 
455 179 369 370 180 
456 180 370 371 181 
457 181 371 372 182 
458 182 372 373 183 
459 183 373 374 184 
460 184 374 375 185 
461 185 375 376 186 
462 186 376 377 187 
463 187 377 378 188 
464 188 378 379 189 
465 189 379 380 190 
466 190 380 381 191 
467 191 381 382 192 
468 192 382 171 16 
469 151 150 383 364 
470 364 383 384 365 
471 365 384 385 366 
472 366 385 386 367 
473 367 386 387 368 
474 368 387 388 369 
475 369 388 389 370 
476 370 389 390 371 
477 371 390 391 372 
478 372 391 392 373 
479 373 392 393 374 
480 374 393 394 375 
481 375 394 395 376 
482 376 395 396 377 
483 377 396 397 378 
484 378 397 398 379 
485 379 398 399 380 
486 380 399 400 381 
487 381 400 401 382 
488 382 401 172 171 
489 150 149 402 383 
490 383 402 403 384 
491 384 403 404 385 
492 385 404 405 386 
493 386 405 406 387 
494 387 406 407 388 
495 388 407 408 389 
496 389 408 409 390 
497 390 409 410 391 
498 391 410 411 392 
499 392 411 412 393 
500 393 412 413 394 
501 394 413 414 395 
502 395 414 415 396 
503 396 415 416 397 
504 397 416 417 398 
505 398 417 418 399 
506 399 418 419 400 
507 400 419 420 401 
508 401 420 173 172 
509 149 13 170 402 
510 402 170 169 403 
511 403 169 168 404 
512 404 168 167 405 
513 405 167 166 406 
514 406 166 165 407 
515 407 165 164 408 
516 408 164 163 409 
517 409 163 162 410 
518 410 162 161 411 
519 411 161 160 412 
520 412 160 159 413 
521 413 159 158 414 
522 414 158 157 415 
523 415 157 156 416 
524 416 156 155 417 
525 417 155 154 418 
526 418 154 153 419 
527 419 153 152 420 
528 420 152 15 173 
$EndElements
