$MeshFormat
4.1 0 8
$EndMeshFormat
$PhysicalNames
8
0 9 "PointsTop"
0 10 "PointsBottom"
1 11 "CurveTopFixed"
1 12 "CurveTopFree"
1 13 "CurveBottomFree"
1 14 "CurveBottomFixed"
2 15 "SurfaceTop"
2 16 "SurfaceBottom"
$EndPhysicalNames
$Entities
8 8 2 0
1 11.80783467746281 9.800000000000001 0 1 10 
2 3.070813397129188 -3.388131789017201e-18 0 1 10 
3 15.07081339712919 0 0 1 10 
4 15.07081339712919 9.800000000000001 0 1 10 
5 11.80783467746281 10.2 0 1 9 
6 15.07081339712919 10.2 0 1 9 
7 15.07081339712919 20 0 1 9 
8 3.070813397129188 20 0 1 9 
1 3.064813297029188 -0.006000100099999628 -0.006000100100000002 11.81383477756281 9.8060001001 0.006000100100000002 1 13 2 1 -2 
2 3.064813297029188 -0.006000100100000005 -0.006000100100000002 15.07681349722919 0.006000100100000002 0.006000100100000002 1 14 2 2 -3 
3 15.06481329702919 -0.006000100099999628 -0.006000100100000002 15.07681349722919 9.8060001001 0.006000100100000002 1 13 2 3 -4 
4 11.80183457736281 9.793999899900001 -0.006000100100000002 15.07681349722919 9.8060001001 0.006000100100000002 1 13 2 4 -1 
5 11.80183457736281 10.1939998999 -0.006000100100000002 15.07681349722919 10.2060001001 0.006000100100000002 1 12 2 5 -6 
6 15.06481329702919 10.1939998999 -0.006000100100000002 15.07681349722919 20.0060001001 0.006000100100000002 1 12 2 6 -7 
7 3.064813297029188 19.9939998999 -0.006000100100000002 15.07681349722919 20.0060001001 0.006000100100000002 1 11 2 7 -8 
8 3.064813297029188 10.1939998999 -0.006000100100000002 11.81383477756281 20.0060001001 0.006000100100000002 1 12 2 8 -5 
1 3.070813297129188 -1.000000002804313e-07 -1e-07 15.07081349712919 9.8000001 1e-07 1 16 4 1 2 3 4 
2 3.070813297129188 10.1999999 -1e-07 15.07081349712919 20.0000001 1e-07 1 15 4 -8 -7 -6 -5 
$EndEntities
$Nodes
18 154 1 154
0 1 0 1
1
11.80783467746281 9.800000000000001 0
0 2 0 1
2
3.070813397129188 -3.388131789017201e-18 0
0 3 0 1
3
15.07081339712919 0 0
0 4 0 1
4
15.07081339712919 9.800000000000001 0
0 5 0 1
5
11.80783467746281 10.2 0
0 6 0 1
6
15.07081339712919 10.2 0
0 7 0 1
7
15.07081339712919 20 0
0 8 0 1
8
3.070813397129188 20 0
1 1 0 5
9
10
11
12
13
10.51653959837614 8.351601127087324 0
7.688990328470659 5.180041626889374 0
4.61177476739051 1.72844049980205 0
9.225244519289483 6.903202254174648 0
6.152736137651835 3.4568809996041 0
1 2 0 9
14
15
16
17
18
19
20
21
22
4.345993315252502 -3.028091987574705e-18 0
6.849208572888973 -2.321323388478788e-18 0
9.265329518406434 -1.639145373343954e-18 0
11.61610098394571 -9.754184124182719e-19 0
13.92480012030494 -3.235703344870013e-19 0
5.621173233375817 -2.668052186132209e-18 0
8.077243912402128 -1.974594590825367e-18 0
10.45341512441074 -1.303696155862542e-18 0
12.77878684348069 -6.471406689740017e-19 0
1 3 0 5
23
24
25
26
27
15.07081339712919 1.774221185043791 0
15.07081339712919 5.191949576239418 0
15.07081339712919 8.317728391195628 0
15.07081339712919 3.548442370087582 0
15.07081339712919 6.835456782391254 0
1 4 0 9
28
29
30
31
32
33
34
35
36
14.31933343559429 9.800000000000001 0
13.66324878033869 9.800000000000001 0
13.08325616587817 9.800000000000001 0
12.50817963655956 9.800000000000001 0
14.69507341636174 9.800000000000001 0
13.99129110796649 9.800000000000001 0
13.37325247310843 9.800000000000001 0
12.79571790121886 9.800000000000001 0
12.15800715701118 9.800000000000001 0
1 5 0 9
37
38
39
40
41
42
43
44
45
12.16612944217231 10.2 0
12.81693638288921 10.2 0
13.38942456365645 10.2 0
13.99297914725811 10.2 0
14.69368556161455 10.2 0
12.52442420688182 10.2 0
13.10944855889659 10.2 0
13.6694005684163 10.2 0
14.31655772609992 10.2 0
1 6 0 5
46
47
48
49
50
15.07081339712919 13.15013412770914 0
15.07081339712919 16.42881941406388 0
15.07081339712919 11.67506706385457 0
15.07081339712919 14.78947677088651 0
15.07081339712919 18.21440970703194 0
1 7 0 9
51
52
53
54
55
56
57
58
59
12.77272690710132 20 0
10.44763187401875 20 0
8.071315116512134 20 0
5.615798916847567 20 0
13.92177015211525 20 0
11.61017939056003 20 0
9.259473495265443 20 0
6.84355701667985 20 0
4.343306156988377 20 0
1 8 0 5
60
61
62
63
64
6.150286546022167 16.54586661851431 0
9.223535005269234 13.09871524572159 0
4.610549971575676 18.27293330925716 0
7.686910775645701 14.82229093211795 0
10.51568484136602 11.64935762286079 0
2 1 0 45
65
66
67
68
69
70
71
72
73
74
75
76
77
78
79
80
81
82
83
84
85
86
87
88
89
90
91
92
93
94
95
96
97
98
99
100
101
102
103
104
105
106
107
108
109
10.6335701327523 6.789969001187979 0
11.86815663896607 6.744314444822656 0
12.98813472916066 6.739958680587414 0
14.04545681901721 6.768261770810298 0
8.316040891299119 3.444288197902623 0
10.21859653272506 3.430437971587931 0
11.93731622850262 3.43313707796982 0
13.53839924713329 3.46595418035903 0
9.954408458483684 6.835640433183021 0
11.61363167689912 8.306221600651254 0
11.09159621474492 8.323677350718645 0
11.26898523220059 6.760815758061783 0
12.54477571862225 8.290570502189029 0
12.09415764043574 8.295884094650884 0
12.43882683365367 6.737854458861971 0
13.39734371337482 8.290491026677818 0
12.97655068415322 8.289024766488017 0
13.52214433983001 6.750009802269471 0
14.23135001101638 8.300719925147723 0
13.81457527858145 8.294508439067489 0
14.56119102233262 6.795911703114591 0
14.6505763715454 8.308714418671524 0
7.271552983208604 3.451812443272091 0
9.522129006975435 5.144348234975668 0
8.647853939109387 5.164879740677951 0
9.294983159592721 3.436308628832449 0
11.090970144475 5.114260170760749 0
10.33182891255515 5.126338175303773 0
11.09640153461474 3.428813302470899 0
12.49887171247113 5.112130801011988 0
11.81037655011608 5.109403561017131 0
12.74904359840673 3.444931859144323 0
13.81086813479213 5.139864309560576 0
13.16371889303015 5.122389216159166 0
14.31093811023736 3.498873823338492 0
14.44517015463014 5.163727505244001 0
7.01698265379492 1.725469816907744 0
5.839084746263885 1.727612150048413 0
9.226619667855667 1.719988183577905 0
8.143987815566614 1.722589453113274 0
11.27450381539396 1.720647430940203 0
10.26738107293367 1.718920773135308 0
13.20719055110758 1.737026293614613 0
12.25205198304874 1.726358906081753 0
14.14455613109814 1.753200008753386 0
2 2 0 45
110
111
112
113
114
115
116
117
118
119
120
121
122
123
124
125
126
127
128
129
130
131
132
133
134
135
136
137
138
139
140
141
142
143
144
145
146
147
148
149
150
151
152
153
154
8.314684042179033 16.55613568215812 0
10.21907227816981 16.56723567480982 0
11.93919059343779 16.56073070124458 0
13.54048269753791 16.52197333939841 0
10.63577682162258 13.20906925765586 0
11.87316389484677 13.25179651577895 0
12.99339539502416 13.25303797977332 0
14.04868677124788 13.22130700044879 0
7.26945903417672 16.54979992781438 0
7.013802583146148 18.27519009947287 0
5.836416798595569 18.27351653549377 0
9.294540689778504 16.56282695277975 0
9.224087505437286 18.27933537690454 0
8.141018294935353 18.27747100066514 0
11.09768332587367 16.56714031994638 0
11.27309994502877 18.27662135452894 0
10.26541697745312 18.2794899607217 0
12.75121620469651 16.54633482511785 0
13.20681838519819 18.25691913038674 0
12.25116470573621 18.26945719795218 0
14.31239263355523 16.48460180761771 0
14.1446365560618 18.2383506798781 0
9.954707234105546 13.16483224141247 0
9.522643742042657 14.85517008927352 0
8.647028924064807 14.83607635314691 0
11.27282817172969 13.23677544818095 0
11.09381797305732 14.88200144021901 0
10.33362318163735 14.87162304771868 0
12.4443209679568 13.25673162506124 0
12.50266626381445 14.88015092517273 0
11.81392127496435 14.88497710294208 0
13.52658830913898 13.24133139137927 0
13.81371690223722 14.84745967140397 0
13.16727720354809 14.86755563040775 0
14.56292924624243 13.19175325317963 0
14.44683344290758 14.82072224412134 0
11.61873059581532 11.69282626116191 0
11.09364078058196 11.67627590681393 0
12.553975753638 11.70679504586432 0
12.10176248902452 11.70231207762813 0
13.40453506561082 11.70531885549273 0
12.98546900351996 11.70755164740203 0
14.23440650254729 11.69360306786004 0
13.81967407182038 11.70055466417808 0
14.65199785897906 11.68484503241428 0
$EndNodes
$Elements
18 192 1 192
0 1 15 1
1 1 
0 2 15 1
2 2 
0 3 15 1
3 3 
0 4 15 1
4 4 
0 5 15 1
5 5 
0 6 15 1
6 6 
0 7 15 1
7 7 
0 8 15 1
8 8 
1 1 1 6
9 1 9 
10 9 12 
11 12 10 
12 10 13 
13 13 11 
14 11 2 
1 2 1 10
15 2 14 
16 14 19 
17 19 15 
18 15 20 
19 20 16 
20 16 21 
21 21 17 
22 17 22 
23 22 18 
24 18 3 
1 3 1 6
25 3 23 
26 23 26 
27 26 24 
28 24 27 
29 27 25 
30 25 4 
1 4 1 10
31 4 32 
32 32 28 
33 28 33 
34 33 29 
35 29 34 
36 34 30 
37 30 35 
38 35 31 
39 31 36 
40 36 1 
1 5 1 10
41 5 37 
42 37 42 
43 42 38 
44 38 43 
45 43 39 
46 39 44 
47 44 40 
48 40 45 
49 45 41 
50 41 6 
1 6 1 6
51 6 48 
52 48 46 
53 46 49 
54 49 47 
55 47 50 
56 50 7 
1 7 1 10
57 7 55 
58 55 51 
59 51 56 
60 56 52 
61 52 57 
62 57 53 
63 53 58 
64 58 54 
65 54 59 
66 59 8 
1 8 1 6
67 8 62 
68 62 60 
69 60 63 
70 63 61 
71 61 64 
72 64 5 
2 1 3 60
73 1 9 75 36 
74 9 12 73 75 
75 75 73 65 74 
76 36 75 74 31 
77 31 74 78 35 
78 74 65 76 78 
79 78 76 66 77 
80 35 78 77 30 
81 30 77 81 34 
82 77 66 79 81 
83 81 79 67 80 
84 34 81 80 29 
85 29 80 84 33 
86 80 67 82 84 
87 84 82 68 83 
88 33 84 83 28 
89 28 83 86 32 
90 83 68 85 86 
91 86 85 27 25 
92 32 86 25 4 
93 12 10 89 73 
94 10 13 87 89 
95 89 87 69 88 
96 73 89 88 65 
97 65 88 92 76 
98 88 69 90 92 
99 92 90 70 91 
100 76 92 91 66 
101 66 91 95 79 
102 91 70 93 95 
103 95 93 71 94 
104 79 95 94 67 
105 67 94 98 82 
106 94 71 96 98 
107 98 96 72 97 
108 82 98 97 68 
109 68 97 100 85 
110 97 72 99 100 
111 100 99 26 24 
112 85 100 24 27 
113 13 11 102 87 
114 11 2 14 102 
115 102 14 19 101 
116 87 102 101 69 
117 69 101 104 90 
118 101 19 15 104 
119 104 15 20 103 
120 90 104 103 70 
121 70 103 106 93 
122 103 20 16 106 
123 106 16 21 105 
124 93 106 105 71 
125 71 105 108 96 
126 105 21 17 108 
127 108 17 22 107 
128 96 108 107 72 
129 72 107 109 99 
130 107 22 18 109 
131 109 18 3 23 
132 99 109 23 26 
2 2 3 60
133 8 62 120 59 
134 62 60 118 120 
135 120 118 110 119 
136 59 120 119 54 
137 54 119 123 58 
138 119 110 121 123 
139 123 121 111 122 
140 58 123 122 53 
141 53 122 126 57 
142 122 111 124 126 
143 126 124 112 125 
144 57 126 125 52 
145 52 125 129 56 
146 125 112 127 129 
147 129 127 113 128 
148 56 129 128 51 
149 51 128 131 55 
150 128 113 130 131 
151 131 130 47 50 
152 55 131 50 7 
153 60 63 134 118 
154 63 61 132 134 
155 134 132 114 133 
156 118 134 133 110 
157 110 133 137 121 
158 133 114 135 137 
159 137 135 115 136 
160 121 137 136 111 
161 111 136 140 124 
162 136 115 138 140 
163 140 138 116 139 
164 124 140 139 112 
165 112 139 143 127 
166 139 116 141 143 
167 143 141 117 142 
168 127 143 142 113 
169 113 142 145 130 
170 142 117 144 145 
171 145 144 46 49 
172 130 145 49 47 
173 61 64 147 132 
174 64 5 37 147 
175 147 37 42 146 
176 132 147 146 114 
177 114 146 149 135 
178 146 42 38 149 
179 149 38 43 148 
180 135 149 148 115 
181 115 148 151 138 
182 148 43 39 151 
183 151 39 44 150 
184 138 151 150 116 
185 116 150 153 141 
186 150 44 40 153 
187 153 40 45 152 
188 141 153 152 117 
189 117 152 154 144 
190 152 45 41 154 
191 154 41 6 48 
192 144 154 48 46 
$EndElements
