$MeshFormat
4.1 0 8
$EndMeshFormat
$PhysicalNames
7
0 9 "5"
0 10 "load"
1 5 "1"
1 6 "2"
1 7 "3"
1 8 "4"
2 11 "6"
$EndPhysicalNames
$Entities
4 4 1 0
1 0 0.9999999999999991 0 1 9 
2 0 0 0 1 9 
3 9.999999999999995 0 0 1 9 
4 10 0.9999999999999991 0 1 10 
1 -0.002000100399999998 -0.002000100400000038 -0.002000100399999998 0.002000100399999998 1.002000100399999 0.002000100399999998 1 5 2 1 -2 
2 -0.005000100100000182 -0.005000100100000001 -0.005000100100000001 10.00500010009999 0.005000100100000001 0.005000100100000001 1 6 2 2 -3 
3 9.997999899599995 -0.002000100400000038 -0.002000100399999998 10.0020001004 1.002000100399999 0.002000100399999998 1 7 2 3 -4 
4 -0.005000100100000182 0.9949998998999992 -0.005000100100000001 10.0050001001 1.005000100099999 0.005000100100000001 1 8 2 4 -1 
1 -1.000000002804313e-07 -1.000000000028756e-07 -1e-07 10.0000001 1.000000099999999 1e-07 1 11 4 -4 -3 -2 -1 
$EndEntities
$Nodes
9 185 1 185
0 1 0 1
1
0 0.9999999999999991 0
0 2 0 1
2
0 0 0
0 3 0 1
3
9.999999999999995 0 0
0 4 0 1
4
10 0.9999999999999991 0
1 1 0 3
5
6
7
0 0.7499999999999993 0
0 0.4999999999999996 0
0 0.2499999999999998 0
1 2 0 35
8
9
10
11
12
13
14
15
16
17
18
19
20
21
22
23
24
25
26
27
28
29
30
31
32
33
34
35
36
37
38
39
40
41
42
0.2785566617442232 0 0
0.5571133234884464 0 0
0.8356699852326697 0 0
1.114226646976893 0 0
1.392551899737276 0 0
1.670877152497659 0 0
1.949202405258042 0 0
2.227527658018425 0 0
2.504427744025836 0 0
2.781327830033247 0 0
3.058227916040658 0 0
3.335128002048069 0 0
3.613580822214178 0 0
3.892033642380286 0 0
4.170486462546394 0 0
4.448939282712503 0 0
4.727374056050767 0 0
5.005808829389029 0 0
5.284243602727293 0 0
5.562678376065556 0 0
5.839357653059749 0 0
6.116036930053943 0 0
6.392716207048135 0 0
6.669395484042329 0 0
6.945983454738676 0 0
7.222571425435024 0 0
7.499159396131371 0 0
7.775747366827718 0 0
8.054055233709031 0 0
8.332363100590342 0 0
8.610670967471656 0 0
8.888978834352967 0 0
9.166734125764725 0 0
9.444489417176481 0 0
9.722244708588239 0 0
1 3 0 3
43
44
45
9.999999999999996 0.2499999999999998 0
9.999999999999998 0.4999999999999996 0
10 0.7499999999999993 0
1 4 0 35
46
47
48
49
50
51
52
53
54
55
56
57
58
59
60
61
62
63
64
65
66
67
68
69
70
71
72
73
74
75
76
77
78
79
80
9.719395486216742 0.9999999999999991 0
9.438790972433484 0.9999999999999991 0
9.158186458650226 0.9999999999999991 0
8.877581944866968 0.9999999999999991 0
8.599248783576595 0.9999999999999991 0
8.320915622286222 0.9999999999999991 0
8.042582460995849 0.9999999999999991 0
7.764249299705474 0.9999999999999991 0
7.487684504859682 0.9999999999999991 0
7.21111971001389 0.9999999999999991 0
6.934554915168096 0.9999999999999991 0
6.657990120322304 0.9999999999999991 0
6.38004317320034 0.9999999999999991 0
6.102096226078377 0.9999999999999991 0
5.824149278956413 0.9999999999999991 0
5.546202331834449 0.9999999999999991 0
5.26981771092179 0.9999999999999991 0
4.99343309000913 0.9999999999999991 0
4.717048469096471 0.9999999999999991 0
4.440663848183812 0.9999999999999991 0
4.164251518317638 0.9999999999999991 0
3.887839188451464 0.9999999999999991 0
3.61142685858529 0.9999999999999991 0
3.335014528719117 0.9999999999999991 0
3.056865057183996 0.9999999999999991 0
2.778715585648876 0.9999999999999991 0
2.500566114113756 0.9999999999999991 0
2.222416642578636 0.9999999999999991 0
1.944139509795621 0.9999999999999991 0
1.665862377012607 0.9999999999999991 0
1.387585244229593 0.9999999999999991 0
1.109308111446579 0.9999999999999991 0
0.8319810835849342 0.9999999999999991 0
0.5546540557232894 0.9999999999999991 0
0.2773270278616447 0.9999999999999991 0
2 1 0 105
81
82
83
84
85
86
87
88
89
90
91
92
93
94
95
96
97
98
99
100
101
102
103
104
105
106
107
108
109
110
111
112
113
114
115
116
117
118
119
120
121
122
123
124
125
126
127
128
129
130
131
132
133
134
135
136
137
138
139
140
141
142
143
144
145
146
147
148
149
150
151
152
153
154
155
156
157
158
159
160
161
162
163
164
165
166
167
168
169
170
171
172
173
174
175
176
177
178
179
180
181
182
183
184
185
9.441758281801773 0.4999999999999996 0
8.883766071697076 0.4999999999999995 0
8.326944408717162 0.4999999999999996 0
7.770875961052053 0.4999999999999996 0
7.216969752123974 0.4999999999999995 0
6.663375858025855 0.4999999999999995 0
6.108988164598127 0.4999999999999996 0
5.554368611642747 0.4999999999999996 0
4.999584974117474 0.4999999999999995 0
4.44476794076676 0.4999999999999996 0
3.889905665137795 0.4999999999999995 0
3.334997587147053 0.4999999999999994 0
2.779921962874681 0.4999999999999996 0
2.224593014768698 0.4999999999999996 0
1.668320302538594 0.4999999999999996 0
1.11192293922537 0.4999999999999996 0
0.5559169657340924 0.4999999999999995 0
9.440286000253947 0.7499999999999993 0
9.720890514037205 0.4999999999999996 0
9.720143000126972 0.7499999999999993 0
9.443135222625445 0.2499999999999998 0
9.721567611312722 0.2499999999999998 0
8.88071283377732 0.7499999999999993 0
9.162812375381041 0.4999999999999996 0
9.160499417015632 0.7499999999999993 0
8.88641127852032 0.2499999999999998 0
9.164773250572884 0.2499999999999998 0
8.323974352871286 0.7499999999999993 0
8.605438403072013 0.4999999999999995 0
8.602343593324303 0.7499999999999993 0
8.329698092023346 0.2499999999999998 0
8.608054685271835 0.2499999999999998 0
7.767629593983321 0.7499999999999993 0
8.049021485858759 0.4999999999999995 0
8.045801973427302 0.7499999999999993 0
7.773378627544443 0.2499999999999998 0
8.051538359783896 0.2499999999999998 0
7.214064756534508 0.7499999999999993 0
7.494009845658148 0.4999999999999996 0
7.490847175258914 0.7499999999999993 0
7.219790614245076 0.2499999999999998 0
7.496584620894759 0.2499999999999998 0
6.660664154416367 0.7499999999999993 0
6.940173995782779 0.4999999999999996 0
6.937364455475437 0.7499999999999993 0
6.66636683627638 0.2499999999999998 0
6.943078725260728 0.2499999999999998 0
6.105526786350169 0.7499999999999993 0
6.386147767566196 0.4999999999999996 0
6.383095470383268 0.7499999999999993 0
6.112497138337952 0.2499999999999998 0
6.389431987307166 0.2499999999999998 0
5.550280186839769 0.7499999999999993 0
5.831657694233526 0.4999999999999996 0
5.827903486594969 0.7499999999999993 0
5.558518208955324 0.2499999999999998 0
5.835507673646639 0.2499999999999998 0
4.996513601433763 0.7499999999999993 0
5.276976077351744 0.4999999999999996 0
5.273396894136766 0.7499999999999993 0
5.002701471123713 0.2499999999999998 0
5.280609840039519 0.2499999999999998 0
4.442720169187076 0.7499999999999993 0
4.722185301524369 0.4999999999999995 0
4.71961688531042 0.7499999999999993 0
4.446857886451422 0.2499999999999998 0
4.724779678787568 0.2499999999999998 0
3.888873952729058 0.7499999999999993 0
4.167342603598496 0.4999999999999995 0
4.165797060958067 0.7499999999999993 0
3.890971179693469 0.2499999999999998 0
4.168914533072446 0.2499999999999998 0
3.335000037861817 0.7499999999999993 0
3.612447132005585 0.4999999999999995 0
3.611936995295437 0.7499999999999993 0
3.335056774526294 0.2499999999999998 0
3.613013977109881 0.2499999999999998 0
2.779303262946556 0.7499999999999993 0
3.057438243624376 0.4999999999999995 0
3.057151650404187 0.7499999999999993 0
2.780609385138741 0.2499999999999998 0
3.057833079832517 0.2499999999999998 0
2.223475720434466 0.7499999999999993 0
2.502212869267266 0.4999999999999995 0
2.501389491690511 0.7499999999999993 0
2.226031228154361 0.2499999999999998 0
2.503320306646551 0.2499999999999998 0
1.667083164666251 0.7499999999999993 0
1.946419375305096 0.4999999999999996 0
1.945279442550358 0.7499999999999993 0
1.669590552408777 0.2499999999999998 0
1.947810890281569 0.2499999999999998 0
1.110624796462796 0.7499999999999993 0
1.390122716899454 0.4999999999999996 0
1.388853980564523 0.7499999999999993 0
1.113084064227953 0.2499999999999998 0
1.391337308318365 0.2499999999999998 0
0.5552906354479883 0.7499999999999993 0
0.8339343483258503 0.4999999999999996 0
0.8329577159553923 0.7499999999999993 0
0.5565202693305669 0.2499999999999998 0
0.83480216677926 0.2499999999999998 0
0.2779636075863436 0.4999999999999996 0
0.2776453177239941 0.7499999999999993 0
0.2782601346652834 0.2499999999999998 0
$EndNodes
$Elements
9 228 1 228
0 1 15 1
1 1 
0 2 15 1
2 2 
0 3 15 1
3 3 
0 4 15 1
4 4 
1 1 1 4
5 1 5 
6 5 6 
7 6 7 
8 7 2 
1 2 1 36
9 2 8 
10 8 9 
11 9 10 
12 10 11 
13 11 12 
14 12 13 
15 13 14 
16 14 15 
17 15 16 
18 16 17 
19 17 18 
20 18 19 
21 19 20 
22 20 21 
23 21 22 
24 22 23 
25 23 24 
26 24 25 
27 25 26 
28 26 27 
29 27 28 
30 28 29 
31 29 30 
32 30 31 
33 31 32 
34 32 33 
35 33 34 
36 34 35 
37 35 36 
38 36 37 
39 37 38 
40 38 39 
41 39 40 
42 40 41 
43 41 42 
44 42 3 
1 3 1 4
45 3 43 
46 43 44 
47 44 45 
48 45 4 
1 4 1 36
49 4 46 
50 46 47 
51 47 48 
52 48 49 
53 49 50 
54 50 51 
55 51 52 
56 52 53 
57 53 54 
58 54 55 
59 55 56 
60 56 57 
61 57 58 
62 58 59 
63 59 60 
64 60 61 
65 61 62 
66 62 63 
67 63 64 
68 64 65 
69 65 66 
70 66 67 
71 67 68 
72 68 69 
73 69 70 
74 70 71 
75 71 72 
76 72 73 
77 73 74 
78 74 75 
79 75 76 
80 76 77 
81 77 78 
82 78 79 
83 79 80 
84 80 1 
2 1 3 144
85 4 46 100 45 
86 46 47 98 100 
87 100 98 81 99 
88 45 100 99 44 
89 44 99 102 43 
90 99 81 101 102 
91 102 101 41 42 
92 43 102 42 3 
93 47 48 105 98 
94 48 49 103 105 
95 105 103 82 104 
96 98 105 104 81 
97 81 104 107 101 
98 104 82 106 107 
99 107 106 39 40 
100 101 107 40 41 
101 49 50 110 103 
102 50 51 108 110 
103 110 108 83 109 
104 103 110 109 82 
105 82 109 112 106 
106 109 83 111 112 
107 112 111 37 38 
108 106 112 38 39 
109 51 52 115 108 
110 52 53 113 115 
111 115 113 84 114 
112 108 115 114 83 
113 83 114 117 111 
114 114 84 116 117 
115 117 116 35 36 
116 111 117 36 37 
117 53 54 120 113 
118 54 55 118 120 
119 120 118 85 119 
120 113 120 119 84 
121 84 119 122 116 
122 119 85 121 122 
123 122 121 33 34 
124 116 122 34 35 
125 55 56 125 118 
126 56 57 123 125 
127 125 123 86 124 
128 118 125 124 85 
129 85 124 127 121 
130 124 86 126 127 
131 127 126 31 32 
132 121 127 32 33 
133 57 58 130 123 
134 58 59 128 130 
135 130 128 87 129 
136 123 130 129 86 
137 86 129 132 126 
138 129 87 131 132 
139 132 131 29 30 
140 126 132 30 31 
141 59 60 135 128 
142 60 61 133 135 
143 135 133 88 134 
144 128 135 134 87 
145 87 134 137 131 
146 134 88 136 137 
147 137 136 27 28 
148 131 137 28 29 
149 61 62 140 133 
150 62 63 138 140 
151 140 138 89 139 
152 133 140 139 88 
153 88 139 142 136 
154 139 89 141 142 
155 142 141 25 26 
156 136 142 26 27 
157 63 64 145 138 
158 64 65 143 145 
159 145 143 90 144 
160 138 145 144 89 
161 89 144 147 141 
162 144 90 146 147 
163 147 146 23 24 
164 141 147 24 25 
165 65 66 150 143 
166 66 67 148 150 
167 150 148 91 149 
168 143 150 149 90 
169 90 149 152 146 
170 149 91 151 152 
171 152 151 21 22 
172 146 152 22 23 
173 67 68 155 148 
174 68 69 153 155 
175 155 153 92 154 
176 148 155 154 91 
177 91 154 157 151 
178 154 92 156 157 
179 157 156 19 20 
180 151 157 20 21 
181 69 70 160 153 
182 70 71 158 160 
183 160 158 93 159 
184 153 160 159 92 
185 92 159 162 156 
186 159 93 161 162 
187 162 161 17 18 
188 156 162 18 19 
189 71 72 165 158 
190 72 73 163 165 
191 165 163 94 164 
192 158 165 164 93 
193 93 164 167 161 
194 164 94 166 167 
195 167 166 15 16 
196 161 167 16 17 
197 73 74 170 163 
198 74 75 168 170 
199 170 168 95 169 
200 163 170 169 94 
201 94 169 172 166 
202 169 95 171 172 
203 172 171 13 14 
204 166 172 14 15 
205 75 76 175 168 
206 76 77 173 175 
207 175 173 96 174 
208 168 175 174 95 
209 95 174 177 171 
210 174 96 176 177 
211 177 176 11 12 
212 171 177 12 13 
213 77 78 180 173 
214 78 79 178 180 
215 180 178 97 179 
216 173 180 179 96 
217 96 179 182 176 
218 179 97 181 182 
219 182 181 9 10 
220 176 182 10 11 
221 79 80 184 178 
222 80 1 5 184 
223 184 5 6 183 
224 178 184 183 97 
225 97 183 185 181 
226 183 6 7 185 
227 185 7 2 8 
228 181 185 8 9 
$EndElements
