$MeshFormat
4.1 0 8
$EndMeshFormat
$PhysicalNames
6
0 5 "PointsBoundary"
1 6 "CurveLeft"
1 7 "CurveBottom"
1 8 "CurveRight"
1 9 "CurveTop"
2 10 "SurfaceBoundary"
$EndPhysicalNames
$Entities
4 4 1 0
1 0 1000 0 1 5 
2 0 0 0 1 5 
3 1000 0 0 1 5 
4 1000 1000 0 1 5 
1 -0.5000001001 -0.5000001001000101 -0.5000001001 0.5000001001 1000.5000001001 0.5000001001 1 6 2 1 -2 
2 -0.5000001001000101 -0.5000001001 -0.5000001001 1000.5000001001 0.5000001001 0.5000001001 1 7 2 2 -3 
3 999.4999998999 -0.5000001001000101 -0.5000001001 1000.5000001001 1000.5000001001 0.5000001001 1 8 2 3 -4 
4 -0.5000001001000101 999.4999998999 -0.5000001001 1000.5000001001 1000.5000001001 0.5000001001 1 9 2 4 -1 
1 -1.000000224848918e-07 -1.000000224848918e-07 -1e-07 1000.0000001 1000.0000001 1e-07 1 10 4 -4 -3 -2 -1 
$EndEntities
$Nodes
9 441 1 441
0 1 0 1
1
0 1000 0
0 2 0 1
2
0 0 0
0 3 0 1
3
1000 0 0
0 4 0 1
4
1000 1000 0
1 1 0 19
5
6
7
8
9
10
11
12
13
14
15
16
17
18
19
20
21
22
23
0 949.090475851649 0
0 898.1809517032981 0
0 847.2714275549472 0
0 796.3619034065962 0
0 746.3991274044074 0
0 696.4363514022185 0
0 646.4735754000297 0
0 596.5107993978409 0
0 546.0806082432232 0
0 495.6504170886056 0
0 445.220225933988 0
0 394.7900347793704 0
0 345.5230557344822 0
0 296.2560766895939 0
0 246.9890976447056 0
0 197.7221185998173 0
0 148.291588949863 0
0 98.86105929990866 0
0 49.43052964995433 0
1 2 0 19
24
25
26
27
28
29
30
31
32
33
34
35
36
37
38
39
40
41
42
50.71201805779729 0 0
101.4240361155946 0 0
152.1360541733919 0 0
202.8480722311891 0 0
254.3031653483203 0 0
305.7582584654514 0 0
357.2133515825825 0 0
408.6684446997136 0 0
459.5513920925276 0 0
510.4343394853417 0 0
561.3172868781558 0 0
612.2002342709698 0 0
660.5900519862956 0 0
708.9798697016215 0 0
757.3696874169474 0 0
805.7595051322733 0 0
854.3196288492049 0 0
902.8797525661366 0 0
951.4398762830683 0 0
1 3 0 19
43
44
45
46
47
48
49
50
51
52
53
54
55
56
57
58
59
60
61
1000 50.15322374700403 0
1000 100.3064474940081 0
1000 150.4596712410121 0
1000 200.6128949880161 0
1000 249.5725644698789 0
1000 298.5322339517417 0
1000 347.4919034336045 0
1000 396.4515729154674 0
1000 447.2691817924281 0
1000 498.0867906693888 0
1000 548.9043995463496 0
1000 599.7220084233103 0
1000 650.0709956651639 0
1000 700.4199829070174 0
1000 750.7689701488708 0
1000 801.1179573907243 0
1000 850.8384680430432 0
1000 900.5589786953622 0
1000 950.2794893476811 0
1 4 0 19
62
63
64
65
66
67
68
69
70
71
72
73
74
75
76
77
78
79
80
950.3106111052745 1000 0
900.6212222105489 1000 0
850.9318333158234 1000 0
801.2424444210978 1000 0
752.5287884869861 1000 0
703.8151325528743 1000 0
655.1014766187625 1000 0
606.3878206846506 1000 0
556.0557315770425 1000 0
505.7236424694343 1000 0
455.3915533618261 1000 0
405.059464254218 1000 0
354.4734439457396 1000 0
303.8874236372612 1000 0
253.3014033287828 1000 0
202.7153830203044 1000 0
152.0365372652283 1000 0
101.3576915101522 1000 0
50.67884575507611 1000 0
2 1 0 361
81
82
83
84
85
86
87
88
89
90
91
92
93
94
95
96
97
98
99
100
101
102
103
104
105
106
107
108
109
110
111
112
113
114
115
116
117
118
119
120
121
122
123
124
125
126
127
128
129
130
131
132
133
134
135
136
137
138
139
140
141
142
143
144
145
146
147
148
149
150
151
152
153
154
155
156
157
158
159
160
161
162
163
164
165
166
167
168
169
170
171
172
173
174
175
176
177
178
179
180
181
182
183
184
185
186
187
188
189
190
191
192
193
194
195
196
197
198
199
200
201
202
203
204
205
206
207
208
209
210
211
212
213
214
215
216
217
218
219
220
221
222
223
224
225
226
227
228
229
230
231
232
233
234
235
236
237
238
239
240
241
242
243
244
245
246
247
248
249
250
251
252
253
254
255
256
257
258
259
260
261
262
263
264
265
266
267
268
269
270
271
272
273
274
275
276
277
278
279
280
281
282
283
284
285
286
287
288
289
290
291
292
293
294
295
296
297
298
299
300
301
302
303
304
305
306
307
308
309
310
311
312
313
314
315
316
317
318
319
320
321
322
323
324
325
326
327
328
329
330
331
332
333
334
335
336
337
338
339
340
341
342
343
344
345
346
347
348
349
350
351
352
353
354
355
356
357
358
359
360
361
362
363
364
365
366
367
368
369
370
371
372
373
374
375
376
377
378
379
380
381
382
383
384
385
386
387
388
389
390
391
392
393
394
395
396
397
398
399
400
401
402
403
404
405
406
407
408
409
410
411
412
413
414
415
416
417
418
419
420
421
422
423
424
425
426
427
428
429
430
431
432
433
434
435
436
437
438
439
440
441
900.7899581862745 900.2169956163707 0
900.8291041762634 800.3065979737178 0
900.8284203818129 699.9583795304446 0
900.8544149990819 599.4255598788377 0
900.9436683815115 498.6790963093419 0
901.1190151772998 398.2121351147966 0
901.3966378178636 298.9043018941373 0
901.7911122935193 199.7632306356709 0
902.3023559948001 99.97445863955011 0
801.7125820860712 900.0039938518951 0
801.6975117265786 799.9257616751145 0
801.63041690485 699.6786970857349 0
801.6475128885088 599.3376899655793 0
801.8022278142349 498.9840259177406 0
802.1314108867749 398.8368638239568 0
802.6736143087543 299.1213060882283 0
803.4696849286813 199.5459290101567 0
804.5400818553449 99.81915465736041 0
703.1096411049094 899.8728806208925 0
702.6151325410068 799.7106764557822 0
702.3486704294495 699.4945446211564 0
702.3027685358911 599.2624044466745 0
702.4868530551414 499.0777222144821 0
702.9311425976991 399.0371876714234 0
703.6955521030968 299.203202677884 0
704.8780130620861 199.479685210803 0
706.6192473801952 99.75124082080173 0
604.2878397861548 899.7756734615576 0
603.3037238615073 799.548751593235 0
602.8448983416889 699.3274261061408 0
602.7299582296408 599.1398915758861 0
602.9140047115778 499.0269036563326 0
603.4126589137026 399.0333057623641 0
604.2995251973952 299.1771357335268 0
605.7316946606851 199.4193011774657 0
608.0562162371789 99.70464881941244 0
504.3574595400289 899.6797371127177 0
503.470732025424 799.380804619279 0
502.9988143324824 699.1269907836063 0
502.8606483648362 598.9435605979969 0
503.0257921128081 498.8561327716356 0
503.5064127958611 398.8900169261824 0
504.3590868368474 299.0520336891349 0
505.6932808615867 199.3171777766743 0
507.673634393329 99.64608701323971 0
403.9562411138177 899.5604555487556 0
403.226224392948 799.1668510379258 0
402.8164469387859 698.8574424897688 0
402.6872064291094 598.6515574820992 0
402.8222427421742 498.5642742282758 0
403.2282995091478 398.6185906483455 0
403.9375454643598 298.8245789027962 0
405.0061745867727 199.1532246157284 0
406.5258113736247 99.55978073924055 0
303.1838220046896 899.3940686402586 0
302.6620916781895 798.8683487823681 0
302.3523095047613 698.485262235905 0
302.2491565604954 598.2412729312975 0
302.3473800049603 498.1311779064999 0
302.6485834895742 398.1985648884534 0
303.1546871114415 298.4759113482834 0
303.8646415276284 198.9108151988646 0
304.7547941137732 99.43631820823535 0
202.2309221145127 899.1465659651662 0
201.8865229307935 798.4264172561532 0
201.6805421544217 697.9750289069408 0
201.6093540320181 597.6972832285284 0
201.6714892601375 497.5255592673014 0
201.8611996556228 397.5689795503404 0
202.1638502860736 297.965905635837 0
202.5407323549232 198.5749461080946 0
202.8786670605311 99.27078183501675 0
101.1401864625833 898.7612620818998 0
100.9742161985696 797.7119600317856 0
100.8728907663428 697.2925573114544 0
100.8369859054967 597.0496646604707 0
100.8666682392758 496.7034635417931 0
100.9567771595681 396.5794345612729 0
101.0952153233667 297.2383751116386 0
101.2569060771452 198.1498904992315 0
101.3888446472555 99.07033088960503 0
900.7054116267408 950.1081378679876 0
950.3948005214663 900.3876272156688 0
950.3527058133703 950.1938136078345 0
900.809013317637 850.259827073693 0
950.4142127961707 800.7106679010676 0
950.4045066588185 850.5491475583681 0
900.828473128983 750.129737495231 0
950.4142603328122 700.1880397430341 0
950.4142365644916 750.4493538220509 0
900.8418818773355 649.6897813914725 0
950.4276215445233 599.5727373136021 0
950.4209409386677 649.8803885283182 0
900.8996605854302 549.0511476815163 0
950.472039040907 498.3828099142637 0
950.4498302927152 548.9777736139331 0
901.0309584537774 448.4497925763693 0
950.5589194128704 397.3361644545337 0
950.5154792268887 447.8594871843987 0
901.2567441740277 348.5652412616191 0
950.6978247611572 298.7209802406899 0
950.628372087014 348.0285723476118 0
901.5936748201366 249.3347493284209 0
950.8958500589794 200.1863335576098 0
950.7968374100683 249.4536568991499 0
902.0467388755119 149.8652451703893 0
951.1508888165325 100.1385828537916 0
951.0233694377559 150.1624582057007 0
902.5907650996008 49.98535910678755 0
951.2953825498004 50.06929142689579 0
801.475600394969 950.0013729185641 0
851.2491787058864 900.1095107865518 0
851.0905060108548 950.0547553932759 0
801.7021685148245 849.9629648885109 0
851.2620031265751 800.1132811756521 0
851.2555909162307 850.111395981102 0
801.6629973209592 749.8003713668877 0
851.229467323367 699.8168276864665 0
851.2457352249712 749.9650544310593 0
801.6393937949287 649.5072447239792 0
851.2518083488972 599.3801984289853 0
851.2406378361321 649.598513057726 0
801.7258020106079 549.1606172118741 0
851.3736542471411 498.8315664644052 0
851.3127312980191 549.1058824466952 0
801.9674290556518 448.9135995699139 0
851.6247332622881 398.531825681878 0
851.4991937547146 448.6816960731416 0
802.4023434221966 348.9845197080816 0
852.0343543339361 299.0179352878226 0
851.8295437981121 348.7748804848503 0
803.0712162310067 249.3359464117961 0
852.6305367172071 199.6527604523943 0
852.3324455255718 249.3353478701084 0
804.0025155823104 149.6812010053369 0
853.4187177406152 99.89368572333191 0
853.0246272289111 149.7732230878631 0
805.1475814902193 49.90832661654437 0
853.8691732949101 49.94684286166596 0
703.4612659516981 949.9357618363226 0
752.408077859681 899.9371347548868 0
752.4684331733336 949.9685673774434 0
702.8610630257331 849.7902881948987 0
752.1551536808765 799.8161183285226 0
752.2816157702788 849.8766265417047 0
702.4819538451009 749.6015383598294 0
751.9897974851833 699.5857913981945 0
752.07247558303 749.7009548633587 0
702.3268939708121 649.3782089256823 0
751.9764902805574 599.299662251467 0
751.9831438828704 649.4427268248307 0
702.3967246064215 549.170476872087 0
752.146036336472 499.031431832494 0
752.0612633085146 549.1655470419805 0
702.710612336025 449.0594687833307 0
752.5320050552048 398.9416365207505 0
752.3390206958384 448.9865341766223 0
703.3139842281 349.1232915889972 0
753.184322595092 299.1661747763282 0
752.8581638251483 349.0539056485394 0
704.2863310993832 249.3433156053449 0
754.1732247352979 199.5130872408128 0
753.678773665195 249.3396310085705 0
705.7445257325036 149.6152858226178 0
755.573816579516 99.78339958714182 0
754.873520657407 149.6482434139773 0
707.7959225062441 49.87507297059744 0
756.4717519982318 49.89169979357091 0
605.3394012320396 949.8871480681499 0
653.6991905649752 899.8229099044726 0
654.4003335918688 949.9114549522362 0
603.7988637913088 849.6608876949313 0
652.9607362520667 799.6282659853573 0
653.3299634085209 849.7255879449149 0
603.0768610628984 749.4372849518495 0
652.5980786559325 699.4105573263216 0
652.7794074539997 749.5194116558393 0
602.7895036367975 649.2335757468339 0
652.5183189516772 599.2012273461946 0
652.5581988038048 649.3058923362581 0
602.8235901082409 549.083612567461 0
652.7019957629852 499.0528620933534 0
652.6101573573312 549.1270447197739 0
603.1643114539268 449.0305071023245 0
653.1729280269666 399.0371137923017 0
652.9374618949757 449.0449879428276 0
603.8566500547954 349.1058622592313 0
653.9977062559287 299.1920400559268 0
653.5853171414476 349.1145769241143 0
605.0155982059223 249.2987385979687 0
655.3042230493767 199.4500141473868 0
654.6509646526526 249.3210271016568 0
606.8933337420766 149.5615537091916 0
657.3336364252035 99.72682538442253 0
656.3189297372901 149.5884197659047 0
610.127765905255 49.85175241382508 0
658.9618442057496 49.86341269221126 0
505.0428018743936 949.8390908094957 0
554.3264715293908 899.7262388776458 0
555.1911015532166 949.8631194388229 0
503.9181298445641 849.5288295648265 0
553.3905221064821 799.463478382112 0
553.8584968179365 849.5948586298789 0
503.2371229783864 749.2531380058027 0
552.9234619348026 699.2269445755402 0
553.1569920206424 749.3452114788262 0
502.9306694052383 649.0351965423424 0
552.7967111072333 599.0418277136362 0
552.8600865210178 649.1343861445882 0
502.9438207358175 548.8998905485985 0
552.9706997368252 498.9416754024234 0
552.8837054220292 548.9917515580297 0
503.2663933166461 448.8730847992751 0
553.4600050337478 398.9619164991763 0
553.2153523852865 448.9517959507998 0
503.9327063312325 348.9709117476353 0
554.32935135228 299.1148575076903 0
553.8946781930139 349.0383870034333 0
505.026077927434 249.1842228181068 0
555.7123247810762 199.3681039083851 0
555.020838066678 249.2414807080377 0
506.6854451246252 149.4804380023549 0
557.8664540856256 99.67388780316142 0
556.7893894333509 149.5209958557733 0
509.0559750585263 49.82213538933634 0
559.5918704818906 49.83694390158071 0
404.5091933564961 949.7794764145028 0
454.1604418690636 899.6185672239986 0
454.7759976154449 949.8092836119993 0
403.5937307341676 849.3622017490769 0
453.3514187096681 799.2724640899048 0
453.7559302893659 849.4455156569517 0
403.0228316008445 749.011240964193 0
452.9085358695627 698.9919148800909 0
453.1299772896155 749.1321894849979 0
402.7522302699522 648.7541818681348 0
452.7743638056278 598.7974635303863 0
452.8414498375952 648.8946892052386 0
402.7546301131449 548.6076682853153 0
452.9240870433346 498.7100953035275 0
452.8492254244812 548.7537794169569 0
403.0247347456078 448.5910297985422 0
453.3670410189193 398.7540192942898 0
453.145564031127 448.7320572989087 0
403.5817040260545 348.7204771139278 0
454.1473693383676 298.9373695672733 0
453.7572051786435 348.8456944307816 0
404.470562047956 248.9868029244682 0
455.3492706370224 199.2336561753017 0
454.748319987695 249.0855128712875 0
405.7663937704639 149.3538400927848 0
457.1025682580667 99.60062191983803 0
456.2259194475445 149.4171390475699 0
407.5979852920681 49.77848653050169 0
458.3269801752972 49.80031095991902 0
303.5365744646131 949.6960895139416 0
353.5723238753696 899.4755659284444 0
354.0228839105546 949.7377829642222 0
302.9247681347656 849.1292600527852 0
352.9461749935637 799.0158958734177 0
353.2592494344666 849.2457309009311 0
302.5082424208717 748.6754422337574 0
352.5848990281526 698.6707873245327 0
352.7655370108581 748.8433415989753 0
302.3007899605811 648.3626216806883 0
352.4681212023807 598.4460162242904 0
352.5265101152667 648.5584017744115 0
302.2977347012022 548.1855709259858 0
352.5842436119664 498.3472229870107 0
352.5261824071735 548.3966196056505 0
302.4962115265856 448.1628889956506 0
352.9367026602271 398.4066958071821 0
352.7604731360967 448.3769593970964 0
302.8988129794216 348.3331639850655 0
353.543814345249 298.6469452918113 0
353.240258502738 348.5268205494967 0
303.5080724678718 248.6886716730535 0
354.4348201705789 199.0285293057105 0
353.989317257914 248.8377372987609 0
304.3115826172062 149.1696329138146 0
355.6431562170912 99.494943700889 0
355.0389881938351 149.2617365032997 0
305.2585225076057 49.71645717038731 0
356.4282538998369 49.7474718504445 0
202.4740635572813 949.5717111024195 0
252.7092346931115 899.267800616361 0
253.0053190109472 949.6339003081805 0
202.06052491941 848.7833067143642 0
252.2760583610641 798.6447661507884 0
252.4926465270878 848.9562833835747 0
201.7845799872958 748.1986462373632 0
252.0167640471034 698.2293223203321 0
252.1464112040837 748.4370442355603 0
201.6449524502983 647.8352916948754 0
251.9289783637759 597.9685910552316 0
251.9728712054397 648.0989566877819 0
201.6393072044968 547.6091047422885 0
252.008063541923 497.8260846130428 0
251.9685209528495 547.897337834137 0
201.763563680111 447.5417912730087 0
252.2517116647736 397.8785956556166 0
252.1298876033483 447.8523401343297 0
202.0092638971744 347.7606181576302 0
252.6563652118224 298.2151864870792 0
252.454038438298 348.0468910713479 0
202.3513322269035 248.2650868688655 0
253.203039482953 198.7385720548398 0
252.9297023473877 248.4768792709595 0
202.7133417228834 148.9195627190327 0
253.8218848571366 99.35062357800751 0
253.5124621700448 149.0445978164237 0
202.8665276978512 49.63416640762021 0
254.0625251027284 49.67531178900376 0
101.2496269151766 949.3791592837916 0
151.6871532072296 898.9508703862111 0
151.861845236229 949.4754351931056 0
101.0586879982974 848.2336094648895 0
151.4320597104779 798.0660457930427 0
151.5596064588537 848.5084580896269 0
100.9246001586031 747.5005443064551 0
151.277120435421 697.6331447507756 0
151.3545900729494 747.8495952719092 0
100.8551326488193 647.1707941191612 0
151.2229646636965 597.372941063261 0
151.2500425495588 647.5030429070183 0
100.8509779863758 546.8737650752847 0
151.2673205271761 497.1099287543123 0
151.2451425954363 547.2414349087866 0
100.9094720921871 446.6345531964656 0
151.4057152451219 397.066415715162 0
151.336517886149 447.0881722347372 0
101.0233467022614 346.9024305035809 0
151.6268953543139 297.5966329460491 0
151.5163052997179 347.3315243306055 0
101.1746508196844 247.6914949257457 0
151.899087692274 198.3599488485621 0
151.7629915232939 247.9782908973056 0
101.3239243495726 148.6093646858306 0
152.138178380182 99.16897855630124 0
152.018633036228 148.7644637024317 0
101.4077048557226 49.53481214868103 0
152.1371162767869 49.58448927815062 0
50.57078116010052 898.4696351354407 0
50.62481345758832 949.2348175677205 0
50.48790683819693 797.0354018843959 0
50.52934399914872 847.7525185099182 0
50.4366933204062 696.8642698264666 0
50.46230007930156 746.9498358554313 0
50.41843932841309 596.7800996927244 0
50.42756632440965 646.8221847595955 0
50.43253865796271 496.1742736257836 0
50.4254889931879 546.4771866592539 0
50.47693343422435 395.68050550467 0
50.45473604609353 445.9273895652268 0
50.5464132680371 296.744980733393 0
50.51167335113072 346.2127431190315 0
50.62823755164729 197.9356118370582 0
50.58732540984219 247.3402962852256 0
50.6956867979253 98.96534179863536 0
50.6619621747863 148.4504768178468 0
50.70385242786129 49.48267089931768 0
$EndNodes
$Elements
9 484 1 484
0 1 15 1
1 1 
0 2 15 1
2 2 
0 3 15 1
3 3 
0 4 15 1
4 4 
1 1 1 20
5 1 5 
6 5 6 
7 6 7 
8 7 8 
9 8 9 
10 9 10 
11 10 11 
12 11 12 
13 12 13 
14 13 14 
15 14 15 
16 15 16 
17 16 17 
18 17 18 
19 18 19 
20 19 20 
21 20 21 
22 21 22 
23 22 23 
24 23 2 
1 2 1 20
25 2 24 
26 24 25 
27 25 26 
28 26 27 
29 27 28 
30 28 29 
31 29 30 
32 30 31 
33 31 32 
34 32 33 
35 33 34 
36 34 35 
37 35 36 
38 36 37 
39 37 38 
40 38 39 
41 39 40 
42 40 41 
43 41 42 
44 42 3 
1 3 1 20
45 3 43 
46 43 44 
47 44 45 
48 45 46 
49 46 47 
50 47 48 
51 48 49 
52 49 50 
53 50 51 
54 51 52 
55 52 53 
56 53 54 
57 54 55 
58 55 56 
59 56 57 
60 57 58 
61 58 59 
62 59 60 
63 60 61 
64 61 4 
1 4 1 20
65 4 62 
66 62 63 
67 63 64 
68 64 65 
69 65 66 
70 66 67 
71 67 68 
72 68 69 
73 69 70 
74 70 71 
75 71 72 
76 72 73 
77 73 74 
78 74 75 
79 75 76 
80 76 77 
81 77 78 
82 78 79 
83 79 80 
84 80 1 
2 1 3 400
85 4 62 164 61 
86 62 63 162 164 
87 164 162 81 163 
88 61 164 163 60 
89 60 163 167 59 
90 163 81 165 167 
91 167 165 82 166 
92 59 167 166 58 
93 58 166 170 57 
94 166 82 168 170 
95 170 168 83 169 
96 57 170 169 56 
97 56 169 173 55 
98 169 83 171 173 
99 173 171 84 172 
100 55 173 172 54 
101 54 172 176 53 
102 172 84 174 176 
103 176 174 85 175 
104 53 176 175 52 
105 52 175 179 51 
106 175 85 177 179 
107 179 177 86 178 
108 51 179 178 50 
109 50 178 182 49 
110 178 86 180 182 
111 182 180 87 181 
112 49 182 181 48 
113 48 181 185 47 
114 181 87 183 185 
115 185 183 88 184 
116 47 185 184 46 
117 46 184 188 45 
118 184 88 186 188 
119 188 186 89 187 
120 45 188 187 44 
121 44 187 190 43 
122 187 89 189 190 
123 190 189 41 42 
124 43 190 42 3 
125 63 64 193 162 
126 64 65 191 193 
127 193 191 90 192 
128 162 193 192 81 
129 81 192 196 165 
130 192 90 194 196 
131 196 194 91 195 
132 165 196 195 82 
133 82 195 199 168 
134 195 91 197 199 
135 199 197 92 198 
136 168 199 198 83 
137 83 198 202 171 
138 198 92 200 202 
139 202 200 93 201 
140 171 202 201 84 
141 84 201 205 174 
142 201 93 203 205 
143 205 203 94 204 
144 174 205 204 85 
145 85 204 208 177 
146 204 94 206 208 
147 208 206 95 207 
148 177 208 207 86 
149 86 207 211 180 
150 207 95 209 211 
151 211 209 96 210 
152 180 211 210 87 
153 87 210 214 183 
154 210 96 212 214 
155 214 212 97 213 
156 183 214 213 88 
157 88 213 217 186 
158 213 97 215 217 
159 217 215 98 216 
160 186 217 216 89 
161 89 216 219 189 
162 216 98 218 219 
163 219 218 39 40 
164 189 219 40 41 
165 65 66 222 191 
166 66 67 220 222 
167 222 220 99 221 
168 191 222 221 90 
169 90 221 225 194 
170 221 99 223 225 
171 225 223 100 224 
172 194 225 224 91 
173 91 224 228 197 
174 224 100 226 228 
175 228 226 101 227 
176 197 228 227 92 
177 92 227 231 200 
178 227 101 229 231 
179 231 229 102 230 
180 200 231 230 93 
181 93 230 234 203 
182 230 102 232 234 
183 234 232 103 233 
184 203 234 233 94 
185 94 233 237 206 
186 233 103 235 237 
187 237 235 104 236 
188 206 237 236 95 
189 95 236 240 209 
190 236 104 238 240 
191 240 238 105 239 
192 209 240 239 96 
193 96 239 243 212 
194 239 105 241 243 
195 243 241 106 242 
196 212 243 242 97 
197 97 242 246 215 
198 242 106 244 246 
199 246 244 107 245 
200 215 246 245 98 
201 98 245 248 218 
202 245 107 247 248 
203 248 247 37 38 
204 218 248 38 39 
205 67 68 251 220 
206 68 69 249 251 
207 251 249 108 250 
208 220 251 250 99 
209 99 250 254 223 
210 250 108 252 254 
211 254 252 109 253 
212 223 254 253 100 
213 100 253 257 226 
214 253 109 255 257 
215 257 255 110 256 
216 226 257 256 101 
217 101 256 260 229 
218 256 110 258 260 
219 260 258 111 259 
220 229 260 259 102 
221 102 259 263 232 
222 259 111 261 263 
223 263 261 112 262 
224 232 263 262 103 
225 103 262 266 235 
226 262 112 264 266 
227 266 264 113 265 
228 235 266 265 104 
229 104 265 269 238 
230 265 113 267 269 
231 269 267 114 268 
232 238 269 268 105 
233 105 268 272 241 
234 268 114 270 272 
235 272 270 115 271 
236 241 272 271 106 
237 106 271 275 244 
238 271 115 273 275 
239 275 273 116 274 
240 244 275 274 107 
241 107 274 277 247 
242 274 116 276 277 
243 277 276 35 36 
244 247 277 36 37 
245 69 70 280 249 
246 70 71 278 280 
247 280 278 117 279 
248 249 280 279 108 
249 108 279 283 252 
250 279 117 281 283 
251 283 281 118 282 
252 252 283 282 109 
253 109 282 286 255 
254 282 118 284 286 
255 286 284 119 285 
256 255 286 285 110 
257 110 285 289 258 
258 285 119 287 289 
259 289 287 120 288 
260 258 289 288 111 
261 111 288 292 261 
262 288 120 290 292 
263 292 290 121 291 
264 261 292 291 112 
265 112 291 295 264 
266 291 121 293 295 
267 295 293 122 294 
268 264 295 294 113 
269 113 294 298 267 
270 294 122 296 298 
271 298 296 123 297 
272 267 298 297 114 
273 114 297 301 270 
274 297 123 299 301 
275 301 299 124 300 
276 270 301 300 115 
277 115 300 304 273 
278 300 124 302 304 
279 304 302 125 303 
280 273 304 303 116 
281 116 303 306 276 
282 303 125 305 306 
283 306 305 33 34 
284 276 306 34 35 
285 71 72 309 278 
286 72 73 307 309 
287 309 307 126 308 
288 278 309 308 117 
289 117 308 312 281 
290 308 126 310 312 
291 312 310 127 311 
292 281 312 311 118 
293 118 311 315 284 
294 311 127 313 315 
295 315 313 128 314 
296 284 315 314 119 
297 119 314 318 287 
298 314 128 316 318 
299 318 316 129 317 
300 287 318 317 120 
301 120 317 321 290 
302 317 129 319 321 
303 321 319 130 320 
304 290 321 320 121 
305 121 320 324 293 
306 320 130 322 324 
307 324 322 131 323 
308 293 324 323 122 
309 122 323 327 296 
310 323 131 325 327 
311 327 325 132 326 
312 296 327 326 123 
313 123 326 330 299 
314 326 132 328 330 
315 330 328 133 329 
316 299 330 329 124 
317 124 329 333 302 
318 329 133 331 333 
319 333 331 134 332 
320 302 333 332 125 
321 125 332 335 305 
322 332 134 334 335 
323 335 334 31 32 
324 305 335 32 33 
325 73 74 338 307 
326 74 75 336 338 
327 338 336 135 337 
328 307 338 337 126 
329 126 337 341 310 
330 337 135 339 341 
331 341 339 136 340 
332 310 341 340 127 
333 127 340 344 313 
334 340 136 342 344 
335 344 342 137 343 
336 313 344 343 128 
337 128 343 347 316 
338 343 137 345 347 
339 347 345 138 346 
340 316 347 346 129 
341 129 346 350 319 
342 346 138 348 350 
343 350 348 139 349 
344 319 350 349 130 
345 130 349 353 322 
346 349 139 351 353 
347 353 351 140 352 
348 322 353 352 131 
349 131 352 356 325 
350 352 140 354 356 
351 356 354 141 355 
352 325 356 355 132 
353 132 355 359 328 
354 355 141 357 359 
355 359 357 142 358 
356 328 359 358 133 
357 133 358 362 331 
358 358 142 360 362 
359 362 360 143 361 
360 331 362 361 134 
361 134 361 364 334 
362 361 143 363 364 
363 364 363 29 30 
364 334 364 30 31 
365 75 76 367 336 
366 76 77 365 367 
367 367 365 144 366 
368 336 367 366 135 
369 135 366 370 339 
370 366 144 368 370 
371 370 368 145 369 
372 339 370 369 136 
373 136 369 373 342 
374 369 145 371 373 
375 373 371 146 372 
376 342 373 372 137 
377 137 372 376 345 
378 372 146 374 376 
379 376 374 147 375 
380 345 376 375 138 
381 138 375 379 348 
382 375 147 377 379 
383 379 377 148 378 
384 348 379 378 139 
385 139 378 382 351 
386 378 148 380 382 
387 382 380 149 381 
388 351 382 381 140 
389 140 381 385 354 
390 381 149 383 385 
391 385 383 150 384 
392 354 385 384 141 
393 141 384 388 357 
394 384 150 386 388 
395 388 386 151 387 
396 357 388 387 142 
397 142 387 391 360 
398 387 151 389 391 
399 391 389 152 390 
400 360 391 390 143 
401 143 390 393 363 
402 390 152 392 393 
403 393 392 27 28 
404 363 393 28 29 
405 77 78 396 365 
406 78 79 394 396 
407 396 394 153 395 
408 365 396 395 144 
409 144 395 399 368 
410 395 153 397 399 
411 399 397 154 398 
412 368 399 398 145 
413 145 398 402 371 
414 398 154 400 402 
415 402 400 155 401 
416 371 402 401 146 
417 146 401 405 374 
418 401 155 403 405 
419 405 403 156 404 
420 374 405 404 147 
421 147 404 408 377 
422 404 156 406 408 
423 408 406 157 407 
424 377 408 407 148 
425 148 407 411 380 
426 407 157 409 411 
427 411 409 158 410 
428 380 411 410 149 
429 149 410 414 383 
430 410 158 412 414 
431 414 412 159 413 
432 383 414 413 150 
433 150 413 417 386 
434 413 159 415 417 
435 417 415 160 416 
436 386 417 416 151 
437 151 416 420 389 
438 416 160 418 420 
439 420 418 161 419 
440 389 420 419 152 
441 152 419 422 392 
442 419 161 421 422 
443 422 421 25 26 
444 392 422 26 27 
445 79 80 424 394 
446 80 1 5 424 
447 424 5 6 423 
448 394 424 423 153 
449 153 423 426 397 
450 423 6 7 426 
451 426 7 8 425 
452 397 426 425 154 
453 154 425 428 400 
454 425 8 9 428 
455 428 9 10 427 
456 400 428 427 155 
457 155 427 430 403 
458 427 10 11 430 
459 430 11 12 429 
460 403 430 429 156 
461 156 429 432 406 
462 429 12 13 432 
463 432 13 14 431 
464 406 432 431 157 
465 157 431 434 409 
466 431 14 15 434 
467 434 15 16 433 
468 409 434 433 158 
469 158 433 436 412 
470 433 16 17 436 
471 436 17 18 435 
472 412 436 435 159 
473 159 435 438 415 
474 435 18 19 438 
475 438 19 20 437 
476 415 438 437 160 
477 160 437 440 418 
478 437 20 21 440 
479 440 21 22 439 
480 418 440 439 161 
481 161 439 441 421 
482 439 22 23 441 
483 441 23 2 24 
484 421 441 24 25 
$EndElements
