$MeshFormat
4.1 0 8
$EndMeshFormat
$PhysicalNames
6
0 20 "PointsBoundary"
1 10 "CurveL"
1 11 "CurveB"
1 12 "CurveR"
1 13 "CurveT"
2 1 "SurfaceMat1"
$EndPhysicalNames
$Entities
4 4 1 0
1 0 50.00000000000004 0 1 20 
2 0 0 0 1 20 
3 50.00000000000004 0 0 1 20 
4 50.00000000000004 50 0 1 20 
1 -1e-07 -1.000000011686097e-07 -1e-07 1e-07 50.00000010000004 1e-07 1 10 2 1 -2 
2 -1.000000011686097e-07 -1e-07 -1e-07 50.00000010000004 1e-07 1e-07 1 11 2 2 -3 
3 49.99999990000004 -1.000000011686097e-07 -1e-07 50.00000010000004 50.0000001 1e-07 1 12 2 3 -4 
4 -1.000000011686097e-07 49.9999999 -1e-07 50.00000010000004 50.00000010000004 1e-07 1 13 2 4 -1 
1 -1.000000011686097e-07 -1.000000011686097e-07 -1e-07 50.00000010000004 50.00000010000004 1e-07 1 1 4 -4 -3 -2 -1 
$EndEntities
$Nodes
9 81 1 81
0 1 0 1
1
0 50.00000000000004 0
0 2 0 1
2
0 0 0
0 3 0 1
3
50.00000000000004 0 0
0 4 0 1
4
50.00000000000004 50 0
1 1 0 7
5
6
7
8
9
10
11
0 43.75000000000004 0
0 37.50000000000003 0
0 31.25000000000003 0
0 25.00000000000002 0
0 18.75000000000002 0
0 12.50000000000002 0
0 6.250000000000005 0
1 2 0 7
12
13
14
15
16
17
18
6.250000000000008 0 0
12.50000000000002 0 0
18.75000000000002 0 0
25.00000000000003 0 0
31.25000000000003 0 0
37.50000000000003 0 0
43.75000000000004 0 0
1 3 0 7
19
20
21
22
23
24
25
50.00000000000004 6.25 0
50.00000000000004 12.5 0
50.00000000000004 18.75 0
50.00000000000004 25 0
50.00000000000004 31.25 0
50.00000000000004 37.5 0
50.00000000000004 43.75 0
1 4 0 7
26
27
28
29
30
31
32
43.75000000000004 50.00000000000001 0
37.50000000000003 50.00000000000001 0
31.25000000000003 50.00000000000001 0
25.00000000000002 50.00000000000002 0
18.75000000000002 50.00000000000003 0
12.50000000000002 50.00000000000004 0
6.250000000000005 50.00000000000004 0
2 1 0 49
33
34
35
36
37
38
39
40
41
42
43
44
45
46
47
48
49
50
51
52
53
54
55
56
57
58
59
60
61
62
63
64
65
66
67
68
69
70
71
72
73
74
75
76
77
78
79
80
81
37.50000000000001 37.5 0
12.5 25 0
25.00000000000001 12.5 0
37.50000000000001 12.5 0
12.5 37.5 0
12.5 12.5 0
25 37.5 0
25 25 0
37.50000000000001 25 0
37.50000000000001 18.75 0
43.75000000000001 12.5 0
43.75000000000001 25 0
43.75000000000001 18.75 0
12.5 31.25 0
6.250000000000003 37.50000000000001 0
6.250000000000001 25 0
6.250000000000001 31.25 0
6.250000000000002 12.50000000000001 0
12.5 18.75 0
6.250000000000001 18.75000000000001 0
12.50000000000001 6.250000000000001 0
6.250000000000004 6.250000000000003 0
12.50000000000001 43.75000000000001 0
6.250000000000004 43.75000000000001 0
37.50000000000001 43.75 0
43.75000000000002 37.5 0
43.75000000000001 43.75 0
37.50000000000001 6.25 0
43.75000000000001 6.25 0
25 31.25 0
18.75 37.5 0
18.75 25 0
18.75 31.25 0
25.00000000000002 6.25 0
18.75 12.5 0
18.75000000000001 6.25 0
31.25000000000001 12.5 0
31.25000000000002 6.25 0
31.25 25 0
25 18.75 0
31.25 18.75 0
25.00000000000001 43.75000000000001 0
18.75000000000001 43.75000000000001 0
37.50000000000001 31.25 0
43.75000000000001 31.25 0
31.25 37.5 0
31.25000000000001 43.75000000000001 0
18.75 18.75 0
31.25 31.25 0
$EndNodes
$Elements
9 100 1 100
0 1 15 1
1 1 
0 2 15 1
2 2 
0 3 15 1
3 3 
0 4 15 1
4 4 
1 1 1 8
5 1 5 
6 5 6 
7 6 7 
8 7 8 
9 8 9 
10 9 10 
11 10 11 
12 11 2 
1 2 1 8
13 2 12 
14 12 13 
15 13 14 
16 14 15 
17 15 16 
18 16 17 
19 17 18 
20 18 3 
1 3 1 8
21 3 19 
22 19 20 
23 20 21 
24 21 22 
25 22 23 
26 23 24 
27 24 25 
28 25 4 
1 4 1 8
29 4 26 
30 26 27 
31 27 28 
32 28 29 
33 29 30 
34 30 31 
35 31 32 
36 32 1 
2 1 3 64
37 41 42 45 44 
38 36 43 45 42 
39 20 21 45 43 
40 22 44 45 21 
41 34 46 49 48 
42 37 47 49 46 
43 6 7 49 47 
44 8 48 49 7 
45 34 48 52 51 
46 8 9 52 48 
47 10 50 52 9 
48 38 51 52 50 
49 2 12 54 11 
50 13 53 54 12 
51 38 50 54 53 
52 10 11 54 50 
53 1 5 56 32 
54 6 47 56 5 
55 37 55 56 47 
56 31 32 56 55 
57 27 57 59 26 
58 33 58 59 57 
59 24 25 59 58 
60 4 26 59 25 
61 3 19 61 18 
62 20 43 61 19 
63 36 60 61 43 
64 17 18 61 60 
65 40 62 65 64 
66 39 63 65 62 
67 37 46 65 63 
68 34 64 65 46 
69 13 14 68 53 
70 15 66 68 14 
71 35 67 68 66 
72 38 53 68 67 
73 35 66 70 69 
74 15 16 70 66 
75 17 60 70 16 
76 36 69 70 60 
77 35 69 73 72 
78 36 42 73 69 
79 41 71 73 42 
80 40 72 73 71 
81 29 30 75 74 
82 31 55 75 30 
83 37 63 75 55 
84 39 74 75 63 
85 41 44 77 76 
86 22 23 77 44 
87 24 58 77 23 
88 33 76 77 58 
89 27 28 79 57 
90 29 74 79 28 
91 39 78 79 74 
92 33 57 79 78 
93 40 64 80 72 
94 34 51 80 64 
95 38 67 80 51 
96 35 72 80 67 
97 33 78 81 76 
98 39 62 81 78 
99 40 71 81 62 
100 41 76 81 71 
$EndElements
