$MeshFormat
4.1 0 8
$EndMeshFormat
$PhysicalNames
6
0 20 "PointsBoundary"
1 10 "CurveL"
1 11 "CurveB"
1 12 "CurveR"
1 13 "CurveT"
2 1 "SurfaceMat1"
$EndPhysicalNames
$Entities
4 4 1 0
1 0 50.00000000000004 0 1 20 
2 0 0 0 1 20 
3 50.00000000000004 0 0 1 20 
4 50.00000000000004 50 0 1 20 
1 -1e-07 -1.000000011686097e-07 -1e-07 1e-07 50.00000010000004 1e-07 1 10 2 1 -2 
2 -1.000000011686097e-07 -1e-07 -1e-07 50.00000010000004 1e-07 1e-07 1 11 2 2 -3 
3 49.99999990000004 -1.000000011686097e-07 -1e-07 50.00000010000004 50.0000001 1e-07 1 12 2 3 -4 
4 -1.000000011686097e-07 49.9999999 -1e-07 50.00000010000004 50.00000010000004 1e-07 1 13 2 4 -1 
1 -1.000000011686097e-07 -1.000000011686097e-07 -1e-07 50.00000010000004 50.00000010000004 1e-07 1 1 4 -4 -3 -2 -1 
$EndEntities
$Nodes
9 9 1 9
0 1 0 1
1
0 50.00000000000004 0
0 2 0 1
2
0 0 0
0 3 0 1
3
50.00000000000004 0 0
0 4 0 1
4
50.00000000000004 50 0
1 1 0 1
5
0 25.00000000000002 0
1 2 0 1
6
25.00000000000003 0 0
1 3 0 1
7
50.00000000000004 25 0
1 4 0 1
8
25.00000000000002 50.00000000000002 0
2 1 0 1
9
25.00000000000002 25.00000000000001 0
$EndNodes
$Elements
9 16 1 16
0 1 15 1
1 1 
0 2 15 1
2 2 
0 3 15 1
3 3 
0 4 15 1
4 4 
1 1 1 2
5 1 5 
6 5 2 
1 2 1 2
7 2 6 
8 6 3 
1 3 1 2
9 3 7 
10 7 4 
1 4 1 2
11 4 8 
12 8 1 
2 1 3 4
13 2 6 9 5 
14 3 7 9 6 
15 4 8 9 7 
16 1 5 9 8 
$EndElements
