$MeshFormat
4.1 0 8
$EndMeshFormat
$PhysicalNames
5
0 10 "PointsBoundary"
1 11 "CurveFixed"
1 12 "CurveFree"
1 13 "CurveFixed2"
2 14 "SurfaceDomain"
$EndPhysicalNames
$Entities
4 4 1 0
1 0 1 0 1 10 
2 0 0 0 1 10 
3 1 0 0 1 10 
4 1 1 0 1 10 
1 -0.0005001001000000001 -0.0005001001000000116 -0.0005001001000000001 0.0005001001000000001 1.0005001001 0.0005001001000000001 1 11 2 1 -2 
2 -0.0005001001000000116 -0.0005001001000000001 -0.0005001001000000001 1.0005001001 0.0005001001000000001 0.0005001001000000001 1 12 2 2 -3 
3 0.9994998999000002 -0.0005001001000000116 -0.0005001001000000001 1.0005001001 1.0005001001 0.0005001001000000001 1 13 2 3 -4 
4 -0.0005001001000000116 0.9994998999 -0.0005001001000000001 1.0005001001 1.0005001001 0.0005001001000000001 1 12 2 4 -1 
1 -9.999999994736442e-08 -9.999999994736442e-08 -1e-07 1.0000001 1.0000001 1e-07 1 14 4 -4 -3 -2 -1 
$EndEntities
$Nodes
9 361 1 361
0 1 0 1
1
0 1 0
0 2 0 1
2
0 0 0
0 3 0 1
3
1 0 0
0 4 0 1
4
1 1 0
1 1 0 17
5
6
7
8
9
10
11
12
13
14
15
16
17
18
19
20
21
0 0.8922634360999925 0
0 0.78032675648654 0
0 0.6639872216988678 0
0 0.5470439606326206 0
0 0.4329697301566169 0
0 0.3225078047452643 0
0 0.2142953810235474 0
0 0.1069770118015484 0
0 0.0534885059007742 0
0 0.1606361964125479 0
0 0.2684015928844058 0
0 0.3777387674509406 0
0 0.4900068453946188 0
0 0.6055155911657442 0
0 0.722156989092704 0
0 0.8362950962932663 0
0 0.9461317180499962 0
1 2 0 17
22
23
24
25
26
27
28
29
30
31
32
33
34
35
36
37
38
0.05529710458973888 0 0
0.9455188204228735 0 0
0.8361227916142984 0 0
0.7252706932195592 0 0
0.6125863859082932 0 0
0.4992636092411917 0 0
0.3870743139429655 0 0
0.2762497505524767 0 0
0.1658164865602827 0 0
0.1105942091794778 0 0
0.2210387639410877 0 0
0.3314607371638657 0 0
0.4426878907220653 0 0
0.5558393277603181 0 0
0.6693334440562684 0 0
0.78120794238285 0 0
0.8910376408457469 0 0
1 3 0 17
39
40
41
42
43
44
45
46
47
48
49
50
51
52
53
54
55
1 0.05426420272685799 0
1 0.9460030355358147 0
1 0.836769515651395 0
1 0.7249300414765742 0
1 0.6111894930961989 0
1 0.4972132360710821 0
1 0.3843950802576538 0
1 0.273184417912162 0
1 0.1632408447172433 0
1 0.108528405453716 0
1 0.2179532839807706 0
1 0.3284155518435534 0
1 0.4403746086717543 0
1 0.55405186347041 0
1 0.6683271227219877 0
1 0.7815329602311607 0
1 0.8920060710716294 0
1 4 0 17
56
57
58
59
60
61
62
63
64
65
66
67
68
69
70
71
72
0.8936216771155931 1 0
0.784875568991951 1 0
0.6722533008743847 1 0
0.5573127159301876 1 0
0.4425602363357886 1 0
0.3294254132199185 1 0
0.2178853764814879 1 0
0.1083360687681727 1 0
0.05416803438408636 1 0
0.1631107226248303 1 0
0.2736553948507032 1 0
0.3859928247778536 1 0
0.4999364761329881 1 0
0.6147830084022862 1 0
0.7285644349331679 1 0
0.8392486230537721 1 0
0.9468108385577967 1 0
2 1 0 289
73
74
75
76
77
78
79
80
81
82
83
84
85
86
87
88
89
90
91
92
93
94
95
96
97
98
99
100
101
102
103
104
105
106
107
108
109
110
111
112
113
114
115
116
117
118
119
120
121
122
123
124
125
126
127
128
129
130
131
132
133
134
135
136
137
138
139
140
141
142
143
144
145
146
147
148
149
150
151
152
153
154
155
156
157
158
159
160
161
162
163
164
165
166
167
168
169
170
171
172
173
174
175
176
177
178
179
180
181
182
183
184
185
186
187
188
189
190
191
192
193
194
195
196
197
198
199
200
201
202
203
204
205
206
207
208
209
210
211
212
213
214
215
216
217
218
219
220
221
222
223
224
225
226
227
228
229
230
231
232
233
234
235
236
237
238
239
240
241
242
243
244
245
246
247
248
249
250
251
252
253
254
255
256
257
258
259
260
261
262
263
264
265
266
267
268
269
270
271
272
273
274
275
276
277
278
279
280
281
282
283
284
285
286
287
288
289
290
291
292
293
294
295
296
297
298
299
300
301
302
303
304
305
306
307
308
309
310
311
312
313
314
315
316
317
318
319
320
321
322
323
324
325
326
327
328
329
330
331
332
333
334
335
336
337
338
339
340
341
342
343
344
345
346
347
348
349
350
351
352
353
354
355
356
357
358
359
360
361
0.9461586243245478 0.9454686951767406 0
0.9456650861309539 0.8907706029122963 0
0.9453117399735507 0.835564103858443 0
0.9450639299034379 0.7800205873559011 0
0.9448908393531098 0.7239048420465043 0
0.9447720502675299 0.6675348588295527 0
0.9446923300531754 0.6109191268160175 0
0.9446406742077804 0.5542623119544138 0
0.9446109882963565 0.4977264944149604 0
0.9445990443814 0.4413432503935463 0
0.9446041675755834 0.3853276750068019 0
0.9446273074694087 0.3295453388589143 0
0.9446717800185516 0.2741192172516555 0
0.9447441831287025 0.2188984100418198 0
0.9448536112503985 0.1639438543106685 0
0.9450121809310259 0.1091421166633381 0
0.9452322053643427 0.05453821169522348 0
0.8921402475440192 0.9450802239175689 0
0.8911719159033534 0.8900197368041564 0
0.8905071899395187 0.8346841972457795 0
0.8900459078575808 0.7790690028182797 0
0.8897255576620008 0.7231369170054667 0
0.8895050129909021 0.6669877260604665 0
0.8893568014136434 0.6106909061459619 0
0.8892601815076796 0.5543551091378377 0
0.8892039578053942 0.4980847169841283 0
0.8891813554576466 0.4419480300024128 0
0.8891903127427628 0.3860276249607642 0
0.8892327063561786 0.3303209516973767 0
0.8893152956868191 0.2748498300841105 0
0.8894501016871317 0.2195778384466278 0
0.8896559610391355 0.164495576287265 0
0.8899579148336555 0.1095604368538281 0
0.8903944512123866 0.05474967083235188 0
0.8375981168051511 0.944812304499887 0
0.8363648717667298 0.8895276833419021 0
0.8354930928683572 0.8340750676460926 0
0.834884049593041 0.778429468452753 0
0.8344603395399249 0.7225869259852434 0
0.8341679284556041 0.6665920748271922 0
0.8339697187840951 0.6105016419710831 0
0.8338399778125143 0.5543837164328467 0
0.8337638116401841 0.4983097906222723 0
0.8337324668961383 0.442337363199726 0
0.8337432678301085 0.3865149690587409 0
0.8337984025484177 0.3308598030021417 0
0.833906783377143 0.2753814811797396 0
0.8340849192208657 0.2200675063242375 0
0.8343596009266859 0.164901543599224 0
0.8347643740334629 0.1098569826658284 0
0.8353442313293948 0.05490401705801923 0
0.7826282221748572 0.944629529415481 0
0.7811912058822921 0.8891949543049814 0
0.7802141023030364 0.8336535667967973 0
0.7795366735236264 0.7779848187972895 0
0.7790648591996419 0.7221903284026395 0
0.7787378780118638 0.666295631516757 0
0.7785141419753778 0.6103397541444258 0
0.7783667393911594 0.5543689968275064 0
0.7782791932999196 0.4984337269003748 0
0.7782421126722896 0.4425777011666545 0
0.7782516541678376 0.3868339240438827 0
0.7783109949492278 0.3312216798430456 0
0.7784296661746678 0.2757481377965184 0
0.7786256242304791 0.2204078560369787 0
0.7789308995848562 0.1651868154834158 0
0.7793914639649561 0.1100638100823425 0
0.7800892939263411 0.05501244845050977 0
0.7268474870268038 0.9445017873419717 0
0.7255577867363857 0.888963563750518 0
0.7246364144399343 0.8333564789692591 0
0.7239851005568956 0.777666496502854 0
0.7235261060531815 0.7218962463315346 0
0.7232046048638213 0.6660627095748697 0
0.7229821156758907 0.6101926261571905 0
0.7228342488418459 0.554319535666627 0
0.7227448088410352 0.4984794214685244 0
0.7227045960351581 0.4427048052364628 0
0.7227103259021551 0.3870212801222065 0
0.7227643861707014 0.3314447178895625 0
0.7228754484339482 0.2759813494379867 0
0.7230601036455855 0.2206279699857886 0
0.7233464220237009 0.165373627279613 0
0.7237772851533653 0.1101999387764357 0
0.7244060864570693 0.05508440139748285 0
0.6706461285763072 0.944412563548829 0
0.6695593708240482 0.8887990209107995 0
0.6687912434910468 0.8331413376131142 0
0.6682425388054355 0.777430265510422 0
0.6678504388372231 0.7216680152753271 0
0.6675716157219574 0.6658674656978844 0
0.667375522850307 0.6100486685899859 0
0.6672430497410257 0.5542368463805636 0
0.667160865011433 0.4984592299527512 0
0.6671211326731766 0.4427408493167139 0
0.6671206952711792 0.3871016460550549 0
0.6671608530080728 0.3315544695576049 0
0.6672477795200819 0.2761044169138345 0
0.6673937756217001 0.2207488976490698 0
0.6676199133060228 0.1654784108002942 0
0.6679631548288436 0.110277666221317 0
0.6684852980395974 0.05512584687465914 0
0.6139266377973226 0.9443475681559905 0
0.6132457053296961 0.8886782128161993 0
0.6127292648497397 0.8329796839485257 0
0.6123448643126603 0.7772457863713885 0
0.6120616262549271 0.7214793253650005 0
0.6118547414144285 0.6656911250214467 0
0.6117052936345955 0.6098978211216147 0
0.611601514582392 0.554120027657699 0
0.6115344141604235 0.4983798716163202 0
0.6114983315723002 0.4426977647062222 0
0.6114904530787231 0.387089994917048 0
0.6115105731434199 0.3315670522194197 0
0.611561113135883 0.2761328421858807 0
0.6116474411716147 0.2207846143722993 0
0.6117787095890593 0.1655137678778141 0
0.6119685197459773 0.1103055008964176 0
0.612234078215419 0.05514115025106564 0
0.5570384654674678 0.9442997785599841 0
0.5567704442579161 0.888587267249043 0
0.5565380982466351 0.8328532519082029 0
0.5563477429637252 0.7770940026229317 0
0.5561965029694875 0.7213129684337947 0
0.5560791565212976 0.6655202311263919 0
0.5559893555053387 0.6097314872201457 0
0.5559232421591941 0.5539656151195441 0
0.5558768832997825 0.4982425243344612 0
0.5558472715572119 0.4425804020368715 0
0.5558321722333399 0.3869935515501479 0
0.5558298527031958 0.331490892328028 0
0.5558386601317524 0.2760752160051529 0
0.5558563341253522 0.2207431168839844 0
0.5558788204679644 0.165485451411163 0
0.555898075315359 0.1102881492680267 0
0.5558973391308807 0.05513325011136309 0
0.5001480416795524 0.9442646258032668 0
0.5002622251397705 0.8885181445886917 0
0.5003067520157825 0.8327523243758849 0
0.5003123091812356 0.7769642985351729 0
0.5002981439877459 0.7211583238131841 0
0.5002750317557051 0.6653454738634633 0
0.5002497060468823 0.6095422628591874 0
0.5002251778858569 0.5537684404857219 0
0.5002025618442735 0.4980442592889355 0
0.5001816545683796 0.4423878291082871 0
0.5001610676390937 0.3868129635197024 0
0.5001379597847341 0.3313277580821024 0
0.5001072866416139 0.2759339660168251 0
0.5000603387311248 0.2206270707904697 0
0.4999821823030277 0.1653968801192032 0
0.4998477753845242 0.1102284464906142 0
0.4996192164158426 0.05510316602741795 0
0.4433554940477207 0.9442412306035254 0
0.4438236396910449 0.8884691871343243 0
0.4441144477354338 0.8326742068564513 0
0.4442957321253864 0.7768528729283725 0
0.4444071450686439 0.7210106664413217 0
0.444473147154581 0.6651610006372902 0
0.4445092742285258 0.6093236053623051 0
0.4445252036307925 0.5535216264790453 0
0.4445265216879669 0.4977782837971727 0
0.4445156956337521 0.442113748604588 0
0.4444924482608933 0.3865427613081878 0
0.4444535752525101 0.3310732209260716 0
0.4443920962519115 0.2757057765588993 0
0.4442954032923743 0.2204342124127545 0
0.4441415608226602 0.165246367011423 0
0.4438898092138984 0.1101252765611933 0
0.4434658320413981 0.05505043254555947 0
0.3868923553709223 0.9442317193111655 0
0.3875623219407961 0.8884439082500727 0
0.3880299039490232 0.8326223750443023 0
0.3883483893374913 0.7767623340027725 0
0.3885615928110306 0.7208704010211975 0
0.3887011949234992 0.6649641759276461 0
0.3887890973833026 0.6090694777382091 0
0.3888398855791658 0.553216167394965 0
0.3888626518293443 0.4974335307650796 0
0.38886216146249 0.4417461665556572 0
0.3888394299266478 0.3861711468481721 0
0.3887917349136546 0.3307165862864559 0
0.3887120051828942 0.2753816533426005 0
0.3885874232265695 0.2201575223243827 0
0.3883964837774549 0.1650289344156486 0
0.3881057650846431 0.1099752885389702 0
0.3876748060077248 0.05497390728799843 0
0.3306576227580689 0.9442418596034586 0
0.331502726590806 0.8884524847710854 0
0.3320942946242645 0.8326092722563141 0
0.332506267386333 0.7767037781611574 0
0.3327896645738034 0.7207444201779347 0
0.3329810135405782 0.6647557743279287 0
0.333106121413813 0.608773919054221 0
0.3331826677463667 0.5528400233964996 0
0.3332220937319466 0.4969935248167109 0
0.3332308913480536 0.4412662700061807 0
0.3332113586932696 0.3856790872074015 0
0.3331618662147229 0.3302403000129093 0
0.3330766474288299 0.2749466550609444 0
0.3329450923950811 0.2197852088163373 0
0.3327491692034787 0.1647357270040077 0
0.3324648936525318 0.1097731988031386 0
0.3320575145179435 0.05487076854691832 0
0.2748104430985538 0.9442837482810377 0
0.2756970165870568 0.8885162632618878 0
0.2763385583235697 0.8326591796521611 0
0.276793145236125 0.776699537090182 0
0.2771102864892204 0.7206479750390633 0
0.2773271241269345 0.6645406094295259 0
0.2774717970786752 0.6084303954317667 0
0.277562663408459 0.552376480578049 0
0.2776122349275671 0.496434284888429 0
0.2776279849723532 0.4406463083846685 0
0.2776132353462253 0.3850386151089467 0
0.2775676637063962 0.329618815522969 0
0.2774875196049855 0.2743793602911533 0
0.2773656758309703 0.2193006193459838 0
0.2771898597210155 0.1643549054900396 0
0.2769500522513385 0.109511543808442 0
0.2766358833340903 0.05473787866876755 0
0.2192298555716962 0.9443802990816749 0
0.2201338081206834 0.8886743293045191 0
0.2207687673817951 0.8328196122278743 0
0.2212171373396447 0.7767937220371897 0
0.2215311139540342 0.7206110684831404 0
0.2217471793954255 0.6643301551939144 0
0.221891833439021 0.6080310025769038 0
0.2219840358325841 0.5518012410959182 0
0.2220362675697779 0.4957208249476637 0
0.2220556134387502 0.4398460350432672 0
0.2220459254699486 0.3842101851669236 0
0.2220079845534652 0.3288168846931137 0
0.2219400161617805 0.2736512206283186 0
0.2218378193684209 0.2186820681727402 0
0.2216958510774465 0.1638717419721566 0
0.221512208521802 0.1091809343729063 0
0.2212889521445759 0.05457043243964977 0
0.1640878087941219 0.9445601733105945 0
0.1648379549613009 0.8889802304496216 0
0.1653835531201774 0.8331507784729346 0
0.1657732244476052 0.7770447133837972 0
0.1660477610396282 0.7206750803000365 0
0.1662376107024497 0.6641416048049072 0
0.166365275726395 0.6075655476808679 0
0.1664467457224133 0.551077978015547 0
0.1664932345279654 0.4948017179339615 0
0.1665123042941814 0.4388067263304556 0
0.1665068654338541 0.3831390559845536 0
0.1664783052891708 0.3277871376424268 0
0.1664262780337596 0.2727261880233467 0
0.1663485355637649 0.2179033244913325 0
0.1662446760473059 0.163269136659049 0
0.1661164565397541 0.1087713607331795 0
0.1659701599880533 0.05436379181607928 0
0.1091766955107898 0.944871448235252 0
0.1097481902571812 0.8895284817898651 0
0.110153842009943 0.8337534409415646 0
0.1104426922085659 0.77755564221496 0
0.110646721709739 0.72090139754698 0
0.1107880945801832 0.6639958294362336 0
0.1108832637356501 0.6070112043972463 0
0.1109441157009917 0.550144408381584 0
0.1109788865549338 0.4936026421178861 0
0.1109935163547242 0.4374398482104435 0
0.110990932278446 0.381751832121085 0
0.1109716996938665 0.3264649073797384 0
0.1109364828470785 0.2715596859816415 0
0.1108852970567403 0.2169348042251545 0
0.1108188698290461 0.1625304488156969 0
0.1107407545431508 0.108273277697525 0
0.1106592557142242 0.05411402577019626 0
0.05454073048590387 0.945379818825986 0
0.05482981218338481 0.8904923296838224 0
0.05504341144187155 0.8347673696155281 0
0.05519707364558917 0.7785127880279815 0
0.05530654779439337 0.7213746323121647 0
0.05538237591983419 0.663925365839412 0
0.0554333849870671 0.6063364911514929 0
0.05546594015321788 0.5488856664149017 0
0.05548453342552803 0.4920243351319998 0
0.0554924287023164 0.4355974743534359 0
0.0554911906439244 0.3799609035625174 0
0.0554814609667648 0.3247615870836927 0
0.0554638810364789 0.2701155551347973 0
0.0554386403562076 0.2157476260202119 0
0.05540655399448722 0.1616472456712405 0
0.05536953063426593 0.1076789924109241 0
0.05533153902037106 0.05382006700854764 0
$EndNodes
$Elements
9 400 1 400
0 1 15 1
1 1 
0 2 15 1
2 2 
0 3 15 1
3 3 
0 4 15 1
4 4 
1 1 1 18
5 1 21 
6 21 5 
7 5 20 
8 20 6 
9 6 19 
10 19 7 
11 7 18 
12 18 8 
13 8 17 
14 17 9 
15 9 16 
16 16 10 
17 10 15 
18 15 11 
19 11 14 
20 14 12 
21 12 13 
22 13 2 
1 2 1 18
23 2 22 
24 22 31 
25 31 30 
26 30 32 
27 32 29 
28 29 33 
29 33 28 
30 28 34 
31 34 27 
32 27 35 
33 35 26 
34 26 36 
35 36 25 
36 25 37 
37 37 24 
38 24 38 
39 38 23 
40 23 3 
1 3 1 18
41 3 39 
42 39 48 
43 48 47 
44 47 49 
45 49 46 
46 46 50 
47 50 45 
48 45 51 
49 51 44 
50 44 52 
51 52 43 
52 43 53 
53 53 42 
54 42 54 
55 54 41 
56 41 55 
57 55 40 
58 40 4 
1 4 1 18
59 4 72 
60 72 56 
61 56 71 
62 71 57 
63 57 70 
64 70 58 
65 58 69 
66 69 59 
67 59 68 
68 68 60 
69 60 67 
70 67 61 
71 61 66 
72 66 62 
73 62 65 
74 65 63 
75 63 64 
76 64 1 
2 1 3 324
77 4 72 73 40 
78 40 73 74 55 
79 55 74 75 41 
80 41 75 76 54 
81 54 76 77 42 
82 42 77 78 53 
83 53 78 79 43 
84 43 79 80 52 
85 52 80 81 44 
86 44 81 82 51 
87 51 82 83 45 
88 45 83 84 50 
89 50 84 85 46 
90 46 85 86 49 
91 49 86 87 47 
92 47 87 88 48 
93 48 88 89 39 
94 39 89 23 3 
95 72 56 90 73 
96 73 90 91 74 
97 74 91 92 75 
98 75 92 93 76 
99 76 93 94 77 
100 77 94 95 78 
101 78 95 96 79 
102 79 96 97 80 
103 80 97 98 81 
104 81 98 99 82 
105 82 99 100 83 
106 83 100 101 84 
107 84 101 102 85 
108 85 102 103 86 
109 86 103 104 87 
110 87 104 105 88 
111 88 105 106 89 
112 89 106 38 23 
113 56 71 107 90 
114 90 107 108 91 
115 91 108 109 92 
116 92 109 110 93 
117 93 110 111 94 
118 94 111 112 95 
119 95 112 113 96 
120 96 113 114 97 
121 97 114 115 98 
122 98 115 116 99 
123 99 116 117 100 
124 100 117 118 101 
125 101 118 119 102 
126 102 119 120 103 
127 103 120 121 104 
128 104 121 122 105 
129 105 122 123 106 
130 106 123 24 38 
131 71 57 124 107 
132 107 124 125 108 
133 108 125 126 109 
134 109 126 127 110 
135 110 127 128 111 
136 111 128 129 112 
137 112 129 130 113 
138 113 130 131 114 
139 114 131 132 115 
140 115 132 133 116 
141 116 133 134 117 
142 117 134 135 118 
143 118 135 136 119 
144 119 136 137 120 
145 120 137 138 121 
146 121 138 139 122 
147 122 139 140 123 
148 123 140 37 24 
149 57 70 141 124 
150 124 141 142 125 
151 125 142 143 126 
152 126 143 144 127 
153 127 144 145 128 
154 128 145 146 129 
155 129 146 147 130 
156 130 147 148 131 
157 131 148 149 132 
158 132 149 150 133 
159 133 150 151 134 
160 134 151 152 135 
161 135 152 153 136 
162 136 153 154 137 
163 137 154 155 138 
164 138 155 156 139 
165 139 156 157 140 
166 140 157 25 37 
167 70 58 158 141 
168 141 158 159 142 
169 142 159 160 143 
170 143 160 161 144 
171 144 161 162 145 
172 145 162 163 146 
173 146 163 164 147 
174 147 164 165 148 
175 148 165 166 149 
176 149 166 167 150 
177 150 167 168 151 
178 151 168 169 152 
179 152 169 170 153 
180 153 170 171 154 
181 154 171 172 155 
182 155 172 173 156 
183 156 173 174 157 
184 157 174 36 25 
185 58 69 175 158 
186 158 175 176 159 
187 159 176 177 160 
188 160 177 178 161 
189 161 178 179 162 
190 162 179 180 163 
191 163 180 181 164 
192 164 181 182 165 
193 165 182 183 166 
194 166 183 184 167 
195 167 184 185 168 
196 168 185 186 169 
197 169 186 187 170 
198 170 187 188 171 
199 171 188 189 172 
200 172 189 190 173 
201 173 190 191 174 
202 174 191 26 36 
203 69 59 192 175 
204 175 192 193 176 
205 176 193 194 177 
206 177 194 195 178 
207 178 195 196 179 
208 179 196 197 180 
209 180 197 198 181 
210 181 198 199 182 
211 182 199 200 183 
212 183 200 201 184 
213 184 201 202 185 
214 185 202 203 186 
215 186 203 204 187 
216 187 204 205 188 
217 188 205 206 189 
218 189 206 207 190 
219 190 207 208 191 
220 191 208 35 26 
221 59 68 209 192 
222 192 209 210 193 
223 193 210 211 194 
224 194 211 212 195 
225 195 212 213 196 
226 196 213 214 197 
227 197 214 215 198 
228 198 215 216 199 
229 199 216 217 200 
230 200 217 218 201 
231 201 218 219 202 
232 202 219 220 203 
233 203 220 221 204 
234 204 221 222 205 
235 205 222 223 206 
236 206 223 224 207 
237 207 224 225 208 
238 208 225 27 35 
239 68 60 226 209 
240 209 226 227 210 
241 210 227 228 211 
242 211 228 229 212 
243 212 229 230 213 
244 213 230 231 214 
245 214 231 232 215 
246 215 232 233 216 
247 216 233 234 217 
248 217 234 235 218 
249 218 235 236 219 
250 219 236 237 220 
251 220 237 238 221 
252 221 238 239 222 
253 222 239 240 223 
254 223 240 241 224 
255 224 241 242 225 
256 225 242 34 27 
257 60 67 243 226 
258 226 243 244 227 
259 227 244 245 228 
260 228 245 246 229 
261 229 246 247 230 
262 230 247 248 231 
263 231 248 249 232 
264 232 249 250 233 
265 233 250 251 234 
266 234 251 252 235 
267 235 252 253 236 
268 236 253 254 237 
269 237 254 255 238 
270 238 255 256 239 
271 239 256 257 240 
272 240 257 258 241 
273 241 258 259 242 
274 242 259 28 34 
275 67 61 260 243 
276 243 260 261 244 
277 244 261 262 245 
278 245 262 263 246 
279 246 263 264 247 
280 247 264 265 248 
281 248 265 266 249 
282 249 266 267 250 
283 250 267 268 251 
284 251 268 269 252 
285 252 269 270 253 
286 253 270 271 254 
287 254 271 272 255 
288 255 272 273 256 
289 256 273 274 257 
290 257 274 275 258 
291 258 275 276 259 
292 259 276 33 28 
293 61 66 277 260 
294 260 277 278 261 
295 261 278 279 262 
296 262 279 280 263 
297 263 280 281 264 
298 264 281 282 265 
299 265 282 283 266 
300 266 283 284 267 
301 267 284 285 268 
302 268 285 286 269 
303 269 286 287 270 
304 270 287 288 271 
305 271 288 289 272 
306 272 289 290 273 
307 273 290 291 274 
308 274 291 292 275 
309 275 292 293 276 
310 276 293 29 33 
311 66 62 294 277 
312 277 294 295 278 
313 278 295 296 279 
314 279 296 297 280 
315 280 297 298 281 
316 281 298 299 282 
317 282 299 300 283 
318 283 300 301 284 
319 284 301 302 285 
320 285 302 303 286 
321 286 303 304 287 
322 287 304 305 288 
323 288 305 306 289 
324 289 306 307 290 
325 290 307 308 291 
326 291 308 309 292 
327 292 309 310 293 
328 293 310 32 29 
329 62 65 311 294 
330 294 311 312 295 
331 295 312 313 296 
332 296 313 314 297 
333 297 314 315 298 
334 298 315 316 299 
335 299 316 317 300 
336 300 317 318 301 
337 301 318 319 302 
338 302 319 320 303 
339 303 320 321 304 
340 304 321 322 305 
341 305 322 323 306 
342 306 323 324 307 
343 307 324 325 308 
344 308 325 326 309 
345 309 326 327 310 
346 310 327 30 32 
347 65 63 328 311 
348 311 328 329 312 
349 312 329 330 313 
350 313 330 331 314 
351 314 331 332 315 
352 315 332 333 316 
353 316 333 334 317 
354 317 334 335 318 
355 318 335 336 319 
356 319 336 337 320 
357 320 337 338 321 
358 321 338 339 322 
359 322 339 340 323 
360 323 340 341 324 
361 324 341 342 325 
362 325 342 343 326 
363 326 343 344 327 
364 327 344 31 30 
365 63 64 345 328 
366 328 345 346 329 
367 329 346 347 330 
368 330 347 348 331 
369 331 348 349 332 
370 332 349 350 333 
371 333 350 351 334 
372 334 351 352 335 
373 335 352 353 336 
374 336 353 354 337 
375 337 354 355 338 
376 338 355 356 339 
377 339 356 357 340 
378 340 357 358 341 
379 341 358 359 342 
380 342 359 360 343 
381 343 360 361 344 
382 344 361 22 31 
383 64 1 21 345 
384 345 21 5 346 
385 346 5 20 347 
386 347 20 6 348 
387 348 6 19 349 
388 349 19 7 350 
389 350 7 18 351 
390 351 18 8 352 
391 352 8 17 353 
392 353 17 9 354 
393 354 9 16 355 
394 355 16 10 356 
395 356 10 15 357 
396 357 15 11 358 
397 358 11 14 359 
398 359 14 12 360 
399 360 12 13 361 
400 361 13 2 22 
$EndElements
