$MeshFormat
4.1 0 8
$EndMeshFormat
$PhysicalNames
8
0 20 "PointsBoundary"
1 10 "CurveFixed"
1 11 "CurveEpitheliumPressure"
1 12 "CurveEpitheliumFree"
2 1 "SurfaceBody"
2 2 "SurfaceCover"
2 3 "SurfaceLigament"
2 4 "SurfaceScar"
$EndPhysicalNames
$Entities
19 22 4 0
1 9.715100503297503 8.399390827019097 0 1 20 
2 8.134544601974941 8.344196598720199 0 1 20 
3 8.145014450985689 8.044379350614468 0 1 20 
4 9.725570352308251 8.099573578913368 0 1 20 
5 10.35621778264911 7.75 0 1 20 
6 10.61602540378444 7.899999999999999 0 1 20 
7 10.05 6.409866686548704 0 1 20 
8 10.05 0 0 1 20 
9 6.17887000542508 6.27468384833558 0 1 20 
10 0.9137851025325984 -2.602085213965211e-15 0 1 20 
11 7.634849188465394 8.326746850368952 0 1 20 
12 6.538131768840675 7.791842024370125 0 1 20 
13 0 0 0 1 20 
14 7.074362879023957 7.341890697589544 0 1 20 
15 7.65927883615714 7.627173271455585 0 1 20 
16 9.73953015098925 7.699817248105732 0 1 20 
17 10.05 7.400000000000001 0 1 20 
18 10.75 0 0 1 20 
19 10.75 7.400000000000001 0 1 20 
1 8.134544501974942 8.3441964987202 -1e-07 9.715100603297502 8.399390927019095 1e-07 1 11 2 1 -2 
2 8.134544501974942 8.044379250614469 -1e-07 8.145014550985689 8.344196698720198 1e-07 0 2 2 -3 
3 8.14501435098569 8.044379250614471 -1e-07 9.725570452308251 8.099573678913368 1e-07 0 2 3 -4 
4 9.725570252308252 7.7499999 -1e-07 10.3562178826491 8.100000099999999 1e-07 0 2 4 -5 
5 10.35621768264911 7.749999899999999 -1e-07 10.61602550378444 7.900000099999999 1e-07 0 2 5 -6 
6 9.715100403297503 7.899999899999999 -1e-07 10.61602550378444 8.4000001 1e-07 1 12 2 6 -1 
7 10.0499999 -9.999999983634211e-08 -1e-07 10.0500001 6.409866786548704 1e-07 0 2 7 -8 
8 6.17886990542508 6.27468374833558 -1e-07 10.0500001 6.409866786548704 1e-07 0 2 7 -9 
9 0.9137850025326011 -1.00000001612699e-07 -1e-07 6.178870105425081 6.27468394833558 1e-07 0 2 10 -9 
10 0.913785002532598 -1e-07 -1e-07 10.0500001 1e-07 1e-07 1 10 2 10 -8 
11 7.634849088465393 8.326746750368953 -1e-07 8.13454470197494 8.344196698720198 1e-07 1 11 2 2 -11 
12 6.538131668840674 7.791841924370124 -1e-07 7.634849288465394 8.326746950368952 1e-07 1 11 2 11 -12 
13 -9.999999983634211e-08 -9.999999983634211e-08 -1e-07 6.538131868840675 7.791842124370125 1e-07 1 11 2 12 -13 
14 -1.000000000028756e-07 -1e-07 -1e-07 0.9137852025325983 1e-07 1e-07 1 10 2 13 -10 
15 6.17886990542508 6.27468374833558 -1e-07 7.074362979023959 7.341890797589543 1e-07 0 2 9 -14 
16 7.074362779023957 7.341890597589543 -1e-07 7.659278936157141 7.627173371455584 1e-07 0 2 14 -15 
17 7.65927873615714 7.627173171455585 -1e-07 9.739530250989249 7.699817348105731 1e-07 0 2 15 -16 
18 9.73953005098925 7.3999999 -1e-07 10.0500001 7.700000100000003 1e-07 0 2 16 -17 
19 10.0499999 6.409866586548704 -1e-07 10.0500001 7.400000100000002 1e-07 0 2 17 -7 
20 10.0499999 -1e-07 -1e-07 10.7500001 1e-07 1e-07 1 10 2 8 -18 
21 10.7499999 -9.999999983634211e-08 -1e-07 10.7500001 7.400000100000002 1e-07 1 12 2 18 -19 
22 10.61602530378444 7.399999900000001 -1e-07 10.7500001 7.9000001 1e-07 1 12 2 19 -6 
1 8.134544501974942 7.749999899999999 -1e-07 10.61602550378444 8.4000001 1e-07 1 4 6 1 2 3 4 5 6 
2 0.913785002532598 -1.00000001612699e-07 -1e-07 10.0500001 6.409866786548704 1e-07 1 1 4 -7 8 -9 10 
3 -1.000000002804313e-07 -1.000000020567882e-07 -1e-07 10.7500001 8.344196698720198 1e-07 1 2 18 -2 11 12 13 14 9 15 16 17 18 19 7 20 21 22 -5 -4 -3 
4 6.17886990542508 6.27468374833558 -1e-07 10.0500001 7.700000100000003 1e-07 1 3 6 -8 -19 -18 -17 -16 -15 
$EndEntities
$Nodes
45 1431 1 1431
0 1 0 1
1
9.715100503297503 8.399390827019097 0
0 2 0 1
2
8.134544601974941 8.344196598720199 0
0 3 0 1
3
8.145014450985689 8.044379350614468 0
0 4 0 1
4
9.725570352308251 8.099573578913368 0
0 5 0 1
5
10.35621778264911 7.75 0
0 6 0 1
6
10.61602540378444 7.899999999999999 0
0 7 0 1
7
10.05 6.409866686548704 0
0 8 0 1
8
10.05 0 0
0 9 0 1
9
6.17887000542508 6.27468384833558 0
0 10 0 1
10
0.9137851025325984 -2.602085213965211e-15 0
0 11 0 1
11
7.634849188465394 8.326746850368952 0
0 12 0 1
12
6.538131768840675 7.791842024370125 0
0 13 0 1
13
0 0 0
0 14 0 1
14
7.074362879023957 7.341890697589544 0
0 15 0 1
15
7.65927883615714 7.627173271455585 0
0 16 0 1
16
9.73953015098925 7.699817248105732 0
0 17 0 1
17
10.05 7.400000000000001 0
0 18 0 1
18
10.75 0 0
0 19 0 1
19
10.75 7.400000000000001 0
1 1 0 7
20
21
22
23
24
25
26
9.517531015632184 8.392491548481733 0
9.319961527966862 8.385592269944372 0
9.122392040301541 8.378692991407009 0
8.924822552636222 8.371793712869648 0
8.727253064970903 8.364894434332285 0
8.529683577305581 8.357995155794923 0
8.332114089640262 8.351095877257562 0
1 2 0 3
27
28
29
8.137162064227629 8.269242286693766 0
8.139779526480316 8.194287974667333 0
8.142396988733003 8.119333662640901 0
1 3 0 7
30
31
32
33
34
35
36
8.342583938651011 8.051278629151833 0
8.54015342631633 8.058177907689194 0
8.737722913981651 8.065077186226556 0
8.935292401646972 8.071976464763919 0
9.132861889312293 8.078875743301282 0
9.330431376977613 8.085775021838643 0
9.528000864642932 8.092674300376006 0
1 4 0 3
37
38
39
9.913411754699135 8.080658944278373 0
10.08936673417243 8.012233794997575 0
10.24063648500989 7.899275314407927 0
1 5 0 1
40
10.48612159321677 7.824999999999999 0
1 6 0 7
41
42
43
44
45
46
47
10.54068957374384 8.012217280034449 0
10.45090926429985 8.113250449154179 0
10.34832460057066 8.201253812691059 0
10.23480962024634 8.274619707139394 0
10.1124380382837 8.332007869282798 0
9.983445363855909 8.372369920397675 0
9.85018806161208 8.394968518250911 0
1 7 0 27
48
49
50
51
52
53
54
55
56
57
58
59
60
61
62
63
64
65
66
67
68
69
70
71
72
73
74
10.05 6.180942876314822 0
10.05 5.95201906608094 0
10.05 5.723095255847057 0
10.05 5.494171445613174 0
10.05 5.265247635379293 0
10.05 5.036323825145411 0
10.05 4.807400014911528 0
10.05 4.578476204677646 0
10.05 4.349552394443764 0
10.05 4.120628584209881 0
10.05 3.891704773975999 0
10.05 3.662780963742117 0
10.05 3.433857153508235 0
10.05 3.204933343274353 0
10.05 2.97600953304047 0
10.05 2.747085722806587 0
10.05 2.518161912572705 0
10.05 2.289238102338823 0
10.05 2.060314292104941 0
10.05 1.831390481871058 0
10.05 1.602466671637177 0
10.05 1.373542861403294 0
10.05 1.144619051169411 0
10.05 0.9156952409355297 0
10.05 0.686771430701647 0
10.05 0.4578476204677653 0
10.05 0.2289238102338826 0
1 8 0 15
75
76
77
78
79
80
81
82
83
84
85
86
87
88
89
9.808054375339069 6.401417759160384 0
9.566108750678136 6.392968831772064 0
9.324163126017202 6.384519904383744 0
9.08221750135627 6.376070976995424 0
8.840271876695338 6.367622049607103 0
8.598326252034406 6.359173122218783 0
8.356380627373474 6.350724194830462 0
8.114435002712542 6.342275267442142 0
7.872489378051608 6.333826340053822 0
7.630543753390675 6.325377412665502 0
7.388598128729742 6.316928485277182 0
7.14665250406881 6.308479557888861 0
6.904706879407878 6.300030630500541 0
6.662761254746945 6.291581703112221 0
6.420815630086013 6.2831327757239 0
1 9 0 35
90
91
92
93
94
95
96
97
98
99
100
101
102
103
104
105
106
107
108
109
110
111
112
113
114
115
116
117
118
119
120
121
122
123
124
1.060037460946281 0.1742967735648744 0
1.206289819359961 0.3485935471297523 0
1.352542177773641 0.5228903206946303 0
1.498794536187321 0.6971870942595073 0
1.645046894601 0.8714838678243844 0
1.791299253014681 1.045780641389262 0
1.93755161142836 1.220077414954138 0
2.083803969842041 1.394374188519016 0
2.230056328255721 1.568670962083893 0
2.3763086866694 1.74296773564877 0
2.522561045083081 1.917264509213648 0
2.66881340349676 2.091561282778525 0
2.81506576191044 2.265858056343403 0
2.96131812032412 2.440154829908279 0
3.1075704787378 2.614451603473156 0
3.25382283715148 2.788748377038034 0
3.40007519556516 2.963045150602911 0
3.546327553978839 3.137341924167788 0
3.69257991239252 3.311638697732665 0
3.8388322708062 3.485935471297543 0
3.985084629219879 3.66023224486242 0
4.13133698763356 3.834529018427297 0
4.27758934604724 4.008825791992173 0
4.423841704460919 4.183122565557051 0
4.570094062874599 4.357419339121928 0
4.716346421288279 4.531716112686805 0
4.862598779701959 4.706012886251683 0
5.008851138115639 4.880309659816559 0
5.155103496529319 5.054606433381436 0
5.301355854942998 5.228903206946313 0
5.447608213356679 5.403199980511191 0
5.593860571770358 5.577496754076068 0
5.740112930184039 5.751793527640946 0
5.88636528859772 5.926090301205825 0
6.0326176470114 6.100387074770703 0
1 10 0 39
125
126
127
128
129
130
131
132
133
134
135
136
137
138
139
140
141
142
143
144
145
146
147
148
149
150
151
152
153
154
155
156
157
158
159
160
161
162
163
1.142190474969283 0 0
1.370595847405969 0 0
1.599001219842654 0 0
1.827406592279339 0 0
2.055811964716024 0 0
2.284217337152709 0 0
2.512622709589394 0 0
2.741028082026079 0 0
2.969433454462764 0 0
3.197838826899449 0 0
3.426244199336134 0 0
3.654649571772819 0 0
3.883054944209504 0 0
4.111460316646189 0 0
4.339865689082874 0 0
4.568271061519559 0 0
4.796676433956245 0 0
5.025081806392929 0 0
5.253487178829615 0 0
5.481892551266299 0 0
5.710297923702985 0 0
5.93870329613967 0 0
6.167108668576355 0 0
6.39551404101304 0 0
6.623919413449725 0 0
6.85232478588641 0 0
7.080730158323095 0 0
7.309135530759781 0 0
7.537540903196465 0 0
7.765946275633151 0 0
7.994351648069835 0 0
8.222757020506521 0 0
8.451162392943207 0 0
8.67956776537989 0 0
8.907973137816576 0 0
9.136378510253261 0 0
9.364783882689945 0 0
9.593189255126632 0 0
9.821594627563316 0 0
1 11 0 3
164
165
166
8.009620748597554 8.339834161632387 0
7.884696895220167 8.335471724544576 0
7.759773041842781 8.331109287456764 0
1 12 0 7
167
168
169
170
171
172
173
7.478438782079047 8.313062712952664 0
7.324315590119643 8.283104199254305 0
7.174168218530641 8.237199541019175 0
7.029641713335528 8.175851679289064 0
6.892319537169336 8.099732754074953 0
6.763706220530656 8.009676740250397 0
6.645210877830646 7.906670310348291 0
1 13 0 43
174
175
176
177
178
179
180
181
182
183
184
185
186
187
188
189
190
191
192
193
194
195
196
197
198
199
200
201
202
203
204
205
206
207
208
209
210
211
212
213
214
215
216
6.389537865003386 7.61475470563444 0
6.240943961166098 7.437667386898756 0
6.09235005732881 7.260580068163071 0
5.943756153491522 7.083492749427386 0
5.795162249654234 6.906405430691701 0
5.646568345816946 6.729318111956017 0
5.497974441979657 6.552230793220332 0
5.34938053814237 6.375143474484648 0
5.200786634305082 6.198056155748963 0
5.052192730467794 6.020968837013278 0
4.903598826630506 5.843881518277594 0
4.755004922793217 5.66679419954191 0
4.60641101895593 5.489706880806224 0
4.457817115118642 5.312619562070539 0
4.309223211281354 5.135532243334856 0
4.160629307444065 4.958444924599171 0
4.012035403606777 4.781357605863485 0
3.863441499769489 4.604270287127801 0
3.714847595932201 4.427182968392117 0
3.566253692094913 4.250095649656432 0
3.417659788257625 4.073008330920747 0
3.269065884420337 3.895921012185063 0
3.120471980583049 3.718833693449378 0
2.971878076745761 3.541746374713693 0
2.823284172908473 3.364659055978009 0
2.674690269071185 3.187571737242324 0
2.526096365233897 3.01048441850664 0
2.377502461396609 2.833397099770955 0
2.228908557559321 2.65630978103527 0
2.080314653722033 2.479222462299586 0
1.931720749884745 2.302135143563901 0
1.783126846047457 2.125047824828216 0
1.634532942210169 1.947960506092532 0
1.48593903837288 1.770873187356846 0
1.337345134535592 1.593785868621161 0
1.188751230698304 1.416698549885477 0
1.040157326861016 1.239611231149793 0
0.8915634230237277 1.062523912414107 0
0.7429695191864401 0.8854365936784232 0
0.5943756153491515 0.708349274942738 0
0.4457817115118639 0.5312619562070537 0
0.2971878076745762 0.3541746374713695 0
0.1485939038372877 0.1770873187356843 0
1 14 0 3
217
218
219
0.2284462756331496 0 0
0.4568925512662992 0 0
0.6853388268994488 0 0
1 15 0 7
220
221
222
223
224
225
226
6.29080661462494 6.408084704492325 0
6.4027432238248 6.54148556064907 0
6.51467983302466 6.674886416805816 0
6.62661644222452 6.808287272962562 0
6.738553051424379 6.941688129119306 0
6.850489660624238 7.075088985276052 0
6.962426269824098 7.208489841432797 0
1 16 0 3
227
228
229
7.194669253258613 7.458069212725688 0
7.336501516087878 7.546695846879643 0
7.493660917039407 7.603897190861106 0
1 17 0 11
230
231
232
233
234
235
236
237
238
239
240
7.832633112393149 7.63322693617643 0
8.005987388629158 7.639280600897276 0
8.179341664865168 7.645334265618121 0
8.352695941101176 7.651387930338967 0
8.526050217337186 7.657441595059812 0
8.699404493573194 7.663495259780658 0
8.872758769809204 7.669548924501504 0
9.046113046045214 7.675602589222349 0
9.219467322281224 7.681656253943195 0
9.392821598517234 7.68770991866404 0
9.566175874753242 7.693763583384886 0
1 18 0 3
241
242
243
9.857510384863591 7.680074127949163 0
9.958397511137701 7.615801940101596 0
10.02615145603573 7.517219338546782 0
1 19 0 3
244
245
246
10.05 7.152466671637177 0
10.05 6.904933343274353 0
10.05 6.657400014911529 0
1 20 0 3
247
248
249
10.225 0 0
10.4 0 0
10.575 0 0
1 21 0 31
250
251
252
253
254
255
256
257
258
259
260
261
262
263
264
265
266
267
268
269
270
271
272
273
274
275
276
277
278
279
280
10.75 0.23125 0
10.75 0.4625000000000001 0
10.75 0.6937500000000001 0
10.75 0.9250000000000002 0
10.75 1.15625 0
10.75 1.3875 0
10.75 1.61875 0
10.75 1.85 0
10.75 2.08125 0
10.75 2.3125 0
10.75 2.543750000000001 0
10.75 2.775 0
10.75 3.006250000000001 0
10.75 3.237500000000001 0
10.75 3.46875 0
10.75 3.700000000000001 0
10.75 3.931250000000001 0
10.75 4.162500000000001 0
10.75 4.393750000000001 0
10.75 4.625000000000001 0
10.75 4.856250000000001 0
10.75 5.087500000000001 0
10.75 5.318750000000001 0
10.75 5.550000000000001 0
10.75 5.781250000000001 0
10.75 6.012500000000001 0
10.75 6.243750000000001 0
10.75 6.475000000000001 0
10.75 6.706250000000001 0
10.75 6.937500000000001 0
10.75 7.168750000000001 0
1 22 0 3
281
282
283
10.74144486137381 7.530526192220052 0
10.71592582628907 7.658819045102521 0
10.67387953251128 7.782683432365089 0
2 1 0 17
284
285
286
287
288
289
290
291
292
293
294
295
296
297
298
299
300
9.88612201910118 8.250820149473476 0
9.69317325839099 8.268295943184262 0
9.809232676273673 8.299911595816196 0
10.39557432006216 7.967980117506203 0
10.4742157053198 7.930386384121046 0
8.30920655340212 8.156036111004935 0
8.268164355090942 8.105550193531144 0
9.324411044193743 8.236228683708489 0
9.518116303046947 8.245795719033854 0
8.530875614596253 8.224769181058303 0
8.929927027358074 8.222370675805294 0
8.731799179049077 8.21783459924259 0
9.127477484223311 8.228951964937048 0
8.330258749131657 8.246385603771502 0
10.15493945166884 8.13075324632231 0
10.28418803073207 8.045701114724617 0
10.01391189777456 8.195588859020095 0
2 2 0 743
301
302
303
304
305
306
307
308
309
310
311
312
313
314
315
316
317
318
319
320
321
322
323
324
325
326
327
328
329
330
331
332
333
334
335
336
337
338
339
340
341
342
343
344
345
346
347
348
349
350
351
352
353
354
355
356
357
358
359
360
361
362
363
364
365
366
367
368
369
370
371
372
373
374
375
376
377
378
379
380
381
382
383
384
385
386
387
388
389
390
391
392
393
394
395
396
397
398
399
400
401
402
403
404
405
406
407
408
409
410
411
412
413
414
415
416
417
418
419
420
421
422
423
424
425
426
427
428
429
430
431
432
433
434
435
436
437
438
439
440
441
442
443
444
445
446
447
448
449
450
451
452
453
454
455
456
457
458
459
460
461
462
463
464
465
466
467
468
469
470
471
472
473
474
475
476
477
478
479
480
481
482
483
484
485
486
487
488
489
490
491
492
493
494
495
496
497
498
499
500
501
502
503
504
505
506
507
508
509
510
511
512
513
514
515
516
517
518
519
520
521
522
523
524
525
526
527
528
529
530
531
532
533
534
535
536
537
538
539
540
541
542
543
544
545
546
547
548
549
550
551
552
553
554
555
556
557
558
559
560
561
562
563
564
565
566
567
568
569
570
571
572
573
574
575
576
577
578
579
580
581
582
583
584
585
586
587
588
589
590
591
592
593
594
595
596
597
598
599
600
601
602
603
604
605
606
607
608
609
610
611
612
613
614
615
616
617
618
619
620
621
622
623
624
625
626
627
628
629
630
631
632
633
634
635
636
637
638
639
640
641
642
643
644
645
646
647
648
649
650
651
652
653
654
655
656
657
658
659
660
661
662
663
664
665
666
667
668
669
670
671
672
673
674
675
676
677
678
679
680
681
682
683
684
685
686
687
688
689
690
691
692
693
694
695
696
697
698
699
700
701
702
703
704
705
706
707
708
709
710
711
712
713
714
715
716
717
718
719
720
721
722
723
724
725
726
727
728
729
730
731
732
733
734
735
736
737
738
739
740
741
742
743
744
745
746
747
748
749
750
751
752
753
754
755
756
757
758
759
760
761
762
763
764
765
766
767
768
769
770
771
772
773
774
775
776
777
778
779
780
781
782
783
784
785
786
787
788
789
790
791
792
793
794
795
796
797
798
799
800
801
802
803
804
805
806
807
808
809
810
811
812
813
814
815
816
817
818
819
820
821
822
823
824
825
826
827
828
829
830
831
832
833
834
835
836
837
838
839
840
841
842
843
844
845
846
847
848
849
850
851
852
853
854
855
856
857
858
859
860
861
862
863
864
865
866
867
868
869
870
871
872
873
874
875
876
877
878
879
880
881
882
883
884
885
886
887
888
889
890
891
892
893
894
895
896
897
898
899
900
901
902
903
904
905
906
907
908
909
910
911
912
913
914
915
916
917
918
919
920
921
922
923
924
925
926
927
928
929
930
931
932
933
934
935
936
937
938
939
940
941
942
943
944
945
946
947
948
949
950
951
952
953
954
955
956
957
958
959
960
961
962
963
964
965
966
967
968
969
970
971
972
973
974
975
976
977
978
979
980
981
982
983
984
985
986
987
988
989
990
991
992
993
994
995
996
997
998
999
1000
1001
1002
1003
1004
1005
1006
1007
1008
1009
1010
1011
1012
1013
1014
1015
1016
1017
1018
1019
1020
1021
1022
1023
1024
1025
1026
1027
1028
1029
1030
1031
1032
1033
1034
1035
1036
1037
1038
1039
1040
1041
1042
1043
9.591555675711097 2.743545391618269 0
5.652303449869245 4.930304301993674 0
6.853696024497645 0.4567106630522053 0
4.775525808115414 3.889677911550258 0
5.483456325567976 0.4572226173177389 0
3.89902102785672 2.839514113687675 0
4.567170691992657 0.4527718766783284 0
3.298981474201777 2.139972545988454 0
8.115787880050142 5.881322727962628 0
3.66474016148215 0.4294805464695477 0
9.5740231735954 5.019276788330334 0
9.59277645804301 1.372790036211927 0
8.222789188973884 0.4568994556362487 0
2.691295859219148 1.468201883974909 0
2.783310632444477 0.4096968426428624 0
7.137046654792305 5.851717767099913 0
9.587776241292641 3.654308807981167 0
9.567461875251503 5.934145886806074 0
2.391476682430335 1.127349146952908 0
2.339129118745571 0.4822350241408868 0
9.084321924727192 5.916353565610495 0
9.593063391227133 0.4576457485749126 0
9.592567772154617 1.830128459741363 0
6.397258448198512 0.4569370786315679 0
4.192035165665694 3.190628577005844 0
5.360320602957982 4.585165297344179 0
7.766356415746841 0.4566739807399021 0
5.942964441741204 5.271480250083838 0
9.583924190857243 4.108883990051632 0
9.136179729877064 0.4574228462552616 0
1.44501574124614 0.2500966675099958 0
1.810815208488022 0.4312390432749504 0
6.583925938780048 5.869377203904662 0
6.006122428234081 4.635871252668137 0
6.856417333416003 0.9131582723739911 0
9.125756447863679 3.644749272955416 0
4.546227027970471 2.896156398300636 0
8.223131040946642 0.9133645750673312 0
7.157352915545808 5.387143737786808 0
9.135796635114518 1.371835452560091 0
7.629780013015624 5.864612712197603 0
8.600412505536601 5.898707258865683 0
9.135991072180097 0.9147491848570439 0
3.219171964351843 0.4228192979937653 0
4.111671721040475 0.4423825302973556 0
9.592222215188944 2.287104522498791 0
5.025575053748852 0.4564166434441423 0
5.940593313545554 0.4571735626845745 0
9.592930223902227 0.9152610687282028 0
7.310030421576688 0.4565971891586491 0
4.483772891200614 3.540617662281498 0
5.067809437687604 4.237945341862678 0
3.602354232185691 2.487787287900944 0
2.991909515574778 1.802047479276387 0
8.679406011331988 0.457167408039278 0
9.590229390174057 3.199294461124205 0
9.579014580232675 4.563651935944603 0
9.569992777067561 5.476122243590569 0
6.223455667318923 5.598320421431596 0
2.085270899667429 0.8029663312393902 0
2.743746724391003 0.8305225710900181 0
5.026394536386018 0.9142581607140894 0
3.639767330135212 1.826114004797175 0
8.606677945452434 5.439979658160683 0
7.638715797997339 5.404899510118312 0
4.096579989125449 0.8907006670410338 0
7.312100121667526 0.9125389991203683 0
5.127340182820641 3.596965523209671 0
2.993046805302237 1.205186246462179 0
6.295261773765772 4.973245212578146 0
9.097007046977685 5.001938561177618 0
5.943071042962755 0.9147258678469612 0
9.134901644327607 2.284354500905867 0
9.13088743726758 3.192670544240085 0
6.400025845756144 0.9140657266088832 0
7.76747458133229 0.9126952390264282 0
9.135502629952015 1.828475647330857 0
4.254065438823834 2.542785508521303 0
5.713568685637396 4.291754752859791 0
4.836399649763624 3.247580891155193 0
8.679339850168741 0.9141037283120674 0
9.117625372431643 4.096131430505461 0
9.088997908315337 5.458063452581722 0
6.633704162095935 5.331473422308148 0
3.24488479136164 0.8878852984964309 0
6.862341478672364 1.368858585811262 0
6.068327705843457 4.000511815134711 0
8.672595642666129 3.184303045040928 0
5.477951094148547 3.305514425733048 0
7.65307813618649 4.946051317803082 0
4.901361196257443 2.604546315061465 0
8.678700475295598 2.280292280603746 0
8.22399388910166 1.368736398113382 0
8.618501090650046 4.983904666827328 0
6.830009751475347 4.970236914899738 0
3.562172022917932 1.181955810504778 0
8.122984072468675 5.421954632385949 0
4.564260420701054 0.9113032678474182 0
5.485332964101527 0.9151936372033447 0
5.945937843251357 1.37229113497912 0
7.316752613431263 1.366485112293162 0
3.957092940101801 2.18479572764144 0
5.419957387940094 3.945048400903119 0
8.679394969477665 1.370491615616755 0
9.133597562609348 2.739165367539327 0
9.107307398854518 4.548137911462083 0
8.6647621688429 3.633261869416335 0
3.665433109418337 0.8384911088380607 0
3.302401834013046 1.502095141521287 0
6.365689033115582 4.34682020880431 0
6.875369447015183 1.822483033186248 0
6.421348254884029 3.711274914761724 0
8.215603359368057 3.173882170594971 0
4.576604865604747 1.368378709595106 0
5.487997099902739 1.373839933097469 0
8.651591293344163 4.081290043306044 0
4.608954931405539 2.248551600366416 0
8.137674673512688 4.964639485487613 0
4.037070542951086 1.433912130410569 0
8.224975692340372 1.822363817258954 0
6.40457107901903 1.372101536207539 0
7.769957252473294 1.366936131047009 0
8.679357029792563 1.825991638957512 0
5.187437432379432 2.957142385374394 0
5.772173823525965 3.653496950646258 0
8.676709111221294 2.733157502312332 0
8.634684593744591 4.531007714626599 0
6.644458465619216 4.695932954738586 0
7.177821359854139 4.946130365263542 0
5.825153401267906 3.014335628472947 0
7.679473699496796 4.481179533504241 0
5.503104562638282 1.821646755228174 0
6.41281443972437 1.836139324314656 0
7.324647155099734 1.815848815213148 0
8.224657004753452 2.274099379592344 0
8.206701727382226 3.619428358566395 0
4.322362271329195 1.900968151733514 0
7.112342349264988 4.425372752201486 0
6.722530669469101 4.05101387866797 0
8.187498582849418 4.062492240675949 0
5.256561338016668 2.334006898816764 0
5.02585762278753 1.371950970850203 0
7.773380461992035 1.818019531558286 0
8.221302177072632 2.724590045582466 0
6.12361449607617 3.362373331482252 0
6.901107641357571 2.257875074786542 0
6.779467733882961 3.431474677627654 0
7.767282064767659 2.711033279616683 0
6.160335409275536 2.727709800268896 0
7.319518180456965 3.964531042862712 0
4.99140855579629 1.892332302616982 0
8.160512562924438 4.51036271705255 0
5.943886507824297 1.82858223923472 0
5.531210173782005 2.670104249875596 0
7.33128752958908 2.257491654561119 0
7.774631582328564 2.265352147471074 0
7.755897642985865 3.162686462221813 0
4.609137064714326 1.71027066738788 0
7.731517477755078 4.033383962734446 0
6.864631816212428 2.712614364499401 0
7.032001317326441 3.768970179325165 0
6.47694665581472 3.063965970742818 0
7.328103891461142 2.685687481402428 0
7.757384956213974 3.606543328740498 0
5.894470010867196 2.332654889546879 0
6.444625896986448 2.359272222293748 0
5.531950995038966 2.15179352579629 0
7.223053478812687 3.146110965074115 0
7.346274934809465 3.623345167629687 0
7.160130192864958 3.888998767800113 0
7.35651555032074 3.795408233211035 0
7.178258247539423 3.672680467195861 0
7.232137181737912 3.785891720741577 0
6.370379263118043 5.735855109062491 0
6.64340689220206 5.602875387218357 0
6.39483783634468 5.462794397099802 0
6.473199105796544 5.599982954988014 0
2.579697780962514 0.4215200458828789 0
2.526328597918305 0.6734888449267045 0
2.784128861247908 0.6015549184439664 0
2.627337570079289 0.5683074372872898 0
6.64988060674227 6.105524021107298 0
6.364639695412269 6.052507086210197 0
6.477375057205122 6.146365996597542 0
7.121155867625333 2.684216677554958 0
7.014981805860569 2.948224109323204 0
7.3035422877867 2.891116870860512 0
7.144046158597394 2.843762465705271 0
6.900338577683381 2.461394510676832 0
6.69492079649001 2.280866029633887 0
6.634968589781152 2.557437528446257 0
6.74115995686117 2.436522552990712 0
3.404122022771056 1.063533872557715 0
3.63742949774701 1.017156854306431 0
3.472370377133344 0.8361967512603679 0
3.500313241487768 0.9714712191822139 0
6.025751089250745 2.562089951014232 0
6.303955926151895 2.575689118585112 0
6.169832572075595 2.31441336454274 0
6.166321443639454 2.480298077499424 0
2.865137961146784 1.049604590969961 0
3.119009172160731 1.071606373741766 0
2.99698255910322 0.8349459439336497 0
2.993813670055884 0.9818383012921661 0
2.073359836306214 0.4293747257562455 0
1.950358848920218 0.6440637346761049 0
2.213226433177823 0.6724653871693187 0
2.07862416763002 0.5785040673540545 0
7.994566102344493 0.4567661251179391 0
8.222763470443113 0.2284668379863017 0
7.766122013954505 0.228363949795118 0
7.994444078467078 0.2284036664464635 0
9.818869306124416 3.658599273159539 0
9.585981808214425 3.881581221854472 0
9.816958977295421 4.114801008230168 0
9.817967425574398 3.886685506095434 0
9.821265014053157 1.830776286610677 0
9.821375900892679 1.373175412670278 0
9.592688512936418 1.601476011623721 0
9.821330379525202 1.601978927388759 0
2.306339678994032 0.2235496896895528 0
2.763017929785393 0.2089250987947846 0
2.539228339837378 0.2165998612008577 0
6.396327833021569 0.2284605282306433 0
6.625522908737031 0.4568185245318253 0
6.852952892736873 0.2283675998397099 0
6.624669133954084 0.2284109548593163 0
5.476622058418001 5.079311358212081 0
5.506477166750324 4.758098871475532 0
5.18448050582986 4.732611865923531 0
5.330652085908816 4.906161385551504 0
4.045794576699394 3.015209838278126 0
3.722471634895466 2.988406258168442 0
4.015344109729314 3.338230016077119 0
3.869051407670211 3.16337356458778 0
5.797954115141298 5.10155621832262 0
5.76783688639361 5.423514053709632 0
5.622500855028897 5.251924390823964 0
2.542768116365037 1.298200543024042 0
2.237142313174424 1.261816041742663 0
2.534012719797577 1.60528183522262 0
2.385939965504781 1.433446726934727 0
7.310871993740443 0.6846953268844 0
7.081914910589452 0.4566219691393396 0
6.854849302697213 0.684983768168741 0
7.084415171055511 0.9127399206154996 0
7.082970247074858 0.6847732064195187 0
5.482639918871211 0.2285528922034041 0
5.712098459846509 0.4572535984125832 0
5.939603305427845 0.2285627016294693 0
5.711160243387694 0.2285903182827589 0
7.309538236022137 0.2283247724271824 0
7.081269090262834 0.2283319326577296 0
4.56795853823428 0.2260173963490271 0
4.796332987195391 0.4551534009435088 0
5.025317955166355 0.2280519094570987 0
4.796565445873994 0.2273162593176421 0
5.214114739411023 4.411724794304867 0
4.892036451167752 4.384770273957665 0
5.038293238075245 4.558783844745955 0
6.398494972367188 0.6854664922864933 0
6.628373120400976 0.9136265386030384 0
6.626775237889982 0.6852216560888706 0
4.599664441024171 4.036355358229478 0
4.629616635234805 3.715249040432321 0
4.307529008649996 3.687525073864207 0
4.453592628020738 3.861989940489019 0
9.592425826652978 2.058648381797134 0
9.821087620956552 2.288191163730168 0
9.82119268265677 2.059491993976751 0
6.168992833930746 0.4570707358605981 0
6.168001517426594 0.228520460041703 0
3.660036492587762 0.2151841841775299 0
3.8870191820352 0.4352697182090077 0
4.112245434730464 0.2210365856180605 0
3.885674930637304 0.2179040751697938 0
7.538229253806509 0.4565938818910675 0
7.537845205957247 0.2283262099924661 0
3.751334297090226 2.663580075657156 0
3.427731879246743 2.63852435546856 0
3.575409466234269 2.813380162608465 0
2.996865801368951 0.4165653175418091 0
3.209134635046274 0.2109748565053948 0
2.984901811793176 0.2087655811569409 0
5.941750350771457 0.6859066179480875 0
6.171629735833945 0.9144355149256898 0
6.170205288645868 0.6857109611692564 0
7.995272642103172 0.9129720750198924 0
8.222936242470144 0.6851950146278938 0
7.76683018070602 0.6847904691252822 0
7.99487921059851 0.6849477303393305 0
7.539856185381513 0.9124851976070065 0
7.538911966050163 0.6846610002901157 0
5.254608562204538 0.4569953130398643 0
5.254015917868217 0.2284055295869063 0
3.130036917798137 2.290759825084295 0
3.145197741547205 1.969685672853204 0
2.830892274906844 1.947234414838325 0
2.9803299580846 2.118439285781018 0
4.92163793432549 4.063910640233145 0
4.745847143219891 4.210615809976369 0
4.337976470480271 3.365743285065806 0
4.161480426268973 3.512935962302471 0
8.45109178583963 0.4570195666722192 0
8.679486061635432 0.2285919148975823 0
8.451121216133341 0.2285233344794193 0
5.5367244342112 4.438166622599192 0
5.566760590415807 4.118619775006552 0
5.243858280496127 4.091341598603386 0
5.390335653891374 4.264969330159147 0
8.223544075596589 1.141191519050428 0
7.768599803399756 1.140075481360838 0
7.996877438959181 1.367712017771542 0
7.996037077302693 1.140521722166494 0
9.591946701273553 2.515366156349067 0
9.820748017016552 2.745341351824465 0
9.820945269789522 2.516779634541368 0
5.48433824001212 0.6860955964254254 0
5.025859954132982 0.685165239934336 0
5.255963571774842 0.9149530603971412 0
5.255222774852679 0.6858157033985366 0
4.076182540843804 2.690818969539575 0
4.10650000117272 2.364866010010952 0
3.778342061936032 2.336337699613072 0
3.928172675746242 2.513821102943699 0
4.338564246771337 0.448529519228412 0
4.339685975648123 0.223875677985891 0
9.135684656443916 1.600200893304837 0
9.363976917038913 1.82933181370285 0
9.364250329233846 1.372325439674726 0
9.364141977986538 1.600852644617772 0
9.821458505239226 0.9154814763298331 0
9.592863853621822 1.144029219368549 0
9.821422998178242 1.144329203815876 0
6.402080444799555 1.142861347347765 0
6.633934232291933 1.370699327950311 0
6.858922074550387 1.141127043521148 0
6.630762311319184 1.142069724063895 0
3.451497658005282 2.312895623650131 0
3.279209836163266 2.464168756674621 0
5.714322925301414 0.9150141091842974 0
5.713134879725664 0.6860674416174692 0
7.089963683287007 1.367288724240724 0
7.314132046333624 1.139838173075884 0
7.086785620567724 1.140280181841574 0
4.951495578345065 3.743183164981363 0
4.981678798579031 3.422481288704741 0
4.660125811257637 3.393911787660545 0
4.805719673008996 3.56870600828594 0
3.442432874550994 0.4261006000745633 0
3.434415528222639 0.2130645810757583 0
5.828817397932195 4.782385824117378 0
5.860248817934003 4.464286964213191 0
5.683021636699014 4.610744834925101 0
4.565636385596878 0.6808929248133682 0
4.107276179409114 0.6646216538856997 0
4.329904901463525 0.9055545370429439 0
4.335285389318356 0.6748174206211601 0
7.100647359313109 1.817576575772552 0
7.32043540036711 1.591948596620086 0
6.867647335256403 1.5961754478608 0
7.094646897658448 1.593297928875544 0
2.840315270755081 1.635468317065033 0
2.682036546928265 1.776339956028433 0
4.368992484284665 3.043206055479293 0
4.400476279996586 2.719710918865569 0
4.222890377026316 2.867252412459995 0
3.468288149699463 1.98598573176564 0
3.80237864755047 2.003537347447016 0
3.625063555267607 2.159655885886258 0
4.796138782402629 0.9130148144587871 0
4.795971111850503 0.6836710557724741 0
6.176649831912132 1.835938070274812 0
5.931092482177279 2.060247056504409 0
6.422590606837129 2.077500065099924 0
6.174519033193523 2.07770899196672 0
9.136279530313477 0.2287155352216619 0
8.90778109025025 0.4572938733849501 0
8.907878056495713 0.2286520827941523 0
5.273500236676914 3.771154932356508 0
5.097597840645435 3.917399344839142 0
9.135275104282229 2.056478506299254 0
9.363482044324792 2.285774179679814 0
9.363781556309291 2.057591008503422 0
2.55130018911361 0.9887235807215591 0
2.846309422909065 1.33352052884784 0
2.702601866232836 1.164355692108662 0
7.543447675540103 1.366354784761857 0
7.54145206800136 1.139728442191555 0
6.407984128791417 1.602562851661926 0
6.646670452069523 1.830083192928927 0
6.638884794307786 1.599867941683059 0
9.821528883746771 0.457747636978092 0
9.593000322322833 0.6864572733767007 0
9.821496292030206 0.686615276126636 0
5.256820383573487 1.374808675730608 0
5.018099227920208 1.606139732800814 0
5.277624630249128 1.843916453617898 0
5.492389793223113 1.601639204782384 0
5.258190884972363 1.609470848814551 0
4.723548582076081 2.749750728409376 0
4.756733329575686 2.42556391009904 0
4.431797929654645 2.395842578916674 0
4.578100264886152 2.572746965127281 0
5.079701935134231 2.463804140650725 0
5.044026285136637 2.782032609602211 0
5.360740773781111 2.813677855957923 0
5.38867883537053 2.50367206763951 0
5.21860957099078 2.64087224608964 0
6.175081695395639 1.37254553874941 0
5.944528349999445 1.143595973077911 0
6.173332269670624 1.143332234700993 0
6.887124999504166 2.045402411918407 0
6.661291718165248 2.061883148389218 0
4.691331430355834 3.072169805619325 0
4.514613261604183 3.218756101494629 0
5.717317224721914 1.372396302461396 0
5.720261289290123 1.819877590723459 0
5.946646491994212 1.600501941426905 0
5.719470719848699 1.59878986705052 0
6.176588507512453 1.602701390987197 0
5.486345666531855 1.144407186735821 0
5.715632068616295 1.143928971495237 0
5.652090862722267 3.160020019134453 0
5.6778003956683 2.840956686921507 0
5.332075876097838 3.131470587830388 0
5.505604568537328 2.986554262038141 0
3.14150536616492 1.351435531870488 0
3.149773960360396 1.654200355633936 0
2.994673122502637 1.494070189818026 0
5.302954441085086 3.451108376124997 0
5.012311389953052 3.101924464687399 0
5.157268840814782 3.276744649900858 0
9.590992729353996 2.971469349754528 0
9.820080358096581 3.20214526389964 0
9.820459243160801 2.973759385917305 0
7.774614831884003 2.042077427700244 0
7.998967334273063 2.269899947811981 0
8.22513409938005 2.048336738817917 0
7.998832093481488 1.820077801639098 0
7.999371528346813 2.045150345906031 0
4.461414284818789 2.076365740218775 0
4.139138176335421 2.037091891315398 0
4.285152111749121 2.218704075276617 0
8.451206054805393 0.913705608005376 0
8.679375422505995 0.6856635803926459 0
8.451136605363786 0.6854103939265803 0
9.593127374216861 0.2288237865337788 0
9.82156254578147 0.228873969115523 0
9.364614299383657 0.4575350291041671 0
9.364700546997069 0.2287693065398999 0
3.470280064523164 1.658780064756506 0
3.308533557613494 1.817385594761736 0
9.364440953505184 0.9150110179961297 0
9.135910648003701 1.143313183942118 0
9.364360483453943 1.143679928051518 0
4.867874088637371 2.926384221377408 0
4.566241155442709 1.142490651748862 0
4.799453430187914 1.36614622255138 0
5.02683655726203 1.142951289541647 0
4.79756333477795 1.141394371842042 0
5.256504467322976 1.144216587499323 0
5.890942454920181 4.145916638113857 0
6.184844796133115 4.490965709186042 0
6.216981196819048 4.173507306419058 0
6.038328224743651 4.31869264421178 0
9.136091675505909 0.6860967927439736 0
9.364533963102627 0.6862785687949327 0
8.223389098976817 2.499306027042263 0
7.77239376729007 2.487895131117287 0
7.994008259622818 2.71858583638411 0
7.997160461494745 2.494010878457268 0
5.596178292080151 3.799116822370607 0
5.62475337463831 3.479569750023199 0
5.449324864100721 3.62523695353526 0
8.907636659096136 0.9144227119187081 0
8.907713625317811 0.6858775269205299 0
9.589138677147206 3.426831739269643 0
9.819532388531796 3.43037706620148 0
5.920079438771887 3.827186650998647 0
5.743467226369446 3.972705881694202 0
5.973814023967295 3.188125712993644 0
5.947971353391761 3.508022907726861 0
5.799672031159059 3.333951360411553 0
7.548766151531056 1.81629789039645 0
7.328726175239194 2.037748079790534 0
7.551932748249937 2.260757821291312 0
7.551029099282696 2.039231328329789 0
8.906625464398742 2.282457411602482 0
8.907296360365088 1.827297925133139 0
8.679183981013605 2.053202804907348 0
8.907076531595386 2.054914615327513 0
8.224602436995509 1.595700545318944 0
8.451943003579423 1.824197906915265 0
8.679454779617547 1.598296348096903 0
8.451600360277254 1.369578563340997 0
8.451862864893368 1.597001746304024 0
8.907529063458213 1.371169102412047 0
8.907472042649751 1.599277527080851 0
8.679399974915979 1.142335293520577 0
8.451409520852803 1.141735314007426 0
9.581516220479276 4.336187533911672 0
9.814543041786102 4.571106189362692 0
9.815769082283976 4.342916638063929 0
9.36043602609266 3.196079000304306 0
9.362473050747703 2.741437246887485 0
9.132448258536108 2.965991222566944 0
9.361601033530302 2.968798134403753 0
6.546893406263012 4.200796552843714 0
6.569542152636298 3.88278466876914 0
6.24518959294185 3.855424165900256 0
6.394672542133514 4.027952940158676 0
7.77176094395114 1.592837148592531 0
7.546067527162243 1.591895750836454 0
6.299510667429207 3.215221297415614 0
6.273049781807114 3.537062974354952 0
6.597850200153689 3.569235590438386 0
6.633577203526203 3.246188662781406 0
6.450881760132023 3.392111734771483 0
6.88444286973777 3.901833556571133 0
6.910770934559633 3.6102680647346 0
6.740153236118381 3.741046291758435 0
7.33140246190294 2.474603428856455 0
7.11292231298379 2.255996176683682 0
7.113132066272982 2.472253313664996 0
8.907603592273905 1.142831708906369 0
7.107625908523953 2.038870973926387 0
6.096508931403462 3.681950268878726 0
8.451353559610499 2.27734034576026 0
8.451871323331019 2.050853004612288 0
7.997974744452452 1.594139037687081 0
9.128635324115903 3.4187758256946 0
9.356634131441945 3.649628772088654 0
9.358743076141026 3.422884741280813 0
9.134380683432649 2.511795937063822 0
9.363068378050054 2.51364175589672 0
2.236645834749821 0.960630769527584 0
1.940629518965257 0.9232013462283275 0
2.087966930246036 1.091805584974383 0
6.057876972566366 5.757181709744701 0
6.085761201659983 5.439231576960025 0
5.912469179701365 5.593003160225742 0
9.350728107116783 4.102656943466503 0
9.112572386549642 4.321951535688034 0
9.343229556984143 4.556029475913892 0
9.347045168561715 4.329218712670922 0
6.119677810686072 5.121754053896264 0
6.15085470457676 4.805918149778511 0
5.974242227400646 4.952796119895062 0
8.435078825635777 3.626519370075468 0
8.66919752104867 3.408911535000999 0
8.443908873343078 3.17918452692837 0
8.211841741197778 3.397088035842806 0
8.440079055963812 3.403004001450779 0
8.677932290699369 2.506771483556261 0
8.904972505004238 2.73626453957474 0
8.905971749998351 2.509406525344946 0
8.884444636671436 4.089013310798888 0
9.121955291721635 3.870362368412618 0
8.894935881530465 3.639146905861833 0
8.658715661002713 3.857099797613939 0
8.890072433773758 3.86397121754983 0
6.4678000873947 4.829428592890251 0
6.510707546931809 4.521587712999796 0
6.328426383762757 4.662235136931733 0
9.812085876422792 5.027829613858088 0
9.576431733963906 4.791345499803394 0
9.813274014590505 4.79941397582617 0
8.218542484944845 2.949307383798916 0
7.760217158588797 2.935770439241115 0
7.986744237891289 3.167967964469796 0
7.990008995218137 2.943139189007042 0
8.901489221003022 3.188569360441435 0
8.898618718185707 3.413937935366733 0
9.353868982310857 3.876100714984544 0
8.674923610891279 2.958790097818221 0
8.903489508503132 2.962505612000658 0
7.542875972303642 2.6995081396953 0
7.549984812519536 2.48053411489881 0
6.315667026367122 2.890174196600621 0
5.996449178134191 2.869580888512142 0
6.146418991764092 3.041234353491348 0
9.335685221165678 5.010701581468382 0
9.101990731671743 4.774802329776319 0
9.339347491225881 4.783202332042899 0
1.641544701273371 0.5806705764388465 0
1.795040994487048 0.7512466358889629 0
8.448779776054158 2.729031203958802 0
8.446598995447458 2.954213116797159 0
8.450355716747223 2.503232565103136 0
7.515679753690616 3.157046327348125 0
7.526703696445516 2.922925998508368 0
7.980068356534097 3.612091085355741 0
7.756346488316524 3.387413417888318 0
7.983936572690674 3.391115405288956 0
9.092651489792877 5.229763014099525 0
9.329693915674 5.467148205566247 0
9.571850064282357 5.24759361950745 0
9.332454928738336 5.238764632666163 0
9.566705228396698 6.163510776518419 0
9.326020805178524 5.925270444098754 0
9.083112435162603 6.146139943556204 0
9.324987451839398 6.154845332657167 0
8.84253562060718 5.907559953072325 0
8.599129280101632 6.128856152738702 0
8.841230279279205 6.137522203944807 0
3.871886239064378 0.8646375885295399 0
3.667522863976379 0.6398481008614674 0
3.884034783073514 0.6509041541194884 0
8.114712909697817 6.111705999043203 0
7.873249341597686 5.872894565657409 0
7.629409504993556 6.09507618558787 0
7.872416479694903 6.103335424119794 0
9.568568138379019 5.705049930740149 0
9.08633334553036 5.687052475848993 0
9.327623339470907 5.696091212320438 0
3.228608413334449 0.6390599426705759 0
3.451519895717132 0.6384612315092104 0
8.35835025594602 5.89004172078743 0
8.357092641065304 6.120306004095914 0
8.603028088030914 5.669141848115256 0
8.848143704722247 5.449133989725249 0
8.84493210232395 5.678164155447708 0
7.385287242298234 5.857252677915334 0
7.139606357722444 6.082179663970896 0
7.385691864653111 6.087671817880148 0
7.880941902638128 5.41328995430671 0
8.129539772880705 5.193121060849816 0
7.896042145168494 4.954889208924346 0
7.645991987659407 5.176030418037521 0
7.887900643151832 5.184238844159088 0
9.810081193413609 5.485180333304167 0
9.808790267897303 5.943102318367521 0
9.8093521274743 5.714090248860921 0
9.811002501852009 5.256446981893998 0
6.445351836116913 5.139273174686423 0
6.265577636294877 5.291555620635997 0
9.808384057841872 6.172237116752541 0
6.881133328054826 5.852742769314155 0
6.890009481306858 6.083387265580276 0
7.750123231469711 3.819833161889897 0
7.957533344131587 4.049965679503172 0
8.198491961493696 3.840666367364713 0
7.971441209599289 3.830720530961484 0
8.397906422337609 4.521314653068268 0
8.643296905432592 4.305767402214797 0
8.418986346660889 4.072475134997061 0
8.174125191190463 4.285391591673694 0
8.408623567369817 4.29630130422592 0
1.82716293148424 0.1977449804278972 0
2.065489938112028 0.2178325710425799 0
8.858015329057478 4.993111135955274 0
8.612033769353197 5.211661884352945 0
8.852653096427076 5.220860478582799 0
8.871077812821675 4.539860406291703 0
8.877885922541546 4.314169248756499 0
8.427863345062615 3.849270192244746 0
8.626249289610803 4.757075118881854 0
8.86433184172313 4.766188153976717 0
7.397754068722207 5.397016346226879 0
7.14343287502201 5.618524268867308 0
7.633395087422125 5.634639973033977 0
7.389942836685977 5.626753522360066 0
8.378626989987751 4.974527433246458 0
8.365235079820637 5.431056059643922 0
8.37124036745427 5.202517391219417 0
4.075102828517848 1.129671195649596 0
4.341841738633965 1.388600128954111 0
4.32511135584456 1.144927522380092 0
5.699750244183063 2.520696065982725 0
5.850812698554433 2.694166143305027 0
6.915399248940107 5.369821634113572 0
6.88972855588087 5.610364765234035 0
6.842606711355677 4.571412372353345 0
6.890178404792431 4.219968359873072 0
6.702336731210456 4.378915046053907 0
7.240139569250359 4.158195507340708 0
7.044803309386921 4.045925673458937 0
3.443379181171654 1.343300816794819 0
3.276761100248482 1.203235001707426 0
3.75923022184924 1.292752691970009 0
3.817738567261337 1.653591830547887 0
3.627211829045702 1.486881072088894 0
7.173361710951327 5.16415065860417 0
7.411416772250942 4.941878648342805 0
7.406769435732706 5.16998599872917 0
7.299564647067904 3.421076679486442 0
6.975545754440853 3.297552494301335 0
7.092639496072882 3.497866761524579 0
3.000404337722198 0.6279418008739457 0
8.118800353360642 5.651528770948357 0
8.361212501134263 5.660371110196182 0
7.876436021600414 5.643019271114409 0
6.658250847875605 2.90334762109958 0
6.48101232714314 2.726362046825204 0
5.133502351213899 2.145061555812562 0
4.785821035102715 2.093860293575589 0
4.939264138641237 2.277853134352234 0
7.514413090076008 4.007243402891376 0
7.542324367570131 3.606876132523213 0
7.540323149479844 3.807408933064429 0
2.384498020005914 0.819374391796198 0
6.825937626986798 3.095526201539297 0
6.210349144187729 5.913260159750928 0
6.760987838998672 5.099627239118642 0
6.756206134416371 4.858129446617959 0
6.605410502029157 4.985111677268627 0
7.662890942080175 4.714055775951122 0
7.4258450733568 4.459365526347059 0
7.160408031900431 4.718516204495401 0
7.411877460435889 4.70541648369219 0
6.97030200562646 4.959275027778867 0
6.935391715831517 4.770807033688927 0
8.148201087520363 4.73698117497284 0
7.921860690313904 4.497374818277262 0
7.907261888788499 4.725697924372124 0
7.70475236908759 4.252838201683278 0
7.939648719441338 4.271655973062895 0
4.190458956260695 1.703644472597946 0
3.988134089332394 1.845061169653936 0
3.837686776140291 1.079668734047866 0
8.387724168416527 4.74744601501643 0
5.419514391046185 2.224698020007996 0
5.519447888332261 2.018262249153918 0
5.331885091931332 2.055184531344633 0
4.744305373056836 1.774740559798993 0
4.594508405199814 1.571443284305061 0
4.793068475658265 1.581762284094319 0
4.491961666045609 1.786381117153847 0
4.398605705711585 1.609497406699593 0
7.526072226167045 3.390416353736803 0
5.661319241886241 2.215553350195947 0
5.711380467487959 2.030159700521403 0
1.345848126362542 0.2929279767998159 0
1.415587951900072 0.1452613921669039 0
1.238581562851797 0.1519628110054798 0
6.953151774935 5.15145379555435 0
7.467803176667713 4.221858270130551 0
1.576830654714824 0.3140740269427891 0
1.607556401650514 0.1662656266948961 0
1.482848805078048 0.4289836381604673 0
4.625073895033816 1.934536860684709 0
5.546016566058808 2.367998160155989 0
2 3 0 299
1044
1045
1046
1047
1048
1049
1050
1051
1052
1053
1054
1055
1056
1057
1058
1059
1060
1061
1062
1063
1064
1065
1066
1067
1068
1069
1070
1071
1072
1073
1074
1075
1076
1077
1078
1079
1080
1081
1082
1083
1084
1085
1086
1087
1088
1089
1090
1091
1092
1093
1094
1095
1096
1097
1098
1099
1100
1101
1102
1103
1104
1105
1106
1107
1108
1109
1110
1111
1112
1113
1114
1115
1116
1117
1118
1119
1120
1121
1122
1123
1124
1125
1126
1127
1128
1129
1130
1131
1132
1133
1134
1135
1136
1137
1138
1139
1140
1141
1142
1143
1144
1145
1146
1147
1148
1149
1150
1151
1152
1153
1154
1155
1156
1157
1158
1159
1160
1161
1162
1163
1164
1165
1166
1167
1168
1169
1170
1171
1172
1173
1174
1175
1176
1177
1178
1179
1180
1181
1182
1183
1184
1185
1186
1187
1188
1189
1190
1191
1192
1193
1194
1195
1196
1197
1198
1199
1200
1201
1202
1203
1204
1205
1206
1207
1208
1209
1210
1211
1212
1213
1214
1215
1216
1217
1218
1219
1220
1221
1222
1223
1224
1225
1226
1227
1228
1229
1230
1231
1232
1233
1234
1235
1236
1237
1238
1239
1240
1241
1242
1243
1244
1245
1246
1247
1248
1249
1250
1251
1252
1253
1254
1255
1256
1257
1258
1259
1260
1261
1262
1263
1264
1265
1266
1267
1268
1269
1270
1271
1272
1273
1274
1275
1276
1277
1278
1279
1280
1281
1282
1283
1284
1285
1286
1287
1288
1289
1290
1291
1292
1293
1294
1295
1296
1297
1298
1299
1300
1301
1302
1303
1304
1305
1306
1307
1308
1309
1310
1311
1312
1313
1314
1315
1316
1317
1318
1319
1320
1321
1322
1323
1324
1325
1326
1327
1328
1329
1330
1331
1332
1333
1334
1335
1336
1337
1338
1339
1340
1341
1342
7.928298431477732 8.130898983752447 0
7.019611112435637 7.766110268581667 0
7.69286360728322 7.987807294417935 0
10.41126074984356 7.308394324458059 0
6.605055945862162 7.276919900869535 0
6.166763339119258 6.793475159261661 0
0.7271052325261103 0.3188026912505055 0
7.28049159086112 7.960629407264686 0
5.615187162839704 6.146866271097904 0
5.322554789077507 5.798411710708149 0
5.028122491556029 5.447559537757672 0
4.733349775319073 5.096263366073427 0
4.438513955921246 4.744891953577458 0
4.143667193730187 4.39350544643017 0
3.848818108792604 4.04211922499695 0
10.40002226848659 0.4601466141010908 0
3.553968858512376 3.690730912080187 0
3.259119459731733 3.339341994854317 0
2.964269229394981 2.987957346075263 0
2.669417612127749 2.63657464079893 0
2.374564687009728 2.285204174977216 0
2.079723518891052 1.933868993228825 0
1.784979017021608 1.582666825665825 0
1.490791674777782 1.232127982570216 0
10.41746601033454 7.589168583750537 0
0.9233398189788993 0.5555145001865975 0
10.400145844509 5.522196812046364 0
10.40015082652011 5.061904864986317 0
10.40014229304509 4.601713416046804 0
10.40012308507232 4.141539942773426 0
10.40009433570902 3.68136862592974 0
10.4000614653354 3.221196467699038 0
10.40003733288392 2.761021361573059 0
10.40004189408838 1.840652326312661 0
10.40004435026251 1.38047405356317 0
10.40045030437261 6.445626207125762 0
7.962127263860244 7.92815825436744 0
10.00026597882765 7.803392807577603 0
6.805830946080098 7.537012045472598 0
6.412489912441134 7.050405738485628 0
5.899552987837341 6.484019974866443 0
10.40232645945847 6.903773308603308 0
10.15485086067747 7.639964546803911 0
10.40003624454915 0.9203061739901015 0
10.40016782498251 5.98298250222133 0
10.4000323645269 2.300839678327502 0
1.19954613768159 0.8850729367389443 0
7.149450440059537 7.666019307406668 0
7.12893301037571 7.859578368951181 0
7.324314656828804 7.766350323756984 0
7.204774111803818 7.761816349766227 0
0.4030477009344136 0.1507528045813027 0
0.2569993697553468 0.1122863023704515 0
10.04839965152748 7.627422651853314 0
10.14018376934799 7.517020575343661 0
10.06575985518476 7.553213669806428 0
10.40020264992729 7.684050882391269 0
10.29153773145203 7.593849414902624 0
10.24404346758276 7.719771188948642 0
10.31094652714057 7.663703397309189 0
7.322749701185168 8.137778578400795 0
7.132803157465029 8.071058649500419 0
7.21049730287144 8.145671069821827 0
6.465771276841179 7.359429297189521 0
6.515090999463087 7.15898099613862 0
6.326387215915934 7.195212448367835 0
6.430314498383918 7.243659432264752 0
7.823838508093658 8.086308112009741 0
7.948177885021977 8.036615799236781 0
7.843751905712017 7.929377497507969 0
7.868205828280766 8.016821517144727 0
10.22509567341014 4.590090704472809 0
10.40012312676487 4.371628139231882 0
10.22507970992146 4.131080647406035 0
10.22507926989003 4.360587026683239 0
10.40010060491372 3.911456143120871 0
10.22506084826924 3.672071517694724 0
10.22506438077342 3.90157744782868 0
10.22510129846378 5.049114220823723 0
10.40013390571511 4.831807695892484 0
10.22508777809693 4.819601808944638 0
10.40013764602518 5.292029966727965 0
10.2250949311763 5.508210789574811 0
10.22508860651874 5.278647905243632 0
10.40007132375859 3.451284376804055 0
10.22503974413523 3.213061831350287 0
10.2250458036715 3.442568009716879 0
10.40004397015533 2.991110918172168 0
10.22502443459173 2.754050215508667 0
10.2250285253786 2.983557494602961 0
10.22502786516731 1.836014336216302 0
10.40004112211258 1.610565349617462 0
10.22502841065018 1.377001737095346 0
10.22502604237584 1.606510269477844 0
10.22532437126122 6.430778934089007 0
10.40023969115008 6.213983640980774 0
10.22511442559903 5.967699578115213 0
10.22516716722237 6.198109945228392 0
10.4001357404675 5.752476823091826 0
10.22508999261892 5.737858889891735 0
6.293728749090947 6.931155668484976 0
6.51607068234595 6.92717265621562 0
6.283290636468823 6.664099025160561 0
6.40200573590148 6.799011143735807 0
6.728628717955615 7.178317556776355 0
6.62428807140704 7.051946698900421 0
10.57502829282071 1.383980430355916 0
10.57502658654984 1.845320412220016 0
10.57502578145233 1.614652201825557 0
9.361443142083377 7.886870830664499 0
9.726613315890951 7.90478098474518 0
9.546058401493065 7.89406887489875 0
10.57502440458187 2.768007357541267 0
10.57503862104556 3.229345646911795 0
10.57502831707824 2.998677817708005 0
6.032085625099876 6.37040333540074 0
6.035367646388159 6.643107635286812 0
6.160926917450094 6.522092127271101 0
6.895265386477378 7.881670269283512 0
6.914542145194419 7.65770128293861 0
6.667130567330925 7.651066790029456 0
6.780992933583075 7.774900536070016 0
10.57505867708438 3.690681598320136 0
10.57504520168253 3.460014625045096 0
5.187275357399987 5.909525799140228 0
5.175416914581806 5.623104041879907 0
4.891548961926979 5.55712509351828 0
5.03946616544209 5.73341031436006 0
1.931427143643949 2.029435775761129 0
1.932329518615004 1.758250574801989 0
1.635484228742349 1.676787872226742 0
1.783440896014271 1.853101526780548 0
5.481805263863945 6.260323892563003 0
5.469295063727628 5.97322324453275 0
5.334809673405966 6.085303635286327 0
2.227439863233295 2.382181080980806 0
2.227141470288976 2.109546954911218 0
2.079431737953703 2.205818094264073 0
2.523461263177243 2.734951123513767 0
2.521990746517184 2.460905523889618 0
2.375450220937493 2.55858002322276 0
4.595585484870564 5.204405953365313 0
4.58593218667548 4.920594817899271 0
4.29957537343624 4.851639464961247 0
4.447580277354115 5.028037214440728 0
3.115501644205743 3.440509195540005 0
3.111693278167276 3.163665012917653 0
2.819481602897589 3.0877337208792 0
2.96749068804374 3.264134958717417 0
4.003558738136436 4.498854900902749 0
3.996240843617897 4.217827049788414 0
3.70753932536472 4.14607799536136 0
3.855547454624991 4.322479325749495 0
3.411520796527998 3.793291737257743 0
3.406542522222072 3.515054685489196 0
3.263509844943452 3.616915723434583 0
3.701391502278341 3.866443332637967 0
3.559528600739847 3.969698591213576 0
4.880747855209827 5.271946727523273 0
4.743575537009447 5.380791396792448 0
4.291088457826473 4.569216874068503 0
4.151565490580372 4.675260746605862 0
1.637755768493045 1.407248568402281 0
1.339937884124843 1.324607100015658 0
1.48762036150559 1.500593139365416 0
2.816842647105834 2.812284333446446 0
2.671470870629367 2.91135624240508 0
10.57507635841135 4.152017036178395 0
10.57506336458538 3.921350288477838 0
10.4000109990508 0.2300732755223063 0
10.22501449704424 0.4589930955118966 0
10.22500685006788 0.2294969199510097 0
6.699936003438724 7.407064922292127 0
6.942195205389625 7.433980177411253 0
6.833541095734015 7.307256324621727 0
10.57508787432606 4.613354227722098 0
10.57507721972443 4.382686250492167 0
10.55852037758509 7.615310857494767 0
10.52854741384182 7.725976560328669 0
7.05321091192688 7.55191548889257 0
10.57509303280552 5.074704284147269 0
10.57508481884166 4.844027460322881 0
10.57509137955053 5.536123862818215 0
10.57508642427434 5.305399291273318 0
7.980341230158602 7.79258781172211 0
7.667458593603636 7.792157787070931 0
7.83066551290876 7.789754140021256 0
8.990712186135214 7.873783876508158 0
9.176135380903419 7.880285273866956 0
10.57511098477704 5.997847001615799 0
10.57508870658803 5.766920907769622 0
10.40002776068746 0.6902279027427474 0
10.22502356468444 0.91799457327184 0
10.22501761854569 0.6884953123598985 0
10.40003638127671 1.150394410552979 0
10.22502380143863 1.147500560516813 0
10.57531219095342 6.460064793149621 0
10.57516460120403 6.228952580022768 0
10.57644770963324 6.916997941056231 0
10.40100107398943 6.676779034782551 0
10.57568246197707 6.690202546589674 0
10.22689198038938 6.900645553804057 0
10.22575628106927 6.666312048967032 0
1.046506464408127 0.9748669711489679 0
1.344479662599058 1.057782793698694 0
1.192723079660334 1.149168145082066 0
5.75012099478166 6.035591532378346 0
5.759110481459117 6.317873569381108 0
5.894000797755426 6.206694278679568 0
10.41742768661174 7.465578449332854 0
10.24411488616496 7.323287365296381 0
10.26813665254913 7.47809951830004 0
7.488311603168704 7.96755280458319 0
7.645021770642018 8.167988498453603 0
7.483480917719426 8.144176476186132 0
10.40563547890302 7.118090442574466 0
10.23050607540151 7.125587814433756 0
5.458100534256173 5.687788831125697 0
5.604442472701275 5.862138774412885 0
5.771985300150904 6.604897514184931 0
6.054051231540415 6.933971753724746 0
5.914152372756426 6.772262158448727 0
10.57501359442271 0.4613203921796165 0
10.57500668331389 0.2306602204778496 0
10.57821545760722 7.328632619647232 0
10.57780375803829 7.134628886008552 0
8.620362126154067 7.86051282791246 0
8.805337633146207 7.867259207732554 0
5.164723182059226 5.33818451448029 0
5.311469212679818 5.513070527820754 0
10.063539364347 7.742839737852734 0
10.03146810781511 7.880799905891877 0
10.14653746818794 7.807397022027908 0
6.552906011272077 7.509061760823849 0
7.493067295208579 7.78178467249129 0
8.068457372707938 7.964934955084394 0
8.033750748957528 8.16258106034832 0
8.046698787350643 8.072068328524503 0
4.871100657465417 4.988260371894802 0
5.01792122321616 5.163243816644431 0
7.016086131393675 7.977963449891148 0
10.40003316672933 2.070749488668731 0
10.57502120729968 2.306665499500685 0
10.57502155844687 2.075994949851435 0
4.577433093017346 4.638280641900197 0
4.724267574058037 4.813280287153434 0
5.627714553284408 6.433844074254043 0
0.7917271688531127 0.2100361107215392 0
0.5832550048657819 0.329572465245163 0
0.6099303630070221 0.171193920636683 0
4.283757459825984 4.28829108847303 0
4.43059441341266 4.46329448316289 0
1.06816512494906 0.4584749779602113 0
1.057865150410903 0.7161402960528296 0
1.350062514851539 0.7922503253357167 0
1.207084053737193 0.6221435611434361 0
7.905280645754525 8.229624158617627 0
8.021565036244947 8.250627058517441 0
10.40002952347621 2.530933815362699 0
10.22502070329386 2.295034996605511 0
10.22501962360576 2.524544395235004 0
8.269199490158089 7.836604827177783 0
8.121685788337773 7.811850438447093 0
8.437796096948446 7.852430870021657 0
3.990080326204995 3.938300511381068 0
4.136917957542979 4.113303652623538 0
10.22502171057459 2.065526929767175 0
10.57502242381659 0.922648212372053 0
10.57501724127133 0.6919850347654526 0
10.57502356964692 1.153316289384215 0
3.696402925699739 3.588309599263816 0
3.843240707080201 3.763313571164757 0
3.402725475363563 3.238317867049219 0
3.549563448665568 3.413322178889925 0
3.109047542998037 2.888328194488321 0
3.255885969156327 3.063331134675459 0
2.815368691513267 2.538341040509296 0
2.962207788112252 2.713342997138332 0
10.57501970576047 2.537338359881446 0
0.7650887665294004 0.6367045581512354 0
0.9027788376479116 0.803138710544447 0
2.521689412816288 2.188361363504882 0
2.668528775549874 2.363358194845111 0
2.22801933238159 1.838405351889532 0
2.37485213753224 2.013386541036767 0
7.784000850489733 8.200888318655959 0
1.93441913113526 1.488542946310693 0
2.0812032332197 1.663459319890898 0
6.191400550921418 7.083916283318394 0
1.641215788742196 1.139154861451132 0
1.787724713385434 1.313740842846089 0
0.805527464461445 0.413802913618448 0
0.6449916389190307 0.4799617698694769 0
10.57374422880107 7.486413231485445 0
1.495159358225939 0.9651137843316233 0
9.906207791971037 7.786270664014853 0
9.96691540500187 7.702527393377636 0
9.892425700439007 7.909863511009998 0
0.9350389825328556 0.3113213982441057 0
2 4 0 89
1343
1344
1345
1346
1347
1348
1349
1350
1351
1352
1353
1354
1355
1356
1357
1358
1359
1360
1361
1362
1363
1364
1365
1366
1367
1368
1369
1370
1371
1372
1373
1374
1375
1376
1377
1378
1379
1380
1381
1382
1383
1384
1385
1386
1387
1388
1389
1390
1391
1392
1393
1394
1395
1396
1397
1398
1399
1400
1401
1402
1403
1404
1405
1406
1407
1408
1409
1410
1411
1412
1413
1414
1415
1416
1417
1418
1419
1420
1421
1422
1423
1424
1425
1426
1427
1428
1429
1430
1431
7.574316613448858 7.244441346314981 0
8.809818950509618 7.299571789185857 0
9.548453966398917 6.813346316370557 0
9.442726382699108 7.484698473925129 0
7.259987654556606 7.124294678340499 0
8.067643357371963 6.789285191648054 0
8.432182832967758 7.24941117041101 0
8.522975173540473 6.820349175803905 0
9.692601573413869 7.417887813105215 0
7.12903017086812 6.785417771843511 0
6.802515215273523 6.634078589853004 0
9.035241562569414 6.907691900357575 0
9.209906078696839 7.317221060661059 0
7.613422709535477 6.771431775859821 0
8.027765653645622 7.225304681156055 0
9.605321780776118 7.13285236915045 0
8.885049839634775 7.122615837073953 0
8.986587466612201 7.317824796774117 0
9.153444611516292 7.114739406171254 0
9.011627291690765 7.181632953764161 0
9.764587469700659 6.825373351078909 0
9.562162119706551 6.983621394903279 0
9.788172123353419 7.054627598554101 0
9.714779809438689 6.953205141783342 0
6.516336347541975 6.455095820298603 0
6.411147295194375 6.377778747205641 0
7.644799857464075 7.453159977055173 0
7.431770285476926 7.402974237920893 0
7.523429208809059 7.48188264457394 0
8.62690077291643 7.271982224815175 0
8.390868313349035 7.451992027406536 0
8.754111161152144 7.480036522489595 0
8.57416127116152 7.465564286760095 0
9.55522942373327 6.612620683190525 0
9.797489418234646 6.626222996686582 0
8.091057376515518 6.566461783954189 0
8.294694395350961 6.801958512207965 0
8.563234191457827 6.592024819512371 0
8.32619214264267 6.577756143251434 0
6.727948459664093 6.708044797007062 0
6.760298697249905 6.513714180812796 0
6.627796159833785 6.581429198808701 0
8.231834269228823 7.234077871614987 0
8.015347972652776 7.434853209333421 0
8.204416935732029 7.441449191356554 0
7.817383694234076 7.225291436225425 0
7.823942986513685 7.435625060567533 0
8.045661235296652 7.009718698056104 0
7.840295138080002 6.779795054973413 0
7.602952456980519 6.993823305023272 0
7.824591751516576 7.003763142935456 0
7.148929181583688 6.528828913386187 0
7.386557778926534 6.76896439483221 0
7.621336153481156 6.549208424814732 0
7.38418705145355 6.543037680540214 0
9.114687328511934 7.513344250919269 0
8.935120296045223 7.493125026106588 0
7.856333182624708 6.557168309284908 0
9.059478613825654 6.622046030115326 0
9.31975717235807 6.840569771527194 0
9.312341654892926 6.617445697620029 0
9.422182899776386 7.205227932639703 0
9.359319210537816 7.038342427792164 0
8.758208704798532 6.849420217146356 0
8.806768315826888 6.610429966116139 0
9.420147217059814 7.569626208301612 0
9.362114497038522 7.426800697287719 0
9.276992023983375 7.545723338509184 0
6.919032093321679 6.681996296122479 0
6.97111542142704 6.947464712827337 0
6.843557232166315 6.82155482927693 0
9.712137207305343 7.555195734866833 0
9.544410456952935 7.454780419346795 0
9.562775841739327 7.569829184364544 0
7.182616360496857 7.212629219774571 0
7.220943908127056 7.00318022866348 0
7.082388039534096 7.088910716383499 0
8.4774966265601 7.039905163808156 0
8.262482077166565 7.021233667789866 0
7.375216904429978 7.160340521344666 0
7.301219879059206 7.310209716398269 0
9.861778167647779 7.386829111931652 0
9.656908452423725 7.276655085098392 0
9.842617867723014 7.216502805745463 0
8.691318433618468 7.070361903306383 0
9.862978862299956 7.534405001813229 0
7.395707982159013 6.981109200337499 0
9.493383518901286 7.340124966866383 0
6.933956910284516 6.505519739739362 0
$EndNodes
$Elements
33 1527 1 1527
0 1 15 1
1 1 
0 2 15 1
2 2 
0 3 15 1
3 3 
0 4 15 1
4 4 
0 5 15 1
5 5 
0 6 15 1
6 6 
0 7 15 1
7 7 
0 8 15 1
8 8 
0 9 15 1
9 9 
0 10 15 1
10 10 
0 11 15 1
11 11 
0 12 15 1
12 12 
0 13 15 1
13 13 
0 14 15 1
14 14 
0 15 15 1
15 15 
0 16 15 1
16 16 
0 17 15 1
17 17 
0 18 15 1
18 18 
0 19 15 1
19 19 
1 1 1 8
20 1 20 
21 20 21 
22 21 22 
23 22 23 
24 23 24 
25 24 25 
26 25 26 
27 26 2 
1 6 1 8
28 6 41 
29 41 42 
30 42 43 
31 43 44 
32 44 45 
33 45 46 
34 46 47 
35 47 1 
1 10 1 40
36 10 125 
37 125 126 
38 126 127 
39 127 128 
40 128 129 
41 129 130 
42 130 131 
43 131 132 
44 132 133 
45 133 134 
46 134 135 
47 135 136 
48 136 137 
49 137 138 
50 138 139 
51 139 140 
52 140 141 
53 141 142 
54 142 143 
55 143 144 
56 144 145 
57 145 146 
58 146 147 
59 147 148 
60 148 149 
61 149 150 
62 150 151 
63 151 152 
64 152 153 
65 153 154 
66 154 155 
67 155 156 
68 156 157 
69 157 158 
70 158 159 
71 159 160 
72 160 161 
73 161 162 
74 162 163 
75 163 8 
1 11 1 4
76 2 164 
77 164 165 
78 165 166 
79 166 11 
1 12 1 8
80 11 167 
81 167 168 
82 168 169 
83 169 170 
84 170 171 
85 171 172 
86 172 173 
87 173 12 
1 13 1 44
88 12 174 
89 174 175 
90 175 176 
91 176 177 
92 177 178 
93 178 179 
94 179 180 
95 180 181 
96 181 182 
97 182 183 
98 183 184 
99 184 185 
100 185 186 
101 186 187 
102 187 188 
103 188 189 
104 189 190 
105 190 191 
106 191 192 
107 192 193 
108 193 194 
109 194 195 
110 195 196 
111 196 197 
112 197 198 
113 198 199 
114 199 200 
115 200 201 
116 201 202 
117 202 203 
118 203 204 
119 204 205 
120 205 206 
121 206 207 
122 207 208 
123 208 209 
124 209 210 
125 210 211 
126 211 212 
127 212 213 
128 213 214 
129 214 215 
130 215 216 
131 216 13 
1 14 1 4
132 13 217 
133 217 218 
134 218 219 
135 219 10 
1 20 1 4
136 8 247 
137 247 248 
138 248 249 
139 249 18 
1 21 1 32
140 18 250 
141 250 251 
142 251 252 
143 252 253 
144 253 254 
145 254 255 
146 255 256 
147 256 257 
148 257 258 
149 258 259 
150 259 260 
151 260 261 
152 261 262 
153 262 263 
154 263 264 
155 264 265 
156 265 266 
157 266 267 
158 267 268 
159 268 269 
160 269 270 
161 270 271 
162 271 272 
163 272 273 
164 273 274 
165 274 275 
166 275 276 
167 276 277 
168 277 278 
169 278 279 
170 279 280 
171 280 19 
1 22 1 4
172 19 281 
173 281 282 
174 282 283 
175 283 6 
2 1 3 33
176 1 285 286 47 
177 46 47 286 284 
178 4 284 286 285 
179 5 40 288 287 
180 42 287 288 41 
181 6 41 288 40 
182 3 30 290 29 
183 28 29 290 289 
184 31 289 290 30 
185 35 36 292 291 
186 21 291 292 20 
187 1 20 292 285 
188 4 285 292 36 
189 31 32 295 293 
190 25 293 295 24 
191 23 24 295 294 
192 33 294 295 32 
193 21 22 296 291 
194 35 291 296 34 
195 33 34 296 294 
196 23 294 296 22 
197 25 26 297 293 
198 31 293 297 289 
199 28 289 297 27 
200 2 27 297 26 
201 38 39 299 298 
202 44 298 299 43 
203 42 43 299 287 
204 5 287 299 39 
205 46 284 300 45 
206 44 45 300 298 
207 38 298 300 37 
208 4 37 300 284 
2 2 3 802
209 461 472 473 470 
210 450 470 473 471 
211 469 471 473 472 
212 359 476 477 474 
213 333 474 477 475 
214 384 475 477 476 
215 315 480 481 478 
216 320 478 481 479 
217 361 479 481 480 
218 9 483 484 89 
219 88 89 484 482 
220 333 482 484 483 
221 463 487 488 485 
222 460 485 488 486 
223 468 486 488 487 
224 460 491 492 489 
225 446 489 492 490 
226 466 490 492 491 
227 385 495 496 493 
228 396 493 496 494 
229 408 494 496 495 
230 465 499 500 497 
231 449 497 500 498 
232 466 498 500 499 
233 361 503 504 501 
234 369 501 504 502 
235 385 502 504 503 
236 320 507 508 505 
237 332 505 508 506 
238 360 506 508 507 
239 327 511 512 509 
240 313 509 512 510 
241 156 510 512 155 
242 154 155 512 511 
243 59 58 516 513 
244 317 513 516 514 
245 329 514 516 515 
246 57 515 516 58 
247 323 519 520 517 
248 67 517 520 68 
249 69 68 520 518 
250 312 518 520 519 
251 132 522 523 131 
252 130 131 523 521 
253 320 521 523 478 
254 315 478 523 522 
255 150 526 527 149 
256 148 149 527 524 
257 324 524 527 525 
258 303 525 527 526 
259 119 118 531 528 
260 302 528 531 529 
261 326 529 531 530 
262 117 530 531 118 
263 325 534 535 532 
264 306 532 535 533 
265 107 533 535 108 
266 109 108 535 534 
267 328 537 538 536 
268 302 536 538 528 
269 119 528 538 120 
270 121 120 538 537 
271 314 541 542 539 
272 319 539 542 540 
273 97 540 542 98 
274 99 98 542 541 
275 367 546 547 543 
276 350 543 547 544 
277 303 544 547 545 
278 335 545 547 546 
279 146 550 551 145 
280 144 145 551 548 
281 305 548 551 549 
282 348 549 551 550 
283 152 552 553 151 
284 150 151 553 526 
285 303 526 553 544 
286 350 544 553 552 
287 142 556 557 141 
288 140 141 557 554 
289 307 554 557 555 
290 347 555 557 556 
291 115 559 560 116 
292 117 116 560 530 
293 326 530 560 558 
294 352 558 560 559 
295 324 525 563 561 
296 375 561 563 562 
297 335 562 563 545 
298 303 545 563 525 
299 111 566 567 112 
300 113 112 567 564 
301 304 564 567 565 
302 351 565 567 566 
303 65 569 570 66 
304 67 66 570 517 
305 323 517 570 568 
306 346 568 570 569 
307 148 524 572 147 
308 146 147 572 550 
309 348 550 572 571 
310 324 571 572 524 
311 138 575 576 137 
312 136 137 576 573 
313 310 573 576 574 
314 345 574 576 575 
315 327 577 578 511 
316 154 511 578 153 
317 152 153 578 552 
318 350 552 578 577 
319 105 580 581 106 
320 107 106 581 533 
321 306 533 581 579 
322 353 579 581 580 
323 134 583 584 133 
324 132 133 584 522 
325 315 522 584 582 
326 344 582 584 583 
327 375 586 587 561 
328 324 561 587 571 
329 348 571 587 585 
330 372 585 587 586 
331 376 590 591 588 
332 338 588 591 589 
333 313 589 591 509 
334 327 509 591 590 
335 367 543 593 592 
336 376 592 593 590 
337 327 590 593 577 
338 350 577 593 543 
339 144 548 595 143 
340 142 143 595 556 
341 347 556 595 594 
342 305 594 595 548 
343 101 598 599 102 
344 103 102 599 596 
345 308 596 599 597 
346 354 597 599 598 
347 304 600 601 564 
348 113 564 601 114 
349 115 114 601 559 
350 352 559 601 600 
351 325 602 603 534 
352 109 534 603 110 
353 111 110 603 566 
354 351 566 603 602 
355 158 605 606 157 
356 156 157 606 510 
357 313 510 606 604 
358 355 604 606 605 
359 326 558 610 607 
360 379 607 610 608 
361 403 608 610 609 
362 352 609 610 558 
363 393 613 614 611 
364 338 611 614 588 
365 376 588 614 612 
366 422 612 614 613 
367 63 616 617 64 
368 65 64 617 569 
369 346 569 617 615 
370 301 615 617 616 
371 399 620 621 618 
372 305 618 621 594 
373 347 594 621 619 
374 362 619 621 620 
375 306 579 625 622 
376 378 622 625 623 
377 402 623 625 624 
378 353 624 625 579 
379 140 554 627 139 
380 138 139 627 575 
381 345 575 627 626 
382 307 626 627 554 
383 340 630 631 628 
384 377 628 631 629 
385 323 629 631 519 
386 312 519 631 630 
387 312 633 634 518 
388 69 518 634 70 
389 71 70 634 632 
390 349 632 634 633 
391 335 637 638 562 
392 375 562 638 635 
393 421 635 638 636 
394 386 636 638 637 
395 308 639 640 596 
396 103 596 640 104 
397 105 104 640 580 
398 353 580 640 639 
399 305 549 642 618 
400 399 618 642 641 
401 372 641 642 585 
402 348 585 642 549 
403 367 644 645 546 
404 335 546 645 637 
405 386 637 645 643 
406 401 643 645 644 
407 351 648 649 565 
408 304 565 649 646 
409 368 646 649 647 
410 380 647 649 648 
411 136 573 651 135 
412 134 135 651 583 
413 344 583 651 650 
414 310 650 651 573 
415 302 529 654 652 
416 334 652 654 653 
417 379 653 654 607 
418 326 607 654 529 
419 398 657 658 655 
420 307 655 658 626 
421 345 626 658 656 
422 366 656 658 657 
423 411 661 662 659 
424 434 659 662 660 
425 401 660 662 643 
426 386 643 662 661 
427 314 663 664 541 
428 99 541 664 100 
429 101 100 664 598 
430 354 598 664 663 
431 325 532 667 665 
432 337 665 667 666 
433 378 666 667 622 
434 306 622 667 532 
435 363 669 670 668 
436 308 668 670 639 
437 353 639 670 624 
438 402 624 670 669 
439 307 555 672 655 
440 398 655 672 671 
441 362 671 672 619 
442 347 619 672 555 
443 433 675 676 673 
444 453 673 676 674 
445 465 674 676 499 
446 466 499 676 675 
447 330 678 679 677 
448 160 677 679 159 
449 158 159 679 605 
450 355 605 679 678 
451 368 680 681 646 
452 304 646 681 600 
453 352 600 681 609 
454 403 609 681 680 
455 323 568 684 629 
456 377 629 684 682 
457 373 682 684 683 
458 346 683 684 568 
459 361 501 687 685 
460 319 685 687 539 
461 314 539 687 686 
462 369 686 687 501 
463 376 612 689 592 
464 367 592 689 644 
465 401 644 689 688 
466 422 688 689 612 
467 386 661 692 636 
468 421 636 692 690 
469 433 690 692 691 
470 411 691 692 661 
471 349 694 695 632 
472 71 632 695 72 
473 73 72 695 693 
474 322 693 695 694 
475 415 699 700 696 
476 442 696 700 697 
477 451 697 700 698 
478 432 698 700 699 
479 337 666 704 701 
480 391 701 704 702 
481 417 702 704 703 
482 378 703 704 666 
483 441 708 709 705 
484 391 705 709 706 
485 424 706 709 707 
486 454 707 709 708 
487 400 711 712 710 
488 421 710 712 635 
489 375 635 712 586 
490 372 586 712 711 
491 411 713 714 691 
492 433 691 714 675 
493 466 675 714 490 
494 446 490 714 713 
495 351 602 716 648 
496 380 648 716 715 
497 337 715 716 665 
498 325 665 716 602 
499 400 719 720 717 
500 415 717 720 699 
501 432 699 720 718 
502 453 718 720 719 
503 453 719 721 673 
504 433 673 721 690 
505 421 690 721 710 
506 400 710 721 719 
507 372 711 723 641 
508 399 641 723 722 
509 415 722 723 717 
510 400 717 723 711 
511 389 726 727 724 
512 430 724 727 725 
513 454 725 727 707 
514 424 707 727 726 
515 409 729 730 728 
516 369 728 730 686 
517 314 686 730 663 
518 354 663 730 729 
519 368 647 733 731 
520 389 731 733 726 
521 424 726 733 732 
522 380 732 733 647 
523 61 735 736 62 
524 63 62 736 616 
525 301 616 736 734 
526 356 734 736 735 
527 443 740 741 737 
528 456 737 741 738 
529 435 738 741 739 
530 420 739 741 740 
531 417 703 744 742 
532 437 742 744 743 
533 402 743 744 623 
534 378 623 744 703 
535 355 746 747 604 
536 313 604 747 589 
537 338 589 747 745 
538 381 745 747 746 
539 162 163 749 748 
540 322 748 749 693 
541 73 693 749 74 
542 8 74 749 163 
543 162 748 751 161 
544 160 161 751 677 
545 330 677 751 750 
546 322 750 751 748 
547 354 729 753 597 
548 308 597 753 668 
549 363 668 753 752 
550 409 752 753 729 
551 340 755 756 630 
552 312 630 756 633 
553 349 633 756 754 
554 343 754 756 755 
555 391 706 757 701 
556 337 701 757 715 
557 380 715 757 732 
558 424 732 757 706 
559 362 760 761 671 
560 398 671 761 758 
561 414 758 761 759 
562 442 759 761 760 
563 442 760 762 696 
564 415 696 762 722 
565 399 722 762 620 
566 362 620 762 760 
567 387 765 766 763 
568 379 763 766 653 
569 334 653 766 764 
570 410 764 766 765 
571 322 694 768 750 
572 330 750 768 767 
573 343 767 768 754 
574 349 754 768 694 
575 444 771 772 769 
576 435 769 772 738 
577 456 738 772 770 
578 448 770 772 771 
579 389 774 775 731 
580 368 731 775 680 
581 403 680 775 773 
582 425 773 775 774 
583 355 678 777 746 
584 381 746 777 776 
585 343 776 777 767 
586 330 767 777 678 
587 317 778 779 513 
588 59 513 779 60 
589 61 60 779 735 
590 356 735 779 778 
591 403 773 781 608 
592 379 608 781 763 
593 387 763 781 780 
594 425 780 781 773 
595 445 783 784 782 
596 430 782 784 724 
597 389 724 784 774 
598 425 774 784 783 
599 456 787 788 737 
600 443 737 788 785 
601 434 785 788 786 
602 455 786 788 787 
603 392 791 792 789 
604 373 789 792 682 
605 377 682 792 790 
606 423 790 792 791 
607 393 796 797 793 
608 420 793 797 794 
609 423 794 797 795 
610 404 795 797 796 
611 423 795 799 790 
612 377 790 799 628 
613 340 628 799 798 
614 404 798 799 795 
615 338 745 801 611 
616 393 611 801 796 
617 404 796 801 800 
618 381 800 801 745 
619 55 803 804 56 
620 57 56 804 515 
621 329 515 804 802 
622 357 802 804 803 
623 374 807 808 805 
624 356 805 808 734 
625 301 734 808 806 
626 405 806 808 807 
627 410 765 812 809 
628 439 809 812 810 
629 412 810 812 811 
630 387 811 812 765 
631 443 785 814 813 
632 422 813 814 688 
633 401 688 814 660 
634 434 660 814 785 
635 462 818 819 815 
636 445 815 819 816 
637 412 816 819 817 
638 447 817 819 818 
639 439 810 822 820 
640 461 820 822 821 
641 447 821 822 817 
642 412 817 822 810 
643 463 485 825 823 
644 455 823 825 824 
645 446 824 825 489 
646 460 489 825 485 
647 381 776 826 800 
648 404 800 826 798 
649 340 798 826 755 
650 343 755 826 776 
651 455 824 827 786 
652 434 786 827 659 
653 411 659 827 713 
654 446 713 827 824 
655 412 811 828 816 
656 445 816 828 783 
657 425 783 828 780 
658 387 780 828 811 
659 423 791 830 794 
660 420 794 830 739 
661 435 739 830 829 
662 392 829 830 791 
663 422 613 831 813 
664 443 813 831 740 
665 420 740 831 793 
666 393 793 831 613 
667 356 778 834 805 
668 374 805 834 832 
669 336 832 834 833 
670 317 833 834 778 
671 346 615 836 683 
672 373 683 836 835 
673 405 835 836 806 
674 301 806 836 615 
675 95 838 839 96 
676 97 96 839 540 
677 319 540 839 837 
678 360 837 839 838 
679 123 122 842 840 
680 359 840 842 841 
681 328 841 842 537 
682 121 537 842 122 
683 357 845 846 802 
684 329 802 846 843 
685 382 843 846 844 
686 406 844 846 845 
687 334 848 849 652 
688 302 652 849 536 
689 328 536 849 847 
690 370 847 849 848 
691 436 853 854 850 
692 407 850 854 851 
693 388 851 854 852 
694 413 852 854 853 
695 405 856 857 835 
696 373 835 857 789 
697 392 789 857 855 
698 426 855 857 856 
699 416 861 862 858 
700 382 858 862 859 
701 336 859 862 860 
702 407 860 862 861 
703 370 848 865 863 
704 428 863 865 864 
705 410 864 865 764 
706 334 764 865 848 
707 311 867 868 866 
708 53 866 868 54 
709 55 54 868 803 
710 357 803 868 867 
711 413 871 872 869 
712 444 869 872 771 
713 448 771 872 870 
714 457 870 872 871 
715 407 851 874 860 
716 336 860 874 832 
717 374 832 874 873 
718 388 873 874 851 
719 382 859 875 843 
720 329 843 875 514 
721 317 514 875 833 
722 336 833 875 859 
723 374 873 877 807 
724 405 807 877 856 
725 426 856 877 876 
726 388 876 877 873 
727 448 878 879 770 
728 456 770 879 787 
729 455 787 879 823 
730 463 823 879 878 
731 462 815 882 880 
732 449 880 882 881 
733 430 881 882 782 
734 445 782 882 815 
735 371 884 885 883 
736 311 883 885 867 
737 357 867 885 845 
738 406 845 885 884 
739 93 886 887 94 
740 95 94 887 838 
741 360 838 887 506 
742 332 506 887 886 
743 413 869 889 852 
744 388 852 889 876 
745 426 876 889 888 
746 444 888 889 869 
747 444 769 890 888 
748 426 888 890 855 
749 392 855 890 829 
750 435 829 890 769 
751 463 878 892 487 
752 468 487 892 891 
753 457 891 892 870 
754 448 870 892 878 
755 464 894 895 893 
756 436 893 895 853 
757 413 853 895 871 
758 457 871 895 894 
759 371 883 899 896 
760 383 896 899 897 
761 358 897 899 898 
762 311 898 899 883 
763 78 902 903 77 
764 76 77 903 900 
765 318 900 903 901 
766 321 901 903 902 
767 80 905 906 79 
768 78 79 906 902 
769 321 902 906 904 
770 342 904 906 905 
771 408 908 909 907 
772 366 907 909 656 
773 345 656 909 574 
774 310 574 909 908 
775 84 912 913 83 
776 82 83 913 910 
777 309 910 913 911 
778 341 911 913 912 
779 318 901 916 914 
780 358 914 916 897 
781 383 897 916 915 
782 321 915 916 901 
783 385 917 918 495 
784 408 495 918 908 
785 310 908 918 650 
786 344 650 918 917 
787 82 910 920 81 
788 80 81 920 905 
789 342 905 920 919 
790 309 919 920 910 
791 364 922 923 921 
792 342 921 923 904 
793 321 904 923 915 
794 383 915 923 922 
795 86 925 926 85 
796 84 85 926 912 
797 341 912 926 924 
798 316 924 926 925 
799 365 930 931 927 
800 397 927 931 928 
801 418 928 931 929 
802 390 929 931 930 
803 51 50 934 932 
804 358 932 934 914 
805 318 914 934 933 
806 49 933 934 50 
807 53 52 935 866 
808 311 866 935 898 
809 358 898 935 932 
810 51 932 935 52 
811 328 847 937 841 
812 359 841 937 476 
813 384 476 937 936 
814 370 936 937 847 
815 76 900 938 75 
816 7 75 938 48 
817 49 48 938 933 
818 318 933 938 900 
819 88 482 940 87 
820 86 87 940 925 
821 316 925 940 939 
822 333 939 940 482 
823 464 893 944 941 
824 459 941 944 942 
825 440 942 944 943 
826 436 943 944 893 
827 452 948 949 945 
828 427 945 949 946 
829 416 946 949 947 
830 440 947 949 948 
831 130 521 951 129 
832 128 129 951 950 
833 332 950 951 505 
834 320 505 951 521 
835 371 896 954 952 
836 394 952 954 953 
837 364 953 954 922 
838 383 922 954 896 
839 427 946 956 955 
840 406 955 956 844 
841 382 844 956 858 
842 416 858 956 946 
843 407 861 957 850 
844 436 850 957 943 
845 440 943 957 947 
846 416 947 957 861 
847 394 958 959 952 
848 371 952 959 884 
849 406 884 959 955 
850 427 955 959 958 
851 365 962 963 960 
852 339 960 963 961 
853 316 961 963 924 
854 341 924 963 962 
855 364 965 966 953 
856 394 953 966 964 
857 418 964 966 928 
858 397 928 966 965 
859 414 968 969 758 
860 398 758 969 657 
861 366 657 969 967 
862 419 967 969 968 
863 454 970 971 725 
864 430 725 971 881 
865 449 881 971 497 
866 465 497 971 970 
867 333 475 973 939 
868 316 939 973 961 
869 339 961 973 972 
870 384 972 973 475 
871 439 975 976 809 
872 410 809 976 864 
873 428 864 976 974 
874 438 974 976 975 
875 461 470 978 820 
876 439 820 978 975 
877 438 975 978 977 
878 450 977 978 470 
879 396 979 980 493 
880 385 493 980 502 
881 369 502 980 728 
882 409 728 980 979 
883 419 982 983 981 
884 396 981 983 979 
885 409 979 983 752 
886 363 752 983 982 
887 429 985 986 984 
888 339 984 986 960 
889 365 960 986 930 
890 390 930 986 985 
891 461 821 989 472 
892 469 472 989 987 
893 468 987 989 988 
894 447 988 989 821 
895 361 480 990 503 
896 385 503 990 917 
897 344 917 990 582 
898 315 582 990 480 
899 309 991 992 919 
900 342 919 992 921 
901 364 921 992 965 
902 397 965 992 991 
903 397 991 993 927 
904 365 927 993 962 
905 341 962 993 911 
906 309 911 993 991 
907 449 498 995 880 
908 462 880 995 994 
909 460 994 995 491 
910 466 491 995 498 
911 417 997 998 702 
912 391 702 998 705 
913 441 705 998 996 
914 451 996 998 997 
915 450 471 1001 999 
916 459 999 1001 941 
917 464 941 1001 1000 
918 469 1000 1001 471 
919 360 507 1002 837 
920 319 837 1002 685 
921 361 685 1002 479 
922 320 479 1002 507 
923 447 818 1003 988 
924 468 988 1003 486 
925 460 486 1003 994 
926 462 994 1003 818 
927 359 474 1004 840 
928 123 840 1004 124 
929 9 124 1004 483 
930 333 483 1004 474 
931 370 863 1007 936 
932 384 936 1007 1005 
933 395 1005 1007 1006 
934 428 1006 1007 863 
935 429 1010 1011 985 
936 390 985 1011 1008 
937 431 1008 1011 1009 
938 438 1009 1011 1010 
939 395 1006 1013 1012 
940 429 1012 1013 1010 
941 438 1010 1013 974 
942 428 974 1013 1006 
943 431 1015 1016 1008 
944 390 1008 1016 929 
945 418 929 1016 1014 
946 452 1014 1016 1015 
947 452 1015 1018 948 
948 440 948 1018 942 
949 459 942 1018 1017 
950 431 1017 1018 1015 
951 363 982 1020 669 
952 402 669 1020 743 
953 437 743 1020 1019 
954 419 1019 1020 982 
955 419 981 1021 967 
956 366 967 1021 907 
957 408 907 1021 494 
958 396 494 1021 981 
959 452 945 1022 1014 
960 418 1014 1022 964 
961 394 964 1022 958 
962 427 958 1022 945 
963 441 996 1025 1023 
964 467 1023 1025 1024 
965 432 1024 1025 698 
966 451 698 1025 996 
967 458 1027 1028 1026 
968 451 1026 1028 697 
969 442 697 1028 759 
970 414 759 1028 1027 
971 437 1019 1030 1029 
972 458 1029 1030 1027 
973 414 1027 1030 968 
974 419 968 1030 1019 
975 469 987 1031 1000 
976 464 1000 1031 894 
977 457 894 1031 891 
978 468 891 1031 987 
979 467 1024 1033 1032 
980 465 1032 1033 674 
981 453 674 1033 718 
982 432 718 1033 1024 
983 91 90 1036 1034 
984 331 1034 1036 1035 
985 126 1035 1036 125 
986 10 125 1036 90 
987 339 972 1037 984 
988 429 984 1037 1012 
989 395 1012 1037 1005 
990 384 1005 1037 972 
991 431 1009 1038 1017 
992 459 1017 1038 999 
993 450 999 1038 977 
994 438 977 1038 1009 
995 331 1035 1040 1039 
996 332 1039 1040 950 
997 128 950 1040 127 
998 126 127 1040 1035 
999 93 92 1041 886 
1000 332 886 1041 1039 
1001 331 1039 1041 1034 
1002 91 1034 1041 92 
1003 458 1026 1042 1029 
1004 437 1029 1042 742 
1005 417 742 1042 997 
1006 451 997 1042 1026 
1007 467 1032 1043 1023 
1008 441 1023 1043 708 
1009 454 708 1043 970 
1010 465 970 1043 1032 
2 3 3 405
1011 228 1093 1094 1091 
1012 1045 1091 1094 1092 
1013 1051 1092 1094 1093 
1014 13 217 1096 216 
1015 215 216 1096 1095 
1016 218 1095 1096 217 
1017 17 1098 1099 243 
1018 242 243 1099 1097 
1019 1086 1097 1099 1098 
1020 5 1102 1103 1100 
1021 1068 1100 1103 1101 
1022 1086 1101 1103 1102 
1023 170 1105 1106 169 
1024 168 169 1106 1104 
1025 1051 1104 1106 1105 
1026 175 1109 1110 1107 
1027 1048 1107 1110 1108 
1028 1083 1108 1110 1109 
1029 1046 1113 1114 1111 
1030 1044 1111 1114 1112 
1031 1080 1112 1114 1113 
1032 55 56 1118 1115 
1033 1072 1115 1118 1116 
1034 1073 1116 1118 1117 
1035 57 1117 1118 56 
1036 57 58 1121 1117 
1037 1073 1117 1121 1119 
1038 1074 1119 1121 1120 
1039 59 1120 1121 58 
1040 53 54 1124 1122 
1041 1071 1122 1124 1123 
1042 1072 1123 1124 1115 
1043 55 1115 1124 54 
1044 1070 1126 1127 1125 
1045 1071 1125 1127 1122 
1046 53 1122 1127 52 
1047 51 52 1127 1126 
1048 1074 1120 1130 1128 
1049 1075 1128 1130 1129 
1050 61 1129 1130 60 
1051 59 60 1130 1120 
1052 1075 1129 1133 1131 
1053 1076 1131 1133 1132 
1054 63 1132 1133 62 
1055 61 62 1133 1129 
1056 67 68 1137 1134 
1057 1077 1134 1137 1135 
1058 1078 1135 1137 1136 
1059 69 1136 1137 68 
1060 49 1140 1141 48 
1061 7 48 1141 1138 
1062 1079 1138 1141 1139 
1063 1088 1139 1141 1140 
1064 1070 1142 1143 1126 
1065 51 1126 1143 50 
1066 49 50 1143 1140 
1067 1088 1140 1143 1142 
1068 1049 1146 1147 1144 
1069 1083 1144 1147 1145 
1070 223 1145 1147 222 
1071 221 222 1147 1146 
1072 1083 1145 1149 1108 
1073 1048 1108 1149 1148 
1074 225 1148 1149 224 
1075 223 224 1149 1145 
1076 255 256 1152 1150 
1077 1078 1150 1152 1135 
1078 1077 1135 1152 1151 
1079 257 1151 1152 256 
1080 239 240 1155 1153 
1081 35 1153 1155 36 
1082 4 36 1155 1154 
1083 16 1154 1155 240 
1084 261 262 1158 1156 
1085 1076 1156 1158 1131 
1086 1075 1131 1158 1157 
1087 263 1157 1158 262 
1088 1049 1160 1161 1146 
1089 221 1146 1161 220 
1090 9 220 1161 1159 
1091 1084 1159 1161 1160 
1092 172 173 1165 1162 
1093 1045 1162 1165 1163 
1094 1082 1163 1165 1164 
1095 12 1164 1165 173 
1096 263 264 1167 1157 
1097 1075 1157 1167 1128 
1098 1074 1128 1167 1166 
1099 265 1166 1167 264 
1100 185 1170 1171 184 
1101 183 184 1171 1168 
1102 1053 1168 1171 1169 
1103 1054 1169 1171 1170 
1104 207 1174 1175 206 
1105 205 206 1175 1172 
1106 1065 1172 1175 1173 
1107 1066 1173 1175 1174 
1108 183 1168 1178 182 
1109 181 182 1178 1176 
1110 1052 1176 1178 1177 
1111 1053 1177 1178 1168 
1112 205 1172 1181 204 
1113 203 204 1181 1179 
1114 1064 1179 1181 1180 
1115 1065 1180 1181 1172 
1116 203 1179 1184 202 
1117 201 202 1184 1182 
1118 1063 1182 1184 1183 
1119 1064 1183 1184 1179 
1120 189 1187 1188 188 
1121 187 188 1188 1185 
1122 1055 1185 1188 1186 
1123 1056 1186 1188 1187 
1124 199 1191 1192 198 
1125 197 198 1192 1189 
1126 1061 1189 1192 1190 
1127 1062 1190 1192 1191 
1128 193 1195 1196 192 
1129 191 192 1196 1193 
1130 1057 1193 1196 1194 
1131 1058 1194 1196 1195 
1132 197 1189 1199 196 
1133 195 196 1199 1197 
1134 1060 1197 1199 1198 
1135 1061 1198 1199 1189 
1136 195 1197 1201 194 
1137 193 194 1201 1195 
1138 1058 1195 1201 1200 
1139 1060 1200 1201 1197 
1140 187 1185 1203 186 
1141 185 186 1203 1170 
1142 1054 1170 1203 1202 
1143 1055 1202 1203 1185 
1144 191 1193 1205 190 
1145 189 190 1205 1187 
1146 1056 1187 1205 1204 
1147 1057 1204 1205 1193 
1148 209 1207 1208 208 
1149 207 208 1208 1174 
1150 1066 1174 1208 1206 
1151 1067 1206 1208 1207 
1152 201 1182 1210 200 
1153 199 200 1210 1191 
1154 1062 1191 1210 1209 
1155 1063 1209 1210 1182 
1156 265 266 1212 1166 
1157 1074 1166 1212 1119 
1158 1073 1119 1212 1211 
1159 267 1211 1212 266 
1160 1059 1214 1215 1213 
1161 248 1213 1215 247 
1162 8 247 1215 74 
1163 73 74 1215 1214 
1164 14 1217 1218 226 
1165 225 226 1218 1148 
1166 1048 1148 1218 1216 
1167 1082 1216 1218 1217 
1168 267 268 1220 1211 
1169 1073 1211 1220 1116 
1170 1072 1116 1220 1219 
1171 269 1219 1220 268 
1172 282 283 1222 1221 
1173 1068 1221 1222 1100 
1174 5 1100 1222 40 
1175 6 40 1222 283 
1176 14 227 1223 1217 
1177 1082 1217 1223 1163 
1178 1045 1163 1223 1091 
1179 228 1091 1223 227 
1180 269 270 1225 1219 
1181 1072 1219 1225 1123 
1182 1071 1123 1225 1224 
1183 271 1224 1225 270 
1184 271 272 1227 1224 
1185 1071 1224 1227 1125 
1186 1070 1125 1227 1226 
1187 273 1226 1227 272 
1188 1080 1113 1230 1228 
1189 231 1228 1230 230 
1190 15 230 1230 1229 
1191 1046 1229 1230 1113 
1192 237 238 1232 1231 
1193 33 1231 1232 34 
1194 35 34 1232 1153 
1195 239 1153 1232 238 
1196 273 274 1234 1226 
1197 1070 1226 1234 1142 
1198 1088 1142 1234 1233 
1199 275 1233 1234 274 
1200 1087 1236 1237 1235 
1201 1059 1235 1237 1214 
1202 73 1214 1237 72 
1203 71 72 1237 1236 
1204 71 1236 1239 70 
1205 69 70 1239 1136 
1206 1078 1136 1239 1238 
1207 1087 1238 1239 1236 
1208 275 276 1241 1233 
1209 1088 1233 1241 1139 
1210 1079 1139 1241 1240 
1211 277 1240 1241 276 
1212 1085 1243 1244 1242 
1213 279 1242 1244 278 
1214 277 278 1244 1240 
1215 1079 1240 1244 1243 
1216 7 1138 1246 246 
1217 245 246 1246 1245 
1218 1085 1245 1246 1243 
1219 1079 1243 1246 1138 
1220 1090 1248 1249 1247 
1221 211 1247 1249 210 
1222 209 210 1249 1207 
1223 1067 1207 1249 1248 
1224 1084 1251 1252 1159 
1225 9 1159 1252 124 
1226 123 124 1252 1250 
1227 1052 1250 1252 1251 
1228 1086 1098 1255 1101 
1229 1068 1101 1255 1253 
1230 1047 1253 1255 1254 
1231 17 1254 1255 1098 
1232 1046 1257 1258 1256 
1233 1051 1256 1258 1104 
1234 168 1104 1258 167 
1235 11 167 1258 1257 
1236 245 1245 1260 244 
1237 17 244 1260 1254 
1238 1047 1254 1260 1259 
1239 1085 1259 1260 1245 
1240 1052 1177 1262 1250 
1241 123 1250 1262 122 
1242 121 122 1262 1261 
1243 1053 1261 1262 1177 
1244 1049 1264 1265 1160 
1245 1084 1160 1265 1263 
1246 179 1263 1265 178 
1247 177 178 1265 1264 
1248 18 250 1267 249 
1249 248 249 1267 1213 
1250 1059 1213 1267 1266 
1251 251 1266 1267 250 
1252 279 280 1269 1242 
1253 1085 1242 1269 1259 
1254 1047 1259 1269 1268 
1255 19 1268 1269 280 
1256 235 236 1271 1270 
1257 31 1270 1271 32 
1258 33 32 1271 1231 
1259 237 1231 1271 236 
1260 1053 1169 1273 1261 
1261 121 1261 1273 120 
1262 119 120 1273 1272 
1263 1054 1272 1273 1169 
1264 38 1275 1276 39 
1265 5 39 1276 1102 
1266 1086 1102 1276 1274 
1267 1081 1274 1276 1275 
1268 12 174 1277 1164 
1269 1082 1164 1277 1216 
1270 1048 1216 1277 1107 
1271 175 1107 1277 174 
1272 1046 1256 1278 1229 
1273 15 1229 1278 229 
1274 228 229 1278 1093 
1275 1051 1093 1278 1256 
1276 28 1280 1281 29 
1277 3 29 1281 1279 
1278 1080 1279 1281 1112 
1279 1044 1112 1281 1280 
1280 1054 1202 1283 1272 
1281 119 1272 1283 118 
1282 117 118 1283 1282 
1283 1055 1282 1283 1202 
1284 1045 1092 1284 1162 
1285 172 1162 1284 171 
1286 170 171 1284 1105 
1287 1051 1105 1284 1092 
1288 259 1286 1287 258 
1289 257 258 1287 1151 
1290 1077 1151 1287 1285 
1291 1089 1285 1287 1286 
1292 1055 1186 1289 1282 
1293 117 1282 1289 116 
1294 115 116 1289 1288 
1295 1056 1288 1289 1186 
1296 181 1176 1290 180 
1297 179 180 1290 1263 
1298 1084 1263 1290 1251 
1299 1052 1251 1290 1176 
1300 1050 1292 1293 1291 
1301 10 1291 1293 219 
1302 218 219 1293 1095 
1303 215 1095 1293 1292 
1304 1056 1204 1295 1288 
1305 115 1288 1295 114 
1306 113 114 1295 1294 
1307 1057 1294 1295 1204 
1308 91 92 1299 1296 
1309 1069 1296 1299 1297 
1310 1090 1297 1299 1298 
1311 93 1298 1299 92 
1312 165 1300 1301 164 
1313 2 164 1301 27 
1314 28 27 1301 1280 
1315 1044 1280 1301 1300 
1316 63 64 1304 1132 
1317 1076 1132 1304 1302 
1318 1089 1302 1304 1303 
1319 65 1303 1304 64 
1320 231 232 1306 1228 
1321 1080 1228 1306 1279 
1322 3 1279 1306 1305 
1323 233 1305 1306 232 
1324 31 30 1307 1270 
1325 235 1270 1307 234 
1326 233 234 1307 1305 
1327 3 1305 1307 30 
1328 1057 1194 1309 1294 
1329 113 1294 1309 112 
1330 111 112 1309 1308 
1331 1058 1308 1309 1194 
1332 1089 1303 1310 1285 
1333 1077 1285 1310 1134 
1334 67 1134 1310 66 
1335 65 66 1310 1303 
1336 251 252 1312 1266 
1337 1059 1266 1312 1235 
1338 1087 1235 1312 1311 
1339 253 1311 1312 252 
1340 1078 1238 1313 1150 
1341 255 1150 1313 254 
1342 253 254 1313 1311 
1343 1087 1311 1313 1238 
1344 1058 1200 1315 1308 
1345 111 1308 1315 110 
1346 109 110 1315 1314 
1347 1060 1314 1315 1200 
1348 1060 1198 1317 1314 
1349 109 1314 1317 108 
1350 107 108 1317 1316 
1351 1061 1316 1317 1198 
1352 1061 1190 1319 1316 
1353 107 1316 1319 106 
1354 105 106 1319 1318 
1355 1062 1318 1319 1190 
1356 1062 1209 1321 1318 
1357 105 1318 1321 104 
1358 103 104 1321 1320 
1359 1063 1320 1321 1209 
1360 259 260 1322 1286 
1361 1089 1286 1322 1302 
1362 1076 1302 1322 1156 
1363 261 1156 1322 260 
1364 211 212 1324 1247 
1365 1090 1247 1324 1297 
1366 1069 1297 1324 1323 
1367 213 1323 1324 212 
1368 1063 1183 1326 1320 
1369 103 1320 1326 102 
1370 101 102 1326 1325 
1371 1064 1325 1326 1183 
1372 1064 1180 1328 1325 
1373 101 1325 1328 100 
1374 99 100 1328 1327 
1375 1065 1327 1328 1180 
1376 11 1257 1329 166 
1377 165 166 1329 1300 
1378 1044 1300 1329 1111 
1379 1046 1111 1329 1257 
1380 1065 1173 1331 1327 
1381 99 1327 1331 98 
1382 97 98 1331 1330 
1383 1066 1330 1331 1173 
1384 1083 1109 1332 1144 
1385 1049 1144 1332 1264 
1386 177 1264 1332 176 
1387 175 176 1332 1109 
1388 1066 1206 1334 1330 
1389 97 1330 1334 96 
1390 95 96 1334 1333 
1391 1067 1333 1334 1206 
1392 213 214 1336 1323 
1393 1069 1323 1336 1335 
1394 1050 1335 1336 1292 
1395 215 1292 1336 214 
1396 1068 1253 1337 1221 
1397 282 1221 1337 281 
1398 19 281 1337 1268 
1399 1047 1268 1337 1253 
1400 93 94 1338 1298 
1401 1090 1298 1338 1248 
1402 1067 1248 1338 1333 
1403 95 1333 1338 94 
1404 242 1097 1340 241 
1405 16 241 1340 1339 
1406 1081 1339 1340 1274 
1407 1086 1274 1340 1097 
1408 4 1154 1341 37 
1409 38 37 1341 1275 
1410 1081 1275 1341 1339 
1411 16 1339 1341 1154 
1412 1050 1291 1342 1335 
1413 1069 1335 1342 1296 
1414 91 1296 1342 90 
1415 10 90 1342 1291 
2 4 3 112
1416 1354 1361 1362 1359 
1417 1344 1359 1362 1360 
1418 1355 1360 1362 1361 
1419 245 1365 1366 1363 
1420 1345 1363 1366 1364 
1421 1358 1364 1366 1365 
1422 9 89 1368 220 
1423 221 220 1368 1367 
1424 88 1367 1368 89 
1425 228 1370 1371 229 
1426 15 229 1371 1369 
1427 1343 1369 1371 1370 
1428 1344 1374 1375 1372 
1429 1349 1372 1375 1373 
1430 233 1373 1375 234 
1431 235 234 1375 1374 
1432 1345 1376 1377 1363 
1433 245 1363 1377 246 
1434 7 246 1377 75 
1435 76 75 1377 1376 
1436 80 1380 1381 81 
1437 82 81 1381 1378 
1438 1348 1378 1381 1379 
1439 1350 1379 1381 1380 
1440 221 1367 1384 222 
1441 223 222 1384 1382 
1442 1353 1382 1384 1383 
1443 88 1383 1384 1367 
1444 233 232 1387 1373 
1445 1349 1373 1387 1385 
1446 1357 1385 1387 1386 
1447 231 1386 1387 232 
1448 231 230 1389 1386 
1449 1357 1386 1389 1388 
1450 1343 1388 1389 1369 
1451 15 1369 1389 230 
1452 1357 1388 1393 1390 
1453 1348 1390 1393 1391 
1454 1356 1391 1393 1392 
1455 1343 1392 1393 1388 
1456 86 85 1397 1394 
1457 1352 1394 1397 1395 
1458 1356 1395 1397 1396 
1459 84 1396 1397 85 
1460 1344 1360 1399 1374 
1461 235 1374 1399 236 
1462 237 236 1399 1398 
1463 1355 1398 1399 1360 
1464 82 1378 1400 83 
1465 84 83 1400 1396 
1466 1356 1396 1400 1391 
1467 1348 1391 1400 1378 
1468 1345 1402 1403 1376 
1469 76 1376 1403 77 
1470 78 77 1403 1401 
1471 1354 1401 1403 1402 
1472 1354 1402 1405 1361 
1473 1355 1361 1405 1404 
1474 1358 1404 1405 1364 
1475 1345 1364 1405 1402 
1476 78 1401 1407 79 
1477 80 79 1407 1380 
1478 1350 1380 1407 1406 
1479 1354 1406 1407 1401 
1480 239 238 1410 1408 
1481 1346 1408 1410 1409 
1482 1355 1409 1410 1398 
1483 237 1398 1410 238 
1484 1352 1412 1413 1411 
1485 1353 1411 1413 1382 
1486 223 1382 1413 224 
1487 225 224 1413 1412 
1488 1346 1415 1416 1408 
1489 239 1408 1416 240 
1490 16 240 1416 1414 
1491 1351 1414 1416 1415 
1492 225 1412 1419 226 
1493 14 226 1419 1417 
1494 1347 1417 1419 1418 
1495 1352 1418 1419 1412 
1496 1349 1385 1421 1420 
1497 1350 1420 1421 1379 
1498 1348 1379 1421 1390 
1499 1357 1390 1421 1385 
1500 1347 1422 1423 1417 
1501 14 1417 1423 227 
1502 228 227 1423 1370 
1503 1343 1370 1423 1422 
1504 1351 1425 1426 1424 
1505 17 1424 1426 244 
1506 245 244 1426 1365 
1507 1358 1365 1426 1425 
1508 1344 1372 1427 1359 
1509 1354 1359 1427 1406 
1510 1350 1406 1427 1420 
1511 1349 1420 1427 1372 
1512 242 241 1428 243 
1513 17 243 1428 1424 
1514 1351 1424 1428 1414 
1515 16 1414 1428 241 
1516 1356 1392 1429 1395 
1517 1352 1395 1429 1418 
1518 1347 1418 1429 1422 
1519 1343 1422 1429 1392 
1520 1346 1409 1430 1415 
1521 1351 1415 1430 1425 
1522 1358 1425 1430 1404 
1523 1355 1404 1430 1409 
1524 1353 1383 1431 1411 
1525 1352 1411 1431 1394 
1526 86 1394 1431 87 
1527 88 87 1431 1383 
$EndElements
