$MeshFormat
4.1 0 8
$EndMeshFormat
$PhysicalNames
5
0 20 "PointsBoundary"
1 10 "CurveFixed"
1 11 "CurveFree"
2 1 "SurfaceBody"
2 2 "SurfaceCover"
$EndPhysicalNames
$Entities
24 26 4 0
1 0 1.005 0 1 20 
2 0.7399999999999999 1.005 0 0 
3 -8.673617379884035e-17 0.09137851025325977 0 1 20 
4 0.734189069758953 0.7074362879023949 0 0 
5 0.7627173271455574 0.7659278836157133 0 0 
6 0.769981724810573 0.9739530150989246 0 0 
7 0 1.075 0 1 20 
8 0 0 0 1 20 
9 0.7791842024370113 0.6538131768840668 0 1 20 
10 0.832674685036894 0.7634849188465378 0 1 20 
11 0.8399390827019098 0.9715100503297498 0 1 20 
12 0.7400000000000002 1.075 0 1 20 
13 1.685 1.005 0 1 20 
14 0.9450000000000002 1.005 0 0 
15 0.9150182751894271 0.9739530150989246 0 0 
16 0.9222826728544427 0.7659278836157133 0 0 
17 0.9508109302410471 0.7074362879023949 0 0 
18 1.685 0.09137851025325977 0 1 20 
19 1.685 1.075 0 1 20 
20 0.945 1.075 0 1 20 
21 0.8450609172980905 0.9715100503297498 0 1 20 
22 0.852325314963106 0.7634849188465378 0 1 20 
23 0.9058157975629888 0.6538131768840668 0 1 20 
24 1.685 0 0 1 20 
1 -1.000000000028756e-07 1.0049999 -1e-07 0.7400000999999998 1.0050001 1e-07 0 2 1 -2 
2 -1e-07 0.09137841025325977 -1e-07 1e-07 1.0050001 1e-07 1 10 2 1 -3 
3 -1.000000000028756e-07 0.09137841025326016 -1e-07 0.7341891697589529 0.707436387902395 1e-07 0 2 4 -3 
4 0.7341889697589531 0.7074361879023949 -1e-07 0.7627174271455573 0.7659279836157132 1e-07 0 2 5 -4 
5 0.7627172271455575 0.7659277836157133 -1e-07 0.769981824810573 0.9739531150989246 1e-07 0 2 6 -5 
6 0.7399998999999999 0.9739529150989247 -1e-07 0.7700001000000002 1.0050001 1e-07 0 2 2 -6 
7 -1e-07 1.0049999 -1e-07 1e-07 1.0750001 1e-07 1 10 2 7 -1 
8 -1e-07 -1.000000000028756e-07 -1e-07 1e-07 0.09137861025325977 1e-07 1 10 2 3 -8 
9 -9.999999989185326e-08 -9.999999989185326e-08 -1e-07 0.7791843024370112 0.6538132768840668 1e-07 1 11 2 8 -9 
10 0.7791841024370113 0.6538130768840669 -1e-07 0.8326747850368938 0.7634850188465377 1e-07 1 11 2 9 -10 
11 0.8326745850368941 0.7634848188465378 -1e-07 0.8399391827019095 0.9715101503297497 1e-07 1 11 2 10 -11 
12 0.7399999000000003 0.9715099503297498 -1e-07 0.8400001000000001 1.0750001 1e-07 1 11 2 11 -12 
13 -1.000000000028756e-07 1.0749999 -1e-07 0.7400001000000002 1.0750001 1e-07 1 11 2 12 -7 
14 0.9449999000000002 1.0049999 -1e-07 1.6850001 1.0050001 1e-07 0 2 13 -14 
15 0.9149999 0.9739529150989247 -1e-07 0.9450001000000001 1.0050001 1e-07 0 2 14 -15 
16 0.9150181751894272 0.7659277836157133 -1e-07 0.9222827728544427 0.9739531150989246 1e-07 0 2 15 -16 
17 0.9222825728544428 0.7074361879023949 -1e-07 0.9508110302410471 0.7659279836157132 1e-07 0 2 16 -17 
18 0.9508108302410473 0.09137841025326005 -1e-07 1.6850001 0.7074363879023949 1e-07 0 2 17 -18 
19 1.6849999 0.09137841025325977 -1e-07 1.6850001 1.0050001 1e-07 1 10 2 13 -18 
20 1.6849999 1.0049999 -1e-07 1.6850001 1.0750001 1e-07 1 10 2 19 -13 
21 0.9449999 1.0749999 -1e-07 1.6850001 1.0750001 1e-07 1 11 2 20 -19 
22 0.8449999 0.9715099503297498 -1e-07 0.9450000999999999 1.0750001 1e-07 1 11 2 21 -20 
23 0.8450608172980906 0.7634848188465378 -1e-07 0.852325414963106 0.9715101503297497 1e-07 1 11 2 22 -21 
24 0.8523252149631062 0.6538130768840669 -1e-07 0.9058158975629887 0.7634850188465377 1e-07 1 11 2 23 -22 
25 0.905815697562989 -1.000000000028756e-07 -1e-07 1.6850001 0.6538132768840669 1e-07 1 11 2 24 -23 
26 1.6849999 -1.000000000028756e-07 -1e-07 1.6850001 0.09137861025325977 1e-07 1 10 2 18 -24 
1 -1.000000000028756e-07 0.09137841025325977 -1e-07 0.7700001000000002 1.0050001 1e-07 1 1 6 6 5 4 3 -2 1 
2 -1.000000000028756e-07 -9.999999994736442e-08 -1e-07 0.8400001000000001 1.0750001 1e-07 1 2 12 -13 -12 -11 -10 -9 -8 -3 -4 -5 -6 -1 -7 
3 0.9149999 0.09137841025325977 -1e-07 1.6850001 1.0050001 1e-07 1 1 6 19 -18 -17 -16 -15 -14 
4 0.8449999 -9.999999994736442e-08 -1e-07 1.6850001 1.0750001 1e-07 1 2 12 14 15 16 17 18 26 25 24 23 22 21 20 
$EndEntities
$Nodes
54 362 1 362
0 1 0 1
1
0 1.005 0
0 2 0 1
2
0.7399999999999999 1.005 0
0 3 0 1
3
-8.673617379884035e-17 0.09137851025325977 0
0 4 0 1
4
0.734189069758953 0.7074362879023949 0
0 5 0 1
5
0.7627173271455574 0.7659278836157133 0
0 6 0 1
6
0.769981724810573 0.9739530150989246 0
0 7 0 1
7
0 1.075 0
0 8 0 1
8
0 0 0
0 9 0 1
9
0.7791842024370113 0.6538131768840668 0
0 10 0 1
10
0.832674685036894 0.7634849188465378 0
0 11 0 1
11
0.8399390827019098 0.9715100503297498 0
0 12 0 1
12
0.7400000000000002 1.075 0
0 13 0 1
13
1.685 1.005 0
0 14 0 1
14
0.9450000000000002 1.005 0
0 15 0 1
15
0.9150182751894271 0.9739530150989246 0
0 16 0 1
16
0.9222826728544427 0.7659278836157133 0
0 17 0 1
17
0.9508109302410471 0.7074362879023949 0
0 18 0 1
18
1.685 0.09137851025325977 0
0 19 0 1
19
1.685 1.075 0
0 20 0 1
20
0.945 1.075 0
0 21 0 1
21
0.8450609172980905 0.9715100503297498 0
0 22 0 1
22
0.852325314963106 0.7634849188465378 0
0 23 0 1
23
0.9058157975629888 0.6538131768840668 0
0 24 0 1
24
1.685 0 0
1 1 0 7
25
26
27
28
29
30
31
0.09249999999999992 1.005 0
0.1849999999999998 1.005 0
0.2774999999999996 1.005 0
0.3699999999999993 1.005 0
0.4624999999999993 1.005 0
0.5549999999999995 1.005 0
0.6474999999999997 1.005 0
1 2 0 11
32
33
34
35
36
37
38
39
40
41
42
0 0.9288648758544384 0
0 0.8527297517088767 0
0 0.7765946275633149 0
0 0.7004595034177531 0
0 0.6243243792721912 0
0 0.5481892551266293 0
0 0.4720541309810676 0
0 0.395919006835506 0
0 0.3197838826899444 0
0 0.2436487585443829 0
0 0.1675136343988213 0
1 3 0 11
43
44
45
46
47
48
49
50
51
52
53
0.6730066472790401 0.6560981397649672 0
0.6118242247991275 0.6047599916275394 0
0.5506418023192148 0.5534218434901115 0
0.489459379839302 0.5020836953526835 0
0.4282769573593892 0.4507455472152555 0
0.3670945348794766 0.3994073990778277 0
0.3059121123995641 0.3480692509404 0
0.2447296899196515 0.2967311028029722 0
0.1835472674397389 0.2453929546655444 0
0.1223648449598265 0.1940548065281168 0
0.06118242247991335 0.1427166583906886 0
1 4 0 1
54
0.7546695846879632 0.7336501516087871 0
1 5 0 3
55
56
57
0.7681656253943191 0.9219467322281217 0
0.7663495259780652 0.8699404493573187 0
0.7645334265618113 0.8179341664865161 0
1 6 0 1
58
0.7680074127949164 0.9857510384863588 0
1 7 0 1
59
0 1.04 0
1 8 0 1
60
0 0.04568925512662984 0
1 9 0 11
61
62
63
64
65
66
67
68
69
70
71
0.06493201686975114 0.05448443140700587 0
0.1298640337395022 0.1089688628140115 0
0.1947960506092532 0.1634532942210171 0
0.2597280674790041 0.2179377256280227 0
0.3246600843487552 0.2724221570350283 0
0.389592101218506 0.3269065884420339 0
0.4545241180882572 0.3813910198490396 0
0.5194561349580084 0.4358754512560453 0
0.5843881518277595 0.4903598826630511 0
0.6493201686975103 0.5448443140700566 0
0.7142521855672608 0.5993287454770617 0
1 10 0 3
72
73
74
0.8009676740250383 0.6763706220530648 0
0.8175851679289048 0.7029641713335517 0
0.8283104199254291 0.732431559011963 0
1 11 0 3
75
76
77
0.8344907844531478 0.8154912017173408 0
0.8363068838694018 0.8674974845881439 0
0.8381229832856556 0.9195037674589469 0
1 12 0 3
78
79
80
0.8333580426497204 1.01083679495453 0
0.8119339800338653 1.0444658370459 0
0.7790731128489276 1.067050485345244 0
1 13 0 7
81
82
83
84
85
86
87
0.6475000000000003 1.075 0
0.5550000000000004 1.075 0
0.4625000000000005 1.075 0
0.3700000000000008 1.075 0
0.2775000000000008 1.075 0
0.1850000000000005 1.075 0
0.09250000000000021 1.075 0
1 14 0 7
88
89
90
91
92
93
94
1.5925 1.005 0
1.5 1.005 0
1.407500000000001 1.005 0
1.315000000000001 1.005 0
1.222500000000001 1.005 0
1.130000000000001 1.005 0
1.0375 1.005 0
1 15 0 1
95
0.9169925872050838 0.9857510384863588 0
1 16 0 3
96
97
98
0.9168343746056811 0.9219467322281217 0
0.918650474021935 0.8699404493573187 0
0.9204665734381888 0.8179341664865161 0
1 17 0 1
99
0.9303304153120369 0.7336501516087871 0
1 18 0 11
100
101
102
103
104
105
106
107
108
109
110
1.01199335272096 0.6560981397649672 0
1.073175775200873 0.6047599916275392 0
1.134358197680785 0.5534218434901113 0
1.195540620160698 0.5020836953526835 0
1.256723042640611 0.4507455472152554 0
1.317905465120524 0.3994073990778277 0
1.379087887600436 0.3480692509403999 0
1.440270310080349 0.2967311028029722 0
1.501452732560261 0.2453929546655444 0
1.562635155040174 0.1940548065281167 0
1.623817577520087 0.1427166583906885 0
1 19 0 11
111
112
113
114
115
116
117
118
119
120
121
1.685 0.9288648758544384 0
1.685 0.8527297517088767 0
1.685 0.7765946275633149 0
1.685 0.7004595034177531 0
1.685 0.6243243792721912 0
1.685 0.5481892551266293 0
1.685 0.4720541309810676 0
1.685 0.395919006835506 0
1.685 0.3197838826899444 0
1.685 0.2436487585443829 0
1.685 0.1675136343988213 0
1 20 0 1
122
1.685 1.04 0
1 21 0 7
123
124
125
126
127
128
129
1.0375 1.075 0
1.13 1.075 0
1.2225 1.075 0
1.315 1.075 0
1.407499999999999 1.075 0
1.5 1.075 0
1.5925 1.075 0
1 22 0 3
130
131
132
0.8516419573502798 1.01083679495453 0
0.8730660199661349 1.044465837045899 0
0.9059268871510726 1.067050485345244 0
1 23 0 3
133
134
135
0.8505092155468522 0.8154912017173408 0
0.8486931161305983 0.8674974845881439 0
0.8468770167143445 0.9195037674589468 0
1 24 0 3
136
137
138
0.8840323259749617 0.6763706220530648 0
0.8674148320710953 0.7029641713335517 0
0.856689580074571 0.732431559011963 0
1 25 0 11
139
140
141
142
143
144
145
146
147
148
149
1.620067983130249 0.05448443140700565 0
1.555135966260498 0.1089688628140113 0
1.490203949390747 0.163453294221017 0
1.425271932520996 0.2179377256280225 0
1.360339915651245 0.2724221570350281 0
1.295407898781494 0.3269065884420338 0
1.230475881911743 0.3813910198490396 0
1.165543865041992 0.4358754512560453 0
1.100611848172241 0.4903598826630511 0
1.03567983130249 0.5448443140700565 0
0.9707478144327393 0.5993287454770617 0
1 26 0 1
150
1.685 0.04568925512662984 0
2 1 0 75
151
152
153
154
155
156
157
158
159
160
161
162
163
164
165
166
167
168
169
170
171
172
173
174
175
176
177
178
179
180
181
182
183
184
185
186
187
188
189
190
191
192
193
194
195
196
197
198
199
200
201
202
203
204
205
206
207
208
209
210
211
212
213
214
215
216
217
218
219
220
221
222
223
224
225
0.3963047482291271 0.6306187659925857 0
0.6985720450876898 0.7765906710242463 0
0.1569334471225797 0.8404494513208922 0
0.2729391272361658 0.5263383400635 0
0.4530600399262941 0.8395795146994912 0
0.6688982721939948 0.8894937141671517 0
0.1448398992235275 0.4029388446840891 0
0.09757869080205495 0.5401096449014984 0
0.6161026343885599 0.7814540948958499 0
0.5095934898880417 0.7163276915893949 0
0.1614340037951438 0.6685730314036139 0
0.5699378827031807 0.8834098023614853 0
0.3086362832487647 0.7901267030575244 0
0.423245777333685 0.9061662521901128 0
0.3285677458342744 0.892446978421965 0
0.3921263762298471 0.8139452290906344 0
0.3799383091491811 0.87332337287799 0
0.6478857876155256 0.8407165470649224 0
0.6222978272130683 0.8920564225286837 0
0.5852004342349026 0.8330850365242313 0
0.6185243356270259 0.8540721594495655 0
0.2057589987002149 0.3480371579896868 0
0.1258353369837356 0.3030727479446489 0
0.1713486796633144 0.2985349201698246 0
0.05297368644642775 0.2325425775786905 0
0.03897020343188706 0.1793978498745965 0
0.6158676609897741 0.7054196371890475 0
0.5586013693968551 0.7494246620266583 0
0.5480201149623534 0.6635677687821919 0
0.5758865227485267 0.704342750590951 0
0.1522918981020838 0.7640506426390974 0
0.2404115204562267 0.7198856066898208 0
0.2284615487859104 0.8262998972320277 0
0.2076501844920575 0.7687718971297891 0
0.08012793037442434 0.846804247103688 0
0.1698454553139657 0.9204862942587728 0
0.08556441622830624 0.9254448025507537 0
0.05650452525312477 0.5434587032241851 0
0.1208613914308837 0.5853411567036172 0
0.07308075585133667 0.6871356136036413 0
0.06330724308374058 0.6114666682299916 0
0.07742476288106936 0.7675745592923446 0
0.1163313987962118 0.491607560128714 0
0.06476752369236094 0.39638575844035 0
0.05979390349809199 0.4745114261722382 0
0.4418216883906056 0.5652754858330036 0
0.3342723680801646 0.5804136938392251 0
0.3201801559298909 0.4619352301064944 0
0.3811871614362702 0.5145967490449733 0
0.5120007864980017 0.8646868759352062 0
0.5613619133980876 0.9414099128632193 0
0.4888702357379645 0.9306624256307786 0
0.3535834296239181 0.7014341241835526 0
0.4560288730588389 0.6761115177289518 0
0.4793850075968159 0.7760390820179839 0
0.4191231427674613 0.7426292008169368 0
0.2130818616653786 0.4696636505788288 0
0.2599081060309676 0.4067454022051019 0
0.5349805505828436 0.8056187947934756 0
0.2238665226121032 0.5928971663601466 0
0.2868729231525365 0.6503785218909219 0
0.5000058725252194 0.6141923217452562 0
0.2524285362011365 0.9107273634654893 0
0.06287070421047369 0.311677713696457 0
0.7197100243004996 0.8103551929412023 0
0.7121920585037966 0.8798040483347626 0
0.6691306420329322 0.7760838973616484 0
0.6874129097836766 0.8276716572507389 0
0.6919853407446405 0.9425122011656862 0
0.7355385312124222 0.933233792669776 0
0.6317361150474612 0.9454558885330251 0
0.7076026860400577 0.7449669427139163 0
0.6660461312446213 0.7196234183657176 0
0.7379411806196896 0.7778294175201155 0
0.1686912668909257 0.5347339021864461 0
2 2 0 31
226
227
228
229
230
231
232
233
234
235
236
237
238
239
240
241
242
243
244
245
246
247
248
249
250
251
252
253
254
255
256
0.7800559662491836 0.7056918302007219 0
0.7441355993843471 0.6649106779841754 0
0.7757049845554961 0.6842543891210713 0
0.7181120251414013 1.041469147976143 0
0.7757300886687839 1.023685347027479 0
0.7597667810983205 1.043207778759732 0
0.8011732896324339 0.8686654888194802 0
0.8015995799195962 0.9634310566256187 0
0.8025591831334135 0.9191696303179187 0
0.7957133838722898 0.7721196811369373 0
0.7991563623559256 0.8179375351977047 0
0.1849997104919188 1.040000018385435 0
0.09249995806242839 1.040000002652613 0
0.5543735819122723 1.04004183587007 0
0.6437581875970743 1.040251001451397 0
0.3699842380525615 1.040001032145329 0
0.4623951970778094 1.04000697409018 0
0.2774975049246523 1.040000162501743 0
0.6302123165104011 0.5743531097258998 0
0.6914830806053436 0.6250277806559547 0
0.5044486653962603 0.4689683112273513 0
0.567454719502695 0.5218157839284105 0
0.3783431502209098 0.3631567877002361 0
0.4413990971914032 0.4160665020447981 0
0.7887232783195944 0.7356355250401059 0
0.2522288768749572 0.2573344119931652 0
0.3152860738044995 0.3102456738535587 0
0.1261144393412631 0.1515118346608945 0
0.1891716587785973 0.2044231241438792 0
0.06305721967378186 0.09860054489757597 0
0.7932730452974244 0.996865142091328 0
2 3 0 75
257
258
259
260
261
262
263
264
265
266
267
268
269
270
271
272
273
274
275
276
277
278
279
280
281
282
283
284
285
286
287
288
289
290
291
292
293
294
295
296
297
298
299
300
301
302
303
304
305
306
307
308
309
310
311
312
313
314
315
316
317
318
319
320
321
322
323
324
325
326
327
328
329
330
331
1.282870519912893 0.6021686275083075 0
1.049111236435369 0.7489104334363526 0
1.503397263676016 0.6596438796393536 0
1.404815683507896 0.514988343666289 0
1.17312793367975 0.8542999605324351 0
1.021365310163778 0.933288245513578 0
1.505015497164046 0.8473532425255695 0
1.583066569367894 0.5375683542488301 0
1.599599518816412 0.2743659867787998 0
1.331074544327049 0.8528024765796672 0
1.039337718073985 0.855215317174286 0
1.545138872930804 0.4049247833683337 0
1.184072943154069 0.7084840468619076 0
1.329042078084407 0.7109724051855497 0
1.057101129460985 0.6929128968378102 0
1.135053612122953 0.6536129582628826 0
1.108921853188286 0.7352610493510332 0
1.100943747414308 0.691781331531921 0
1.232844636553563 0.6458384740848535 0
1.313365695091273 0.6526064406667522 0
1.261400404492971 0.7181702675949115 0
1.268017823330643 0.6728008154633722 0
1.241276222704492 0.5528336472933932 0
1.362092127602895 0.4559253092368785 0
1.341583824321627 0.5605899270274199 0
1.300436967105428 0.5049032685940678 0
1.555677422223667 0.5805231765968267 0
1.625923506442763 0.5421749454145443 0
1.602780635830133 0.6848048273418454 0
1.61627525545665 0.6091239085218521 0
1.485434406249907 0.3476009696921775 0
1.46934196043446 0.4648651473459025 0
1.425041822452579 0.4040904947503491 0
1.185259729382188 0.6024307799929365 0
1.594931554773493 0.8487360544019551 0
1.50515988621605 0.7635233847518816 0
1.596212796332426 0.767275478085329 0
1.502967625078016 0.9268652405281838 0
1.593831522740053 0.927407481633997 0
1.416429672831675 0.8494128352488847 0
1.324271116388574 0.9284542733116393 0
1.412824386688556 0.9274684467643252 0
1.566724349429356 0.4900451805897359 0
1.623876492484281 0.4007134620632107 0
1.62509316588257 0.4747190268365625 0
1.180893942495776 0.7870001805083952 0
1.103110821557375 0.8533566075826481 0
1.045136191789856 0.8022387210287407 0
1.110169093736497 0.793629601827355 0
1.157726158842356 0.9216404800418273 0
1.249511869927718 0.8546255071382555 0
1.238143764570117 0.9280875002768647 0
1.447127098193667 0.5789248622649441 0
1.404545947168565 0.691482508079487 0
1.377920545195805 0.6212595972850231 0
1.056778415403471 0.95195206502612 0
1.030400939896489 0.9023466128449227 0
1.088369918874256 0.90895024040193 0
1.333130390309319 0.7790902753540381 0
1.255689003172358 0.7837512422618182 0
0.988018070670363 0.7596587660123504 0
0.9787215034331355 0.8610658016062576 0
0.9828312871539981 0.8101830698660877 0
1.635572083717955 0.2621411672114873 0
1.583637383970673 0.2411555821751692 0
1.632349664926189 0.2025670663833969 0
0.977104517202847 0.9484125227421507 0
0.9750551538840309 0.9083629937678366 0
1.415701417325638 0.7698175166463068 0
1.579382549361473 0.3204775128036564 0
1.630185608155633 0.3271315202005478 0
0.9990291508153585 0.9749768247150151 0
1.537281614483391 0.2899862983305751 0
0.9975131060019461 0.709314156543293 0
1.509562969439208 0.528825837631631 0
2 4 0 31
332
333
334
335
336
337
338
339
340
341
342
343
344
345
346
347
348
349
350
351
352
353
354
355
356
357
358
359
360
361
362
0.9408712349698299 0.6649075383684244 0
0.9049574974464711 0.7056750339525346 0
0.9093024332821108 0.6842471570972537 0
0.9668879748614734 1.04146914797272 0
0.9092699114246152 1.023685346915854 0
0.9252332189191624 1.043207778738846 0
0.8838268826698336 0.8686652802519812 0
0.8834004260118518 0.9634310495005386 0
0.8824408484500605 0.9191695921667246 0
0.8892889175336798 0.7721168612338402 0
0.8858441692435994 0.8179368866946772 0
1.130626418087728 1.04004183587007 0
1.041241812403285 1.04025100145097 0
1.500000289508081 1.040000018385435 0
1.592500041937572 1.040000002652613 0
1.315015761947439 1.040001032145329 0
1.222604802922191 1.04000697409018 0
1.407502495075348 1.040000162501743 0
1.054788771681139 0.5743526525215146 0
0.993518999706442 0.6250268687663169 0
1.180551411735846 0.4689682787385984 0
1.117545527031942 0.5218156804950069 0
1.306656852337323 0.3631567865978608 0
1.243600916806346 0.4160664961154305 0
0.8962809385978479 0.7356303037973897 0
1.432771123164142 0.2573344119759116 0
1.369713926590809 0.3102456736825024 0
1.558885560658959 0.1515118346607944 0
1.495828341226763 0.2044231241415096 0
1.621942780326246 0.09860054489756342 0
0.8917269556234364 0.996865140986169 0
$EndNodes
$Elements
36 424 1 424
0 1 15 1
1 1 
0 3 15 1
2 3 
0 7 15 1
3 7 
0 8 15 1
4 8 
0 9 15 1
5 9 
0 10 15 1
6 10 
0 11 15 1
7 11 
0 12 15 1
8 12 
0 13 15 1
9 13 
0 18 15 1
10 18 
0 19 15 1
11 19 
0 20 15 1
12 20 
0 21 15 1
13 21 
0 22 15 1
14 22 
0 23 15 1
15 23 
0 24 15 1
16 24 
1 2 1 12
17 1 32 
18 32 33 
19 33 34 
20 34 35 
21 35 36 
22 36 37 
23 37 38 
24 38 39 
25 39 40 
26 40 41 
27 41 42 
28 42 3 
1 7 1 2
29 7 59 
30 59 1 
1 8 1 2
31 3 60 
32 60 8 
1 9 1 12
33 8 61 
34 61 62 
35 62 63 
36 63 64 
37 64 65 
38 65 66 
39 66 67 
40 67 68 
41 68 69 
42 69 70 
43 70 71 
44 71 9 
1 10 1 4
45 9 72 
46 72 73 
47 73 74 
48 74 10 
1 11 1 4
49 10 75 
50 75 76 
51 76 77 
52 77 11 
1 12 1 4
53 11 78 
54 78 79 
55 79 80 
56 80 12 
1 13 1 8
57 12 81 
58 81 82 
59 82 83 
60 83 84 
61 84 85 
62 85 86 
63 86 87 
64 87 7 
1 19 1 12
65 13 111 
66 111 112 
67 112 113 
68 113 114 
69 114 115 
70 115 116 
71 116 117 
72 117 118 
73 118 119 
74 119 120 
75 120 121 
76 121 18 
1 20 1 2
77 19 122 
78 122 13 
1 21 1 8
79 20 123 
80 123 124 
81 124 125 
82 125 126 
83 126 127 
84 127 128 
85 128 129 
86 129 19 
1 22 1 4
87 21 130 
88 130 131 
89 131 132 
90 132 20 
1 23 1 4
91 22 133 
92 133 134 
93 134 135 
94 135 21 
1 24 1 4
95 23 136 
96 136 137 
97 137 138 
98 138 22 
1 25 1 12
99 24 139 
100 139 140 
101 140 141 
102 141 142 
103 142 143 
104 143 144 
105 144 145 
106 145 146 
107 146 147 
108 147 148 
109 148 149 
110 149 23 
1 26 1 2
111 18 150 
112 150 24 
2 1 3 94
113 155 164 167 166 
114 28 165 167 164 
115 163 166 167 165 
116 159 168 171 170 
117 156 169 171 168 
118 162 170 171 169 
119 52 51 174 173 
120 50 172 174 51 
121 157 173 174 172 
122 41 42 176 175 
123 3 53 176 42 
124 52 175 176 53 
125 44 177 180 179 
126 159 178 180 177 
127 160 179 180 178 
128 153 181 184 183 
129 161 182 184 181 
130 163 183 184 182 
131 1 32 187 25 
132 33 185 187 32 
133 153 186 187 185 
134 26 25 187 186 
135 37 188 191 36 
136 158 189 191 188 
137 161 190 191 189 
138 35 36 191 190 
139 35 190 192 34 
140 161 181 192 190 
141 153 185 192 181 
142 33 34 192 185 
143 157 193 195 194 
144 158 188 195 193 
145 37 38 195 188 
146 39 194 195 38 
147 48 47 199 198 
148 46 196 199 47 
149 151 197 199 196 
150 154 198 199 197 
151 155 200 202 164 
152 162 201 202 200 
153 30 29 202 201 
154 28 164 202 29 
155 163 203 206 166 
156 151 204 206 203 
157 160 205 206 204 
158 155 166 206 205 
159 50 49 208 172 
160 48 198 208 49 
161 154 207 208 198 
162 157 172 208 207 
163 162 200 209 170 
164 155 205 209 200 
165 160 178 209 205 
166 159 170 209 178 
167 161 210 211 182 
168 154 197 211 210 
169 151 203 211 197 
170 163 182 211 203 
171 46 45 212 196 
172 44 179 212 45 
173 160 204 212 179 
174 151 196 212 204 
175 28 27 213 165 
176 26 186 213 27 
177 153 183 213 186 
178 163 165 213 183 
179 157 194 214 173 
180 39 40 214 194 
181 41 175 214 40 
182 52 173 214 175 
183 152 215 218 217 
184 56 216 218 215 
185 156 168 218 216 
186 159 217 218 168 
187 6 58 220 55 
188 2 219 220 58 
189 156 216 220 219 
190 56 55 220 216 
191 30 201 221 31 
192 162 169 221 201 
193 156 219 221 169 
194 2 31 221 219 
195 44 43 223 177 
196 4 222 223 43 
197 152 217 223 222 
198 159 177 223 217 
199 152 222 224 215 
200 4 54 224 222 
201 5 57 224 54 
202 56 215 224 57 
203 158 193 225 189 
204 157 207 225 193 
205 154 210 225 207 
206 161 189 225 210 
2 2 3 62
207 9 72 228 227 
208 73 226 228 72 
209 4 227 228 226 
210 79 80 231 230 
211 12 229 231 80 
212 2 230 231 229 
213 6 55 234 233 
214 56 232 234 55 
215 76 77 234 232 
216 11 233 234 77 
217 5 235 236 57 
218 10 75 236 235 
219 76 232 236 75 
220 56 57 236 232 
221 26 237 238 25 
222 86 87 238 237 
223 7 59 238 87 
224 1 25 238 59 
225 2 229 240 31 
226 12 81 240 229 
227 82 239 240 81 
228 30 31 240 239 
229 30 239 242 29 
230 82 83 242 239 
231 84 241 242 83 
232 28 29 242 241 
233 28 241 243 27 
234 84 85 243 241 
235 86 237 243 85 
236 26 27 243 237 
237 44 244 245 43 
238 70 71 245 244 
239 9 227 245 71 
240 4 43 245 227 
241 46 246 247 45 
242 68 69 247 246 
243 70 244 247 69 
244 44 45 247 244 
245 48 248 249 47 
246 66 67 249 248 
247 68 246 249 67 
248 46 47 249 246 
249 73 74 250 226 
250 10 235 250 74 
251 5 54 250 235 
252 4 226 250 54 
253 50 251 252 49 
254 64 65 252 251 
255 66 248 252 65 
256 48 49 252 248 
257 52 253 254 51 
258 62 63 254 253 
259 64 251 254 63 
260 50 51 254 251 
261 3 60 255 53 
262 8 61 255 60 
263 62 253 255 61 
264 52 53 255 253 
265 79 230 256 78 
266 2 58 256 230 
267 6 233 256 58 
268 11 78 256 233 
2 3 3 94
269 258 271 274 273 
270 101 272 274 271 
271 269 273 274 272 
272 269 275 278 277 
273 257 276 278 275 
274 270 277 278 276 
275 257 279 282 281 
276 103 104 282 279 
277 105 280 282 104 
278 260 281 282 280 
279 259 283 286 285 
280 264 284 286 283 
281 116 115 286 284 
282 114 285 286 115 
283 105 106 289 280 
284 107 287 289 106 
285 268 288 289 287 
286 260 280 289 288 
287 101 102 290 272 
288 103 279 290 102 
289 257 275 290 279 
290 269 272 290 275 
291 259 285 293 292 
292 114 113 293 285 
293 112 291 293 113 
294 263 292 293 291 
295 263 291 295 294 
296 112 111 295 291 
297 13 88 295 111 
298 89 294 295 88 
299 266 296 298 297 
300 263 294 298 296 
301 89 90 298 294 
302 91 297 298 90 
303 116 284 301 117 
304 264 299 301 284 
305 268 300 301 299 
306 118 117 301 300 
307 258 273 305 304 
308 269 302 305 273 
309 261 303 305 302 
310 267 304 305 303 
311 91 92 308 297 
312 93 306 308 92 
313 261 307 308 306 
314 266 297 308 307 
315 260 309 311 281 
316 259 310 311 309 
317 270 276 311 310 
318 257 281 311 276 
319 261 306 314 303 
320 93 312 314 306 
321 262 313 314 312 
322 267 303 314 313 
323 269 277 316 302 
324 270 315 316 277 
325 266 307 316 315 
326 261 302 316 307 
327 16 317 319 98 
328 258 304 319 317 
329 267 318 319 304 
330 97 98 319 318 
331 120 320 322 121 
332 265 321 322 320 
333 109 110 322 321 
334 18 121 322 110 
335 97 318 324 96 
336 267 313 324 318 
337 262 323 324 313 
338 15 96 324 323 
339 270 310 325 315 
340 259 292 325 310 
341 263 296 325 292 
342 266 315 325 296 
343 118 300 327 119 
344 268 326 327 300 
345 265 320 327 326 
346 120 119 327 320 
347 14 95 328 94 
348 15 323 328 95 
349 262 312 328 323 
350 93 94 328 312 
351 265 326 329 321 
352 268 287 329 326 
353 107 108 329 287 
354 109 321 329 108 
355 258 317 330 271 
356 16 99 330 317 
357 17 100 330 99 
358 101 271 330 100 
359 260 288 331 309 
360 268 299 331 288 
361 264 283 331 299 
362 259 309 331 283 
2 4 3 62
363 23 332 334 136 
364 17 333 334 332 
365 137 136 334 333 
366 14 335 337 336 
367 20 132 337 335 
368 131 336 337 132 
369 134 338 340 135 
370 97 96 340 338 
371 15 339 340 96 
372 21 135 340 339 
373 134 133 342 338 
374 22 341 342 133 
375 16 98 342 341 
376 97 338 342 98 
377 14 94 344 335 
378 93 343 344 94 
379 124 123 344 343 
380 20 335 344 123 
381 19 129 346 122 
382 128 345 346 129 
383 89 88 346 345 
384 13 122 346 88 
385 126 125 348 347 
386 124 343 348 125 
387 93 92 348 343 
388 91 347 348 92 
389 128 127 349 345 
390 126 347 349 127 
391 91 90 349 347 
392 89 345 349 90 
393 23 149 351 332 
394 148 350 351 149 
395 101 100 351 350 
396 17 332 351 100 
397 148 147 353 350 
398 146 352 353 147 
399 103 102 353 352 
400 101 350 353 102 
401 146 145 355 352 
402 144 354 355 145 
403 105 104 355 354 
404 103 352 355 104 
405 137 333 356 138 
406 17 99 356 333 
407 16 341 356 99 
408 22 138 356 341 
409 144 143 358 354 
410 142 357 358 143 
411 107 106 358 357 
412 105 354 358 106 
413 142 141 360 357 
414 140 359 360 141 
415 109 108 360 359 
416 107 357 360 108 
417 140 139 361 359 
418 24 150 361 139 
419 18 110 361 150 
420 109 359 361 110 
421 15 95 362 339 
422 14 336 362 95 
423 131 130 362 336 
424 21 339 362 130 
$EndElements
