$MeshFormat
4.1 0 8
$EndMeshFormat
$PhysicalNames
6
0 20 "PointsBoundary"
1 10 "CurveFixed"
1 11 "CurveFree"
2 1 "SurfaceBody"
2 2 "SurfaceCover"
2 3 "SurfaceLigament"
$EndPhysicalNames
$Entities
28 32 6 0
1 0.6409866686548704 1.005 0 0 
2 0.6274683848335565 0.617887000542507 0 0 
3 0 1.005 0 1 20 
4 -8.673617379884035e-17 0.09137851025325977 0 1 20 
5 0.7399999999999999 1.005 0 0 
6 0.734189069758953 0.7074362879023949 0 0 
7 0.7627173271455574 0.7659278836157133 0 0 
8 0.769981724810573 0.9739530150989246 0 0 
9 0 1.075 0 1 20 
10 0 0 0 1 20 
11 0.7791842024370113 0.6538131768840668 0 1 20 
12 0.832674685036894 0.7634849188465378 0 1 20 
13 0.8399390827019098 0.9715100503297498 0 1 20 
14 0.7400000000000002 1.075 0 1 20 
15 1.04901333134513 1.005 0 0 
16 1.062531615166443 0.617887000542507 0 0 
17 1.69 0.09137851025325977 0 1 20 
18 1.69 1.005 0 1 20 
19 0.9500000000000001 1.005 0 0 
20 0.920018275189427 0.9739530150989246 0 0 
21 0.9272826728544423 0.7659278836157133 0 0 
22 0.9558109302410469 0.7074362879023949 0 0 
23 1.69 1.075 0 1 20 
24 0.9499999999999998 1.075 0 1 20 
25 0.8500609172980902 0.9715100503297498 0 1 20 
26 0.8573253149631059 0.7634849188465378 0 1 20 
27 0.9108157975629887 0.6538131768840668 0 1 20 
28 1.69 0 0 1 20 
1 0.6274682848335564 0.6178869005425072 -1e-07 0.6409867686548704 1.0050001 1e-07 0 2 1 -2 
2 -1.000000000028756e-07 1.0049999 -1e-07 0.6409867686548704 1.0050001 1e-07 0 2 3 -1 
3 -1e-07 0.09137841025325977 -1e-07 1e-07 1.0050001 1e-07 1 10 2 3 -4 
4 -1.000000000028756e-07 0.09137841025326016 -1e-07 0.6274684848335564 0.6178871005425072 1e-07 0 2 2 -4 
5 0.6409865686548705 1.0049999 -1e-07 0.7400000999999998 1.0050001 1e-07 0 2 1 -5 
6 0.6274682848335565 0.6178869005425073 -1e-07 0.7341891697589529 0.707436387902395 1e-07 0 2 6 -2 
7 0.7341889697589531 0.7074361879023949 -1e-07 0.7627174271455573 0.7659279836157132 1e-07 0 2 7 -6 
8 0.7627172271455575 0.7659277836157133 -1e-07 0.769981824810573 0.9739531150989246 1e-07 0 2 8 -7 
9 0.7399998999999999 0.9739529150989247 -1e-07 0.7700001000000002 1.0050001 1e-07 0 2 5 -8 
10 -1e-07 1.0049999 -1e-07 1e-07 1.0750001 1e-07 1 10 2 9 -3 
11 -1e-07 -1.000000000028756e-07 -1e-07 1e-07 0.09137861025325977 1e-07 1 10 2 4 -10 
12 -9.999999989185326e-08 -9.999999989185326e-08 -1e-07 0.7791843024370112 0.6538132768840668 1e-07 1 11 2 10 -11 
13 0.7791841024370113 0.6538130768840669 -1e-07 0.8326747850368938 0.7634850188465377 1e-07 1 11 2 11 -12 
14 0.8326745850368941 0.7634848188465378 -1e-07 0.8399391827019095 0.9715101503297497 1e-07 1 11 2 12 -13 
15 0.7399999000000003 0.9715099503297498 -1e-07 0.8400001000000001 1.0750001 1e-07 1 11 2 13 -14 
16 -1.000000000028756e-07 1.0749999 -1e-07 0.7400001000000002 1.0750001 1e-07 1 11 2 14 -9 
17 1.049013231345129 0.6178869005425072 -1e-07 1.062531715166444 1.0050001 1e-07 0 2 15 -16 
18 1.062531515166443 0.09137841025326005 -1e-07 1.6900001 0.617887100542507 1e-07 0 2 16 -17 
19 1.6899999 0.09137841025325977 -1e-07 1.6900001 1.0050001 1e-07 1 10 2 18 -17 
20 1.049013231345129 1.0049999 -1e-07 1.6900001 1.0050001 1e-07 0 2 18 -15 
21 0.9499999000000001 1.0049999 -1e-07 1.04901343134513 1.0050001 1e-07 0 2 15 -19 
22 0.9199998999999999 0.9739529150989247 -1e-07 0.9500001 1.0050001 1e-07 0 2 19 -20 
23 0.9200181751894271 0.7659277836157133 -1e-07 0.9272827728544426 0.9739531150989246 1e-07 0 2 20 -21 
24 0.9272825728544427 0.707436187902395 -1e-07 0.9558110302410469 0.7659279836157132 1e-07 0 2 21 -22 
25 0.955810830241047 0.6178869005425071 -1e-07 1.062531715166444 0.7074363879023949 1e-07 0 2 22 -16 
26 1.6899999 1.0049999 -1e-07 1.6900001 1.0750001 1e-07 1 10 2 23 -18 
27 0.9499998999999999 1.0749999 -1e-07 1.6900001 1.0750001 1e-07 1 11 2 24 -23 
28 0.8499998999999999 0.9715099503297498 -1e-07 0.9500000999999998 1.0750001 1e-07 1 11 2 25 -24 
29 0.8500608172980905 0.7634848188465378 -1e-07 0.8573254149631059 0.9715101503297497 1e-07 1 11 2 26 -25 
30 0.8573252149631061 0.6538130768840669 -1e-07 0.9108158975629886 0.7634850188465377 1e-07 1 11 2 27 -26 
31 0.9108156975629889 -9.999999989185326e-08 -1e-07 1.6900001 0.6538132768840669 1e-07 1 11 2 28 -27 
32 1.6899999 -1.000000000028756e-07 -1e-07 1.6900001 0.09137861025325977 1e-07 1 10 2 17 -28 
1 -1.000000000028756e-07 0.09137841025325977 -1e-07 0.6409867686548704 1.0050001 1e-07 1 1 4 4 -3 2 1 
2 0.6274682848335564 0.6178869005425072 -1e-07 0.7700001000000002 1.0050001 1e-07 1 3 6 9 8 7 6 -1 5 
3 -1.000000000028756e-07 -9.999999994736442e-08 -1e-07 0.8400001000000001 1.0750001 1e-07 1 2 14 -16 -15 -14 -13 -12 -11 -4 -6 -7 -8 -9 -5 -2 -10 
4 1.049013231345129 0.09137841025325977 -1e-07 1.6900001 1.0050001 1e-07 1 1 4 -20 19 -18 -17 
5 0.9199998999999999 0.6178869005425071 -1e-07 1.062531715166444 1.0050001 1e-07 1 3 6 17 -25 -24 -23 -22 -21 
6 0.8499998999999999 -9.999999994736442e-08 -1e-07 1.6900001 1.0750001 1e-07 1 2 14 20 21 22 23 24 25 18 32 31 30 29 28 27 26 
$EndEntities
$Nodes
66 946 1 946
0 1 0 1
1
0.6409866686548704 1.005 0
0 2 0 1
2
0.6274683848335565 0.617887000542507 0
0 3 0 1
3
0 1.005 0
0 4 0 1
4
-8.673617379884035e-17 0.09137851025325977 0
0 5 0 1
5
0.7399999999999999 1.005 0
0 6 0 1
6
0.734189069758953 0.7074362879023949 0
0 7 0 1
7
0.7627173271455574 0.7659278836157133 0
0 8 0 1
8
0.769981724810573 0.9739530150989246 0
0 9 0 1
9
0 1.075 0
0 10 0 1
10
0 0 0
0 11 0 1
11
0.7791842024370113 0.6538131768840668 0
0 12 0 1
12
0.832674685036894 0.7634849188465378 0
0 13 0 1
13
0.8399390827019098 0.9715100503297498 0
0 14 0 1
14
0.7400000000000002 1.075 0
0 15 0 1
15
1.04901333134513 1.005 0
0 16 0 1
16
1.062531615166443 0.617887000542507 0
0 17 0 1
17
1.69 0.09137851025325977 0
0 18 0 1
18
1.69 1.005 0
0 19 0 1
19
0.9500000000000001 1.005 0
0 20 0 1
20
0.920018275189427 0.9739530150989246 0
0 21 0 1
21
0.9272826728544423 0.7659278836157133 0
0 22 0 1
22
0.9558109302410469 0.7074362879023949 0
0 23 0 1
23
1.69 1.075 0
0 24 0 1
24
0.9499999999999998 1.075 0
0 25 0 1
25
0.8500609172980902 0.9715100503297498 0
0 26 0 1
26
0.8573253149631059 0.7634849188465378 0
0 27 0 1
27
0.9108157975629887 0.6538131768840668 0
0 28 0 1
28
1.69 0 0
1 1 0 7
29
30
31
32
33
34
35
0.6392968831772061 0.9566108750678135 0
0.6376070976995419 0.9082217501356269 0
0.6359173122218776 0.8598326252034402 0
0.6342275267442133 0.8114435002712536 0
0.6325377412665492 0.7630543753390669 0
0.6308479557888849 0.7146652504068802 0
0.6291581703112207 0.6662761254746936 0
1 2 0 15
36
37
38
39
40
41
42
43
44
45
46
47
48
49
50
0.04006166679092937 1.005 0
0.08012333358185886 1.005 0
0.1201850003727882 1.005 0
0.1602466671637176 1.005 0
0.2003083339546471 1.005 0
0.2403700007455765 1.005 0
0.2804316675365058 1.005 0
0.3204933343274352 1.005 0
0.3605550011183645 1.005 0
0.4006166679092939 1.005 0
0.4406783347002236 1.005 0
0.4807400014911531 1.005 0
0.5208016682820825 1.005 0
0.5608633350730119 1.005 0
0.6009250018639412 1.005 0
1 3 0 19
51
52
53
54
55
56
57
58
59
60
61
62
63
64
65
66
67
68
69
0 0.9593189255126631 0
0 0.913637851025326 0
0 0.867956776537989 0
0 0.8222757020506519 0
0 0.7765946275633149 0
0 0.7309135530759778 0
0 0.6852324785886407 0
0 0.6395514041013035 0
0 0.5938703296139665 0
0 0.5481892551266293 0
0 0.5025081806392921 0
0 0.4568271061519553 0
0 0.4111460316646183 0
0 0.3654649571772814 0
0 0.3197838826899444 0
0 0.2741028082026075 0
0 0.2284217337152706 0
0 0.1827406592279337 0
0 0.1370595847405967 0
1 4 0 19
70
71
72
73
74
75
76
77
78
79
80
81
82
83
84
85
86
87
88
0.5960949655918787 0.5915615760280448 0
0.5647215463502009 0.5652361515135825 0
0.5333481271085231 0.5389107269991202 0
0.5019747078668453 0.5125853024846578 0
0.4706012886251674 0.4862598779701955 0
0.4392278693834896 0.4599344534557331 0
0.4078544501418117 0.4336090289412707 0
0.3764810309001339 0.4072836044268083 0
0.3451076116584559 0.3809581799123459 0
0.3137341924167781 0.3546327553978836 0
0.2823607731751003 0.3283073308834213 0
0.2509873539334225 0.3019819063689589 0
0.2196139346917447 0.2756564818544965 0
0.188240515450067 0.2493310573400344 0
0.1568670962083893 0.2230056328255721 0
0.1254936769667114 0.1966802083111098 0
0.09412025772503363 0.1703547837966474 0
0.06274683848335572 0.144029359282185 0
0.03137341924167791 0.1177039347677226 0
1 5 0 3
89
90
91
0.6657400014911528 1.005 0
0.6904933343274352 1.005 0
0.7152466671637175 1.005 0
1 6 0 3
92
93
94
0.7075088985276039 0.6850489660624232 0
0.6808287272962548 0.6626616442224512 0
0.6541485560649057 0.6402743223824793 0
1 7 0 3
95
96
97
0.7603897190861095 0.74936609170394 0
0.7546695846879632 0.7336501516087871 0
0.7458069212725676 0.7194669253258605 0
1 8 0 7
98
99
100
101
102
103
104
0.7690736751024461 0.9479498736635232 0
0.7681656253943191 0.9219467322281217 0
0.7672575756861921 0.8959435907927202 0
0.7663495259780652 0.8699404493573187 0
0.7654414762699382 0.8439373079219175 0
0.7645334265618113 0.8179341664865161 0
0.7636253768536844 0.7919310250511147 0
1 9 0 1
105
0.7615801940101598 0.99583975111377 0
1 10 0 3
106
107
108
0 1.0575 0
0 1.04 0
0 1.0225 0
1 11 0 3
109
110
111
0 0.0685338826899448 0
0 0.04568925512662984 0
0 0.02284462756331492 0
1 12 0 23
112
113
114
115
116
117
118
119
120
121
122
123
124
125
126
127
128
129
130
131
132
133
134
0.03246600843487557 0.02724221570350294 0
0.06493201686975114 0.05448443140700587 0
0.0973980253046266 0.08172664711050859 0
0.1298640337395022 0.1089688628140115 0
0.1623300421743776 0.1362110785175144 0
0.1947960506092532 0.1634532942210171 0
0.2272620590441287 0.1906955099245199 0
0.2597280674790041 0.2179377256280227 0
0.2921940759138796 0.2451799413315254 0
0.3246600843487552 0.2724221570350283 0
0.3571260927836306 0.299664372738531 0
0.389592101218506 0.3269065884420339 0
0.4220581096533816 0.3541488041455367 0
0.4545241180882572 0.3813910198490396 0
0.4869901265231327 0.4086332355525425 0
0.5194561349580084 0.4358754512560453 0
0.5519221433928839 0.4631176669595483 0
0.5843881518277595 0.4903598826630511 0
0.6168541602626351 0.5176020983665539 0
0.6493201686975103 0.5448443140700566 0
0.6817861771323855 0.5720865297735591 0
0.7142521855672608 0.5993287454770617 0
0.7467181940021359 0.6265709611805642 0
1 13 0 3
135
136
137
0.8009676740250383 0.6763706220530648 0
0.8175851679289048 0.7029641713335517 0
0.8283104199254291 0.732431559011963 0
1 14 0 7
138
139
140
141
142
143
144
0.833582734745021 0.7894880602819394 0
0.8344907844531478 0.8154912017173408 0
0.8353988341612748 0.8414943431527424 0
0.8363068838694018 0.8674974845881439 0
0.8372149335775287 0.8935006260235454 0
0.8381229832856556 0.9195037674589469 0
0.8390310329937826 0.9455069088943483 0
1 15 0 3
145
146
147
0.8333580426497204 1.01083679495453 0
0.8119339800338653 1.0444658370459 0
0.7790731128489276 1.067050485345244 0
1 16 0 15
148
149
150
151
152
153
154
155
156
157
158
159
160
161
162
0.6937500000000002 1.075 0
0.6475000000000003 1.075 0
0.6012500000000003 1.075 0
0.5550000000000004 1.075 0
0.5087500000000004 1.075 0
0.4625000000000005 1.075 0
0.4162500000000007 1.075 0
0.3700000000000008 1.075 0
0.3237500000000009 1.075 0
0.2775000000000008 1.075 0
0.2312500000000006 1.075 0
0.1850000000000005 1.075 0
0.1387500000000004 1.075 0
0.09250000000000021 1.075 0
0.0462500000000001 1.075 0
1 17 0 7
163
164
165
166
167
168
169
1.050703116822794 0.9566108750678135 0
1.052392902300458 0.9082217501356269 0
1.054082687778122 0.8598326252034402 0
1.055772473255786 0.8114435002712536 0
1.057462258733451 0.7630543753390669 0
1.059152044211115 0.7146652504068802 0
1.060841829688779 0.6662761254746936 0
1 18 0 19
170
171
172
173
174
175
176
177
178
179
180
181
182
183
184
185
186
187
188
1.093905034408121 0.5915615760280447 0
1.125278453649799 0.5652361515135824 0
1.156651872891477 0.53891072699912 0
1.188025292133155 0.5125853024846576 0
1.219398711374832 0.4862598779701953 0
1.25077213061651 0.459934453455733 0
1.282145549858188 0.4336090289412706 0
1.313518969099866 0.4072836044268082 0
1.344892388341544 0.3809581799123458 0
1.376265807583222 0.3546327553978834 0
1.407639226824899 0.3283073308834211 0
1.439012646066577 0.3019819063689588 0
1.470386065308255 0.2756564818544964 0
1.501759484549933 0.2493310573400342 0
1.533132903791611 0.223005632825572 0
1.564506323033288 0.1966802083111096 0
1.595879742274966 0.1703547837966471 0
1.627253161516644 0.1440293592821849 0
1.658626580758322 0.1177039347677225 0
1 19 0 19
189
190
191
192
193
194
195
196
197
198
199
200
201
202
203
204
205
206
207
1.69 0.9593189255126631 0
1.69 0.913637851025326 0
1.69 0.867956776537989 0
1.69 0.8222757020506519 0
1.69 0.7765946275633149 0
1.69 0.7309135530759778 0
1.69 0.6852324785886407 0
1.69 0.6395514041013035 0
1.69 0.5938703296139665 0
1.69 0.5481892551266293 0
1.69 0.5025081806392921 0
1.69 0.4568271061519553 0
1.69 0.4111460316646183 0
1.69 0.3654649571772814 0
1.69 0.3197838826899444 0
1.69 0.2741028082026075 0
1.69 0.2284217337152706 0
1.69 0.1827406592279337 0
1.69 0.1370595847405967 0
1 20 0 15
208
209
210
211
212
213
214
215
216
217
218
219
220
221
222
1.649938333209071 1.005 0
1.609876666418141 1.005 0
1.569814999627212 1.005 0
1.529753332836282 1.005 0
1.489691666045353 1.005 0
1.449629999254423 1.005 0
1.409568332463494 1.005 0
1.369506665672565 1.005 0
1.329444998881635 1.005 0
1.289383332090706 1.005 0
1.249321665299776 1.005 0
1.209259998508847 1.005 0
1.169198331717918 1.005 0
1.129136664926988 1.005 0
1.089074998136059 1.005 0
1 21 0 3
223
224
225
1.024259998508847 1.005 0
0.9995066656725647 1.005 0
0.9747533328362824 1.005 0
1 22 0 1
226
0.9284198059898402 0.9958397511137699 0
1 23 0 7
227
228
229
230
231
232
233
0.920926324897554 0.9479498736635232 0
0.921834374605681 0.9219467322281217 0
0.9227424243138079 0.8959435907927202 0
0.9236504740219349 0.8699404493573187 0
0.9245585237300619 0.8439373079219175 0
0.9254665734381887 0.8179341664865161 0
0.9263746231463157 0.7919310250511147 0
1 24 0 3
234
235
236
0.9296102809138905 0.74936609170394 0
0.9353304153120368 0.7336501516087871 0
0.9441930787274323 0.7194669253258607 0
1 25 0 3
237
238
239
0.982491101472396 0.685048966062423 0
1.009171272703745 0.6626616442224511 0
1.035851443935094 0.6402743223824792 0
1 26 0 3
240
241
242
1.69 1.0575 0
1.69 1.04 0
1.69 1.0225 0
1 27 0 15
243
244
245
246
247
248
249
250
251
252
253
254
255
256
257
0.9962499999999999 1.075 0
1.0425 1.075 0
1.08875 1.075 0
1.135 1.075 0
1.18125 1.075 0
1.2275 1.075 0
1.273749999999999 1.075 0
1.319999999999999 1.075 0
1.366249999999999 1.075 0
1.412499999999999 1.075 0
1.458749999999999 1.075 0
1.504999999999999 1.075 0
1.55125 1.075 0
1.5975 1.075 0
1.64375 1.075 0
1 28 0 3
258
259
260
0.8566419573502797 1.01083679495453 0
0.8780660199661348 1.044465837045899 0
0.9109268871510725 1.067050485345244 0
1 29 0 7
261
262
263
264
265
266
267
0.856417265254979 0.7894880602819394 0
0.8555092155468521 0.8154912017173408 0
0.8546011658387251 0.8414943431527424 0
0.8536931161305982 0.8674974845881439 0
0.8527850664224712 0.8935006260235454 0
0.8518770167143443 0.9195037674589469 0
0.8509689670062174 0.9455069088943483 0
1 30 0 3
268
269
270
0.8890323259749616 0.6763706220530648 0
0.8724148320710952 0.7029641713335517 0
0.8616895800745709 0.732431559011963 0
1 31 0 23
271
272
273
274
275
276
277
278
279
280
281
282
283
284
285
286
287
288
289
290
291
292
293
1.657533991565124 0.02724221570350305 0
1.625067983130249 0.05448443140700587 0
1.592601974695373 0.0817266471105087 0
1.560135966260498 0.1089688628140115 0
1.527669957825622 0.1362110785175144 0
1.495203949390747 0.1634532942210172 0
1.462737940955871 0.19069550992452 0
1.430271932520996 0.2179377256280228 0
1.39780592408612 0.2451799413315255 0
1.365339915651245 0.2724221570350283 0
1.332873907216369 0.2996643727385311 0
1.300407898781494 0.3269065884420339 0
1.267941890346618 0.3541488041455368 0
1.235475881911743 0.3813910198490397 0
1.203009873476867 0.4086332355525426 0
1.170543865041991 0.4358754512560455 0
1.138077856607116 0.4631176669595484 0
1.10561184817224 0.4903598826630512 0
1.073145839737365 0.517602098366554 0
1.04067983130249 0.5448443140700566 0
1.008213822867615 0.5720865297735591 0
0.9757478144327392 0.5993287454770618 0
0.9432818059978639 0.6265709611805644 0
1 32 0 3
294
295
296
1.69 0.0685338826899448 0
1.69 0.04568925512662984 0
1.69 0.02284462756331492 0
2 1 0 205
297
298
299
300
301
302
303
304
305
306
307
308
309
310
311
312
313
314
315
316
317
318
319
320
321
322
323
324
325
326
327
328
329
330
331
332
333
334
335
336
337
338
339
340
341
342
343
344
345
346
347
348
349
350
351
352
353
354
355
356
357
358
359
360
361
362
363
364
365
366
367
368
369
370
371
372
373
374
375
376
377
378
379
380
381
382
383
384
385
386
387
388
389
390
391
392
393
394
395
396
397
398
399
400
401
402
403
404
405
406
407
408
409
410
411
412
413
414
415
416
417
418
419
420
421
422
423
424
425
426
427
428
429
430
431
432
433
434
435
436
437
438
439
440
441
442
443
444
445
446
447
448
449
450
451
452
453
454
455
456
457
458
459
460
461
462
463
464
465
466
467
468
469
470
471
472
473
474
475
476
477
478
479
480
481
482
483
484
485
486
487
488
489
490
491
492
493
494
495
496
497
498
499
500
501
0.4409233626726876 0.5725126137805439 0
0.2387885358798068 0.9186165756604865 0
0.08819856884469113 0.6499634357248648 0
0.3216996537810201 0.4622415957475753 0
0.08882569710540511 0.3651478007709532 0
0.08123391994446905 0.8273516018995242 0
0.4782540276440808 0.9131864980484152 0
0.5527720277564334 0.8132934916328965 0
0.080435105714314 0.9159703152217527 0
0.09427795734615019 0.4602043188990911 0
0.3151129016262436 0.9183969299071679 0
0.2621353965445375 0.4092549243278216 0
0.1873227139881796 0.3603496962159631 0
0.5526547058776399 0.7051530097072078 0
0.5567066698876848 0.9099881925683189 0
0.1529307380547861 0.2898764309639497 0
0.2373441320341694 0.8337522575654386 0
0.4812910394345816 0.7355797793996716 0
0.460078178328082 0.8172440272045968 0
0.4978759986189358 0.6305717773645834 0
0.0834305360956904 0.7391653535263465 0
0.09373700993140976 0.5566698523121103 0
0.2681645661891174 0.5166897279238535 0
0.1601123115879667 0.9178272861232537 0
0.3817148671869148 0.5167020372660727 0
0.3953059429289572 0.8992016399875038 0
0.1984736203099817 0.4624652468428224 0
0.07940476484866732 0.2646627739839402 0
0.3855386365042923 0.7555669620591354 0
0.1634626812817016 0.7481991855307336 0
0.3228213210594684 0.8275249158589891 0
0.3816348872981629 0.6318338567854291 0
0.1993142585733788 0.5688855531652646 0
0.3247995310958542 0.5729862337152127 0
0.1605997563602256 0.8318428775039746 0
0.4380406316634064 0.6903346964567108 0
0.3162050446150123 0.6943422404746032 0
0.2365431135124989 0.755959001477599 0
0.2725658660753929 0.627746722417837 0
0.1729886929149842 0.6654772769927408 0
0.2909415887932557 0.7587318042660502 0
0.2448064282301883 0.6860276931414118 0
0.03993674810939385 0.1643324130478631 0
0.02281446683021249 0.13959475117913 0
0.4737680839887189 0.8697762126708668 0
0.4409873527649591 0.9111114249324171 0
0.4232545680090422 0.8548624682915671 0
0.4455111284610933 0.8778893784498056 0
0.5967028136862501 0.7145408138678455 0
0.5860999729512882 0.6580841106008448 0
0.6038531388206396 0.6794986052535136 0
0.04412996448047501 0.2218159190119499 0
0.03529302489751207 0.2737576856991283 0
0.02648053228266289 0.2410534107170529 0
0.3513881509749344 0.9141943545068043 0
0.3154758669437712 0.8776486294342247 0
0.3627356692114007 0.8584483015185232 0
0.3436015836798355 0.882842165445621 0
0.2390513813843741 0.4912027221141975 0
0.2402992400828627 0.5415825043535153 0
0.191175233914908 0.5144974155076061 0
0.2229633416440272 0.5158257856571136 0
0.2311523240174318 0.3856107668952493 0
0.2358921943863759 0.4343258893830265 0
0.1858259102803326 0.4112974876107384 0
0.217037143531104 0.4104575006223752 0
0.2965836104193606 0.6541902206775776 0
0.2759132816173337 0.6927196726471599 0
0.2547885368974042 0.6553866293311588 0
0.2764687142786045 0.6680399842084555 0
0.04409486296402931 0.3652664286141359 0
0.09222243262102547 0.4123010629246231 0
0.04679519388204201 0.4585722859525678 0
0.04578868746950882 0.4118338007361223 0
0.2775990150752594 0.9186904615146989 0
0.3177649692534427 0.9608007437254444 0
0.2394667506700383 0.9617376116365924 0
0.2787721509224301 0.9616248965618671 0
0.1203888742018936 0.9169958613575367 0
0.1601348871988543 0.9613493830602751 0
0.08024604428194226 0.9604571550989027 0
0.1202432031850136 0.9609509324436958 0
0.09479278440151884 0.5085378604188514 0
0.04657982980107123 0.5522202834851229 0
0.04703997682915029 0.5054594978648994 0
0.1995534579170996 0.9183770408321007 0
0.1998766091536593 0.9616160032062072 0
0.04419267538201654 0.6444822672835422 0
0.08544045900570507 0.6948869664771109 0
0.04190640894736064 0.7349646496191811 0
0.04290360364552592 0.6898875385260999 0
0.3532581403910871 0.6021413783580282 0
0.3517565252931271 0.6618119826078395 0
0.2971968186302986 0.6007276392640263 0
0.3243956560035317 0.6303527683575187 0
0.09124307396925191 0.6039556523538644 0
0.04550920952681403 0.598615513868942 0
0.2759348371310133 0.8322701786656264 0
0.2362557575923179 0.7936833856519845 0
0.2684641886264884 0.7580497874924709 0
0.3027185605675197 0.7825108737786041 0
0.2712369280943533 0.7923818165932099 0
0.3982443663138094 0.956185674592702 0
0.3572814509033483 0.9583280696810764 0
0.2382094555188448 0.8757753861827546 0
0.2773900241763841 0.8755741397852195 0
0.08205927189789008 0.78325048275719 0
0.0407311159509629 0.8248359100943639 0
0.04118288573123252 0.7799128099111797 0
0.1314906481284073 0.6567550159351738 0
0.1670137954240304 0.7070301927743043 0
0.1240718500730283 0.7436358677731477 0
0.1270243793276807 0.7005999089887132 0
0.4795200018932826 0.9582703728130576 0
0.4394821378404126 0.9569584466328273 0
0.1345189901574302 0.3643132513945408 0
0.1431422940378255 0.4616163806661535 0
0.1400253342416675 0.4122292704724424 0
0.5167284815342132 0.911536392370262 0
0.5589039992830478 0.9575737229381504 0
0.5190388718640404 0.9581612098020449 0
0.5971318859196482 0.9089732567976672 0
0.5990541841880946 0.9570431649804327 0
0.353165304824153 0.5449803689319709 0
0.411454363736013 0.5444567817347973 0
0.4110846896586053 0.6022199583417033 0
0.3822429767607347 0.5734346985776729 0
0.5937916794206404 0.8119905699552844 0
0.552227643455422 0.7636303698344786 0
0.5933830396102601 0.7625651938931437 0
0.04026535384346852 0.9148292474274624 0
0.04014527675055968 0.959901847249551 0
0.08071135929111695 0.8715907588814958 0
0.04043254387285766 0.8698044876094441 0
0.2916325618892556 0.4354229366783466 0
0.2945532785268131 0.4897368871146649 0
0.2643659871799166 0.4626354612900958 0
0.5544608847585606 0.8619738113223572 0
0.5953064819091477 0.8606945989949012 0
0.1212151866495081 0.8297521359302029 0
0.1601917201443788 0.8745976859596597 0
0.120637435631516 0.8732362715863057 0
0.2873801368940568 0.3822217248597451 0
0.3490901989624413 0.4347997442147615 0
0.318366710646887 0.4083321794046255 0
0.2226751083511724 0.3282618763165377 0
0.2550896249455138 0.3562288224143717 0
0.1645323669816074 0.3153816507796293 0
0.1677923213124436 0.2727493908246141 0
0.1940477704136612 0.2987900501000982 0
0.1992040624474772 0.8333599062291653 0
0.1992878451781495 0.8755142706750678 0
0.5243847403510737 0.6627521776146093 0
0.5070980660466233 0.7255056230337902 0
0.4635368699493015 0.7168458820482871 0
0.4666893317696561 0.6606942955185393 0
0.491071527152486 0.6910874736073618 0
0.24155546942471 0.6027281960361511 0
0.2962040478182065 0.5444914600871553 0
0.2679165211773066 0.5720781330038924 0
0.1263322084346888 0.2818830313964766 0
0.1038110705458475 0.2261098696301169 0
0.1379690563450715 0.2506654733513373 0
0.4712950364273512 0.5426585112461235 0
0.4104235010351244 0.488361627518619 0
0.4409463489048928 0.515417201330438 0
0.3517988162301391 0.489364604966929 0
0.3239771086933103 0.5171126549421499 0
0.142421419249016 0.5620856848700446 0
0.1440727183110069 0.5117953228910428 0
0.1825680604878165 0.6219840988569206 0
0.1374800705986881 0.6108637622579492 0
0.5106493249516739 0.815334367119426 0
0.5132263055348347 0.8642253154773653 0
0.1614908826242837 0.7897367212675666 0
0.1222245725356943 0.7865984581538955 0
0.2393394421690276 0.7201091096520742 0
0.3014414902695024 0.7361004251920509 0
0.2715990002266189 0.7257078433303792 0
0.5309060830236551 0.5985952580635521 0
0.4699133807710019 0.6010954038962298 0
0.5013599090999979 0.5702758149232948 0
0.379790306502068 0.4615195957777242 0
0.06930182245871608 0.1961148739413419 0
0.411581019776928 0.7218220724696449 0
0.3539252579467402 0.7259963156606373 0
0.4101571322105164 0.6615543749235515 0
0.3813523748617198 0.6928439631805962 0
0.4739393377766107 0.7648695982641804 0
0.5111696530085515 0.7674694898063052 0
0.08453429830507708 0.3184558954004125 0
0.04135366312855704 0.31864250905296 0
0.5597888747180522 0.6284026155394226 0
0.2010654429340548 0.7525591609722316 0
0.211102279883287 0.6759225186568341 0
0.2045784116762578 0.7138780251097214 0
0.3578530652752257 0.7900622962526234 0
0.4185244394427544 0.7848826179506285 0
0.390704819978684 0.8229838323337637 0
0.1995276602771403 0.7923484528979945 0
0.2224579488334598 0.6383116175497109 0
0.4394971399319802 0.6313414269673956 0
0.4416523540929472 0.7479429359325709 0
0.3289748235376959 0.7587545350465066 0
0.1273607250727334 0.3199794261846296 0
2 2 0 41
502
503
504
505
506
507
508
509
510
511
512
513
514
515
516
517
518
519
520
521
522
523
524
525
526
527
528
529
530
531
532
533
534
535
536
537
538
539
540
541
542
0.7284047903258354 0.9700308807955978 0
0.7091584544422771 0.8784554529844562 0
0.7109453436775333 0.8200304186180863 0
0.7269815405382851 0.7686299164814345 0
0.6876287399310295 0.7482115573366035 0
0.709763774162654 0.9384486976445102 0
0.7169867095984347 0.980849330168134 0
0.6952355198262046 0.9690339857037932 0
0.7235360248565317 0.9589651101701138 0
0.7110954370154617 0.9701119319023112 0
0.6652703018446946 0.7336601217176572 0
0.6682644717439655 0.7736115857858687 0
0.6538321014905147 0.7572488089261473 0
0.6620175519426764 0.6853488832463904 0
0.647749876597554 0.6643379217143334 0
0.6792195338105502 0.8867683868104089 0
0.7105684021302229 0.905800955184733 0
0.6778117400667659 0.9296845275762041 0
0.6879464344660644 0.9077186934441006 0
0.7448213639700194 0.7710551905883144 0
0.7390320936050989 0.7497067864990816 0
0.7480804825941124 0.7565029374403127 0
0.737918322124833 0.8739933462580172 0
0.7409995026053724 0.9278586419770739 0
0.7388965425199331 0.9013191387177625 0
0.6695795085212549 0.9647719277862052 0
0.7082545053848267 0.8497187420727432 0
0.7385563515802559 0.8195181264708743 0
0.7375902523134994 0.8467155645526324 0
0.7176456536541388 0.7922729597788836 0
0.7411788837827006 0.7935106895298485 0
0.7435843675251976 0.9708650145254653 0
0.7441975791901883 0.9512879683556287 0
0.6794265200173183 0.8182929118990471 0
0.674768372326488 0.8539416760472351 0
0.7079407785921047 0.7605388542802396 0
0.6921368443617295 0.7865062277269603 0
0.7074778549165144 0.7253297482882091 0
0.6848127478989671 0.7076656738418923 0
0.7336239438808472 0.9882525875872142 0
0.7253054935250053 0.739022072695519 0
2 3 0 81
543
544
545
546
547
548
549
550
551
552
553
554
555
556
557
558
559
560
561
562
563
564
565
566
567
568
569
570
571
572
573
574
575
576
577
578
579
580
581
582
583
584
585
586
587
588
589
590
591
592
593
594
595
596
597
598
599
600
601
602
603
604
605
606
607
608
609
610
611
612
613
614
615
616
617
618
619
620
621
622
623
0.7920948045298009 0.738366934823238 0
0.8005357563275108 0.7673565868771457 0
0.7492954873235748 1.021552171676017 0
0.6367682122812625 1.034371808978928 0
0.6770756644441693 1.036567795935921 0
0.6597952271038702 1.026325233343145 0
0.7414794455863493 1.047683387310927 0
0.7802361541849725 1.029982421681047 0
0.7669407735458528 1.047815769414577 0
0.8098325986172851 0.7875642742948479 0
0.8163458788757416 0.7640821517753524 0
0.8208046262103121 0.7809628097360077 0
0.3439781638350342 0.3411009923440592 0
0.3830365669229878 0.3670951247343803 0
0.358231716259828 0.3630144552391139 0
0.2526999900856647 1.034809128230842 0
0.2989966890741153 1.039999978876598 0
0.2780719127563608 1.027182269428238 0
0.03515809812432402 1.029700013061799 0
0.0256208590825131 1.018261605628266 0
0.7824240260636849 0.7149944905484313 0
0.8025688190300307 0.7258348118281428 0
0.7783950439512242 0.7371402260464632 0
0.787888004975667 0.7256859610904797 0
0.7682562142569203 1.000893832145716 0
0.7412091798103267 1.008287462114533 0
0.7539845858550946 1.000642772678338 0
0.718313884398701 1.021908157229538 0
0.7254724058384096 1.011325032605929 0
0.03787545374255896 0.07834522448797676 0
0.0234448120141898 0.04946459993852859 0
0.02084609277398719 0.06491187631442874 0
0.01964340898839223 0.03325204107346291 0
0.8012201321484063 0.8687197497016812 0
0.803042398777906 0.9207784417545848 0
0.8022017840655374 0.8947308731836803 0
0.7958053581767274 0.8166819838537842 0
0.7997867351940751 0.8427112238192801 0
0.801973953127264 0.9747287086104831 0
0.8035224241062052 0.9470642506503483 0
0.55771530405565 1.039839762720792 0
0.5998072052880121 1.039038621825238 0
0.7518035736784768 0.6780630163085219 0
0.7706365002750618 0.6979784508144121 0
0.6973768335935734 0.6309023346925973 0
0.7262747205336602 0.6553691546962064 0
0.4716144105934415 1.039996027919673 0
0.5147394474051709 1.039973266391152 0
0.0857363059680899 1.043919343335648 0
0.1724292684755343 1.039962318221349 0
0.1293409032317254 1.040644522420378 0
0.09646339669830539 0.1266541477686802 0
0.06531373344940661 0.1006408787016645 0
0.7947188122025394 1.003639287038819 0
0.6375624203001516 0.5806687915135844 0
0.6678023050399188 0.6060493908414563 0
0.04224570665781868 1.050596955569489 0
0.3853082282987061 1.03999992818989 0
0.4284632771389425 1.039999373611068 0
0.1601489066964995 0.1800706638894614 0
0.1282517839827659 0.153308879219538 0
0.5745310390917195 0.527778059828004 0
0.6063323519091901 0.5544626902302873 0
0.2239788347022732 0.2336347021670686 0
0.1920643634433071 0.2068512281154908 0
0.510714822177355 0.4742298743043019 0
0.5426311515270485 0.501010857427563 0
0.2147106050231714 1.039130476465253 0
0.2876036214848426 0.2872115214993779 0
0.2558671937811454 0.2604198096746034 0
0.446875982750713 0.420662728005738 0
0.4787956127188672 0.4474464772900055 0
0.3184294272572107 0.3140425022276021 0
0.4149562784471239 0.3938789197506284 0
0.3421524886517305 1.039999986301278 0
0.7073701473040133 1.044903489994675 0
0.7952549771616968 0.7497067267865403 0
0.8106443573936636 0.7430229623584163 0
0.7825187278562765 0.7692382743777443 0
0.7785775963040956 0.7513499952580335 0
0.788822284224168 0.7914659354754517 0
2 4 0 206
624
625
626
627
628
629
630
631
632
633
634
635
636
637
638
639
640
641
642
643
644
645
646
647
648
649
650
651
652
653
654
655
656
657
658
659
660
661
662
663
664
665
666
667
668
669
670
671
672
673
674
675
676
677
678
679
680
681
682
683
684
685
686
687
688
689
690
691
692
693
694
695
696
697
698
699
700
701
702
703
704
705
706
707
708
709
710
711
712
713
714
715
716
717
718
719
720
721
722
723
724
725
726
727
728
729
730
731
732
733
734
735
736
737
738
739
740
741
742
743
744
745
746
747
748
749
750
751
752
753
754
755
756
757
758
759
760
761
762
763
764
765
766
767
768
769
770
771
772
773
774
775
776
777
778
779
780
781
782
783
784
785
786
787
788
789
790
791
792
793
794
795
796
797
798
799
800
801
802
803
804
805
806
807
808
809
810
811
812
813
814
815
816
817
818
819
820
821
822
823
824
825
826
827
828
829
1.173094717102377 0.6383375624347607 0
1.597824689173188 0.7322672313452199 0
1.369530073108497 0.4668786012733996 0
1.290907848418624 0.9244619933506536 0
1.600422700481959 0.5489100758200534 0
1.445512668416765 0.9229567208806289 0
1.606545175214995 0.9159662426781076 0
1.133896852392854 0.9149670634075897 0
1.537817540140425 0.2899141632483768 0
1.245159692195222 0.5737569420997468 0
1.504902824507096 0.3606983959052251 0
1.140700525797994 0.8256218101882508 0
1.599839095176652 0.4577596539386896 0
1.611126460573963 0.2646318449777921 0
1.304044808945642 0.629109622921399 0
1.499275772351054 0.462892093944 0
1.152160775945502 0.7366469322399045 0
1.601836127637986 0.8256248773440239 0
1.599044127643192 0.639162007916822 0
1.306268052737796 0.5200981311879316 0
1.36787810984091 0.9243417954878242 0
1.430586361785688 0.4114977920387868 0
1.213601599633635 0.9209969289931134 0
1.524587585886326 0.9194605677502806 0
1.603054004660066 0.3648053882799417 0
1.509667372761259 0.634234767659263 0
1.29327198758142 0.8499745117263091 0
1.358591577274072 0.5787603024062619 0
1.430663759426988 0.5364964361227638 0
1.515146978516129 0.8334463748014389 0
1.263596259509567 0.6856163243229887 0
1.51524164025427 0.5501696208696273 0
1.438922274110464 0.8457875585119835 0
1.221263274397929 0.8394909824220989 0
1.413808781829262 0.7823165542636361 0
1.357507080862317 0.7045885124282276 0
1.364912521503168 0.8384585721759468 0
1.490560478541028 0.7328063148825361 0
1.309998900155465 0.7875547747701881 0
1.237432724598908 0.7606495267590166 0
1.421410240194225 0.6291788398421406 0
1.417170876019977 0.6827679014361998 0
1.388390730214905 0.6606959180426668 0
1.433851279730799 0.6617669919082919 0
1.401916335582672 0.7051626626706673 0
1.388202534959817 0.556720831500353 0
1.430544363350809 0.5841311894767229 0
1.384969244416685 0.604240328970205 0
1.401980694786654 0.5816429582066424 0
1.650090908458683 0.1643193786534226 0
1.667188111206984 0.139590800483371 0
1.655055675187416 0.2737323733480349 0
1.646067375729725 0.2217944029115677 0
1.663704862688652 0.2410389040904093 0
1.461129493763644 0.4969202928557345 0
1.512698328957681 0.5104313239692042 0
1.476419697983596 0.5473135259066637 0
1.482858251663721 0.517645104172511 0
1.148653971058442 0.5943369670093774 0
1.116493536587518 0.6356294421096687 0
1.11988982666435 0.6071671505428764 0
1.280999466258368 0.654973822329295 0
1.329534619167953 0.6578050407176945 0
1.301850411373154 0.6985222740547412 0
1.305542756272459 0.6713032306177414 0
1.508502828531527 0.4116271787281719 0
1.45894441822805 0.436857736443325 0
1.461425238960437 0.3867717565092323 0
1.476963235369332 0.4116982867656478 0
1.43050108366634 0.812624872003919 0
1.405157798730476 0.8469400837656506 0
1.388266604942502 0.804890734530865 0
1.40732829622689 0.8216754430231988 0
1.325967716784274 0.849286351549865 0
1.298203058638306 0.8181192986711572 0
1.338074366863532 0.8070052348537072 0
1.32141561447704 0.8249412858619842 0
1.216074117523642 0.5434968600409622 0
1.213524793670719 0.6029409578332355 0
1.183438747155326 0.5707738836766245 0
1.52264342095391 0.2727741938953279 0
1.526654842354596 0.3154700524028062 0
1.468295117903508 0.3285645183648251 0
1.49662371791412 0.29889235851383 0
1.645092944846371 0.5484965033237852 0
1.600080257555457 0.5037011821888349 0
1.645163183447695 0.457141062322476 0
1.645080511032645 0.502944017879231 0
1.337701251879234 0.4938369838681322 0
1.278615921055823 0.49003874272415 0
1.341401807572862 0.4369017270579501 0
1.309975699744642 0.4635755313908749 0
1.27560849035182 0.5464882801774336 0
1.2474533895643 0.5165767107338255 0
1.211265892118398 0.9628306446724222 0
1.252495846904299 0.923218134458233 0
1.290120349403333 0.9644872148657723 0
1.250791866091529 0.9638744044629081 0
1.224009276316412 0.6662125785521109 0
1.275140000010263 0.6023702494526748 0
1.24775250078978 0.6316421992980021 0
1.403845565380651 0.3834061542146179 0
1.436106459232529 0.3568930641359703 0
1.64819224402588 0.9147091504792784 0
1.604388762153402 0.8711026280676923 0
1.645950102456917 0.8237416665651892 0
1.647121406297633 0.8693707654853038 0
1.64425271106539 0.7316077375043977 0
1.597933205258673 0.6853124536524261 0
1.644529582395665 0.6395565404994663 0
1.644191081521148 0.6854477703987885 0
1.32927166330941 0.9246907781116366 0
1.368750948967385 0.9645896010270096 0
1.329404810119005 0.9646904178905339 0
1.40079260025612 0.4390439150884001 0
1.372650016480356 0.4100658094651268 0
1.3332257704437 0.549981303025057 0
1.331080056963479 0.6039350694565573 0
1.303648611222711 0.5756032336780413 0
1.599320488869197 0.7792980058586376 0
1.644891064505908 0.7777925986242754 0
1.600079938624525 0.5938352632660047 0
1.644909349422765 0.5939504515590399 0
1.291807112631709 0.885778968136527 0
1.366709517311588 0.8840401070176879 0
1.328710004907345 0.8853847064959171 0
1.447694991456634 0.9638192320742576 0
1.406636783236495 0.9238558463288424 0
1.408162192337464 0.9643132363344985 0
1.50629947149651 0.7882003745694618 0
1.549227627946257 0.732794383465935 0
1.557879834756476 0.8286408624894295 0
1.552588513396007 0.7818238207215554 0
1.556628312859956 0.5495797634377562 0
1.55318997282125 0.4593098833983857 0
1.55500668358304 0.5054706214744999 0
1.646923574224334 0.3650040605895603 0
1.600680472354974 0.4112871024903269 0
1.645698038382743 0.411153940164423 0
1.442774322932301 0.8831199076937516 0
1.405011104484662 0.8839321396355692 0
1.553800012878711 0.637592954130659 0
1.513174098768673 0.5913528647991734 0
1.55598469214344 0.5931245313261897 0
1.503658366086438 0.6786583833420342 0
1.550541042037774 0.6839592146874379 0
1.586422622938939 0.2260886445350804 0
1.564398919000694 0.2818843395003566 0
1.552366063401672 0.2506654889336731 0
1.106163536771071 0.7254728849846592 0
1.145654281720706 0.7811982549531361 0
1.09852387434362 0.8185340503135979 0
1.101948989473899 0.772064229152279 0
1.565251871808314 0.9175667554168988 0
1.520762283689754 0.8767021087897797 0
1.562071899459442 0.873526952398948 0
1.608311042050748 0.9605482918902269 0
1.649109872514802 0.9598942786038406 0
1.136899245395512 0.8702018330506714 0
1.181785774663886 0.8326985979950784 0
1.216736683823861 0.879836611238213 0
1.174069225489768 0.9181627834692652 0
1.177362163029977 0.8752270423467884 0
1.484666884684325 0.9214327607821331 0
1.527372796749978 0.9622228897372777 0
1.487373502174059 0.9631079821224782 0
1.56769493485003 0.9613367022631789 0
1.160866826157066 0.6912966634607862 0
1.111306355956599 0.678732049504734 0
1.557847254075026 0.364163605234039 0
1.553962869346468 0.4115449271962391 0
1.093269812844291 0.9116282521671778 0
1.131401014819359 0.9599339008517781 0
1.091110807396774 0.9582928375538023 0
1.275821981829945 0.7732616170922199 0
1.25864731611171 0.8456463107222287 0
1.227988172368999 0.7999352661189758 0
1.265267618656725 0.8092646076408123 0
1.606576163988069 0.3183531079994983 0
1.649267350570613 0.3185519018857851 0
1.447326862990178 0.7028250134928733 0
1.467448934562167 0.6297917685468059 0
1.461968912371575 0.6688070317660963 0
1.196118044045781 0.7485089900099356 0
1.187880840650116 0.7905651621316749 0
1.254856436600546 0.8836435042070938 0
1.62081653379492 0.1960987561756969 0
1.471005097888247 0.5879722776022307 0
1.398278914408858 0.4982974291861202 0
1.364965967092977 0.5249865022830088 0
1.475052288282836 0.8399067432264995 0
1.446229090954954 0.7617854087333384 0
1.464605425281581 0.799917757899565 0
1.480924491796128 0.8803092956166464 0
1.17147713384014 0.9614814879182831 0
1.430701940602124 0.4683128467993515 0
1.359107073974367 0.6329230263073351 0
1.249537650752398 0.721921908187747 0
1.328629338017048 0.7535417328237086 0
1.290025333212504 0.7360324914956756 0
1.095691275952567 0.8650480986564922 0
1.389425822649833 0.7510991433825125 0
1.361289660865801 0.7787828601330955 0
1.20727464890463 0.7064020869471025 0
1.420795831725565 0.7286706959693956 0
1.563984274844263 0.3199592676701124 0
2 5 0 39
830
831
832
833
834
835
836
837
838
839
840
841
842
843
844
845
846
847
848
849
850
851
852
853
854
855
856
857
858
859
860
861
862
863
864
865
866
867
868
0.9562356605920528 0.7529999070342809 0
0.9550271252606972 0.9323736211457307 0
0.9798629013468948 0.8695084889251996 0
0.990416681210166 0.7627139009198436 0
0.9866407427860338 0.9624428670990596 0
1.016065750831346 0.7869844052100452 0
1.021174820519843 0.7393516151270727 0
1.032798033943457 0.7631136046403667 0
1.012520017088266 0.8890786779155901 0
1.012255567435722 0.8411505984400279 0
1.027345594272703 0.8632590706087934 0
1.02734962545313 0.6864474304223791 0
1.042113123604498 0.6645860138151234 0
0.9384233568508946 0.9245651039541873 0
0.9403718206862043 0.953776606475974 0
0.9329435056441744 0.9423034003758332 0
0.9673625667329009 0.9817168508131831 0
0.9959478755415646 0.9824049314983486 0
0.9791709461755346 0.9900468980918616 0
0.9603740500382156 0.8383687363726132 0
0.946616694208643 0.8720872200423899 0
0.9435920627162919 0.8518066641128568 0
0.9573275684593961 0.7383657601066878 0
0.9805650352672702 0.7310480119028606 0
0.968860025020628 0.7605268957166355 0
0.9684733966397773 0.7426248873837913 0
0.9716940910399767 0.9456801331646861 0
0.9523187644833385 0.9689499566777127 0
0.9677371899911056 0.9060119572495415 0
0.9443259420794189 0.8992312031436028 0
1.003179397866352 0.7109830478107168 0
0.9652378591508074 0.7935127579483268 0
0.9883358085319296 0.8151804201677908 0
1.011321669525584 0.9412740080649099 0
0.9917797321052295 0.9196741771283945 0
1.02102776256233 0.9709127050374233 0
0.9449146011530222 0.7593479217197813 0
0.9508709078047436 0.7758698672079866 0
0.9438961790940457 0.7410976105504092 0
2 6 0 78
869
870
871
872
873
874
875
876
877
878
879
880
881
882
883
884
885
886
887
888
889
890
891
892
893
894
895
896
897
898
899
900
901
902
903
904
905
906
907
908
909
910
911
912
913
914
915
916
917
918
919
920
921
922
923
924
925
926
927
928
929
930
931
932
933
934
935
936
937
938
939
940
941
942
943
944
945
946
0.8948521928414309 0.7643609959939495 0
1.629526280342824 1.039427849885313 0
0.8909353909288263 0.9751298032541992 0
0.9027991959863345 0.7870235329956723 0
0.9115774660142162 0.76476881271799 0
0.9143465931977963 0.7817415884824039 0
1.053318649487637 1.034042784078379 0
1.0135379760635 1.034081003393011 0
1.03036264369361 1.025696965691684 0
0.9172353749895459 1.023915150084274 0
0.9517619911890683 1.041325807902512 0
0.9264347875781451 1.043227862972351 0
0.8881515984026226 0.7404545158326675 0
0.8764534816349719 0.7642285012714973 0
0.8752426874955265 0.7450042064478475 0
1.59795188410729 1.03969036720759 0
1.631097995694867 1.026689626722563 0
1.63025346386967 1.050883774642584 0
1.305877863843735 0.3747958019417947 0
1.33833689010717 0.3407696778549173 0
1.329823068382487 0.3646517325425638 0
1.437303846657201 1.034798490154119 0
1.391003303759992 1.039999971718701 0
1.41193154268487 1.027177790037907 0
1.666570661695177 0.04947011065662654 0
1.670363739641144 0.03325375587911772 0
1.652136371687135 0.07835541524683898 0
1.669164286457415 0.06491809136939941 0
0.8913599427020182 0.92218689568659 0
0.8886947428307069 0.8687433874152871 0
0.8885175192311208 0.8949692430664877 0
0.8867755167125143 0.8161000631879995 0
0.8889654374614793 0.8426179086717703 0
1.132290809886971 1.039826506627317 0
1.090210082002476 1.038979461849316 0
0.9103631947966105 0.7202251914116862 0
0.9382835981044949 0.6782063680877953 0
0.9198423236674032 0.6988667910402271 0
0.9926293456798522 0.6309039195477515 0
0.9637426790467829 0.655391835580077 0
1.21838638787405 1.039995159255458 0
1.175262217242471 1.039970488867831 0
1.517390833590471 1.039838965508487 0
1.559579144471967 1.039921907173253 0
1.593536014337285 0.1266579121877599 0
1.624688332699468 0.1006452699751034 0
1.052439304167202 0.5806676465632438 0
1.022199690299981 0.6060489762473962 0
1.304691830229471 1.039999879973688 0
1.261536905185521 1.039999194525779 0
1.529850599273704 0.1800712488767506 0
1.561747752171166 0.1533100201274641 0
1.115469537953421 0.5277777327912982 0
1.083668361523244 0.5544621732711432 0
1.466015591875424 0.2336345050888521 0
1.497934661238265 0.2068513232146909 0
1.179284368615789 0.474236193775898 0
1.147368878392592 0.5010117779234002 0
1.475262539084024 1.039106641287036 0
1.402176279339872 0.2872020340914671 0
1.434095976081898 0.2604182298004846 0
0.9044491849709438 0.9746121011456004 0
0.8793320523880185 0.9570320725593432 0
0.8980647113750383 0.9495066331987146 0
0.881505496920173 0.7895798474503767 0
1.243092219529742 0.4208883312431122 0
1.211198981531331 0.4474849541130214 0
1.370256572699496 0.3139858531119677 0
1.274857570001894 0.3951994258455046 0
1.347847520695454 1.039999976705518 0
0.9845517550603577 1.039235646289253 0
0.8870205933156382 0.9982013568140931 0
0.9098487765601931 0.9995856669194511 0
1.658540163694141 1.039599167875358 0
1.656553443532236 1.02308444334808 0
0.9091069157373817 0.7430441169265511 0
1.654349884580127 1.056283506000848 0
0.8682381740206797 0.9778132000167514 0
$EndNodes
$Elements
39 1045 1 1045
0 3 15 1
1 3 
0 4 15 1
2 4 
0 9 15 1
3 9 
0 10 15 1
4 10 
0 11 15 1
5 11 
0 12 15 1
6 12 
0 13 15 1
7 13 
0 14 15 1
8 14 
0 17 15 1
9 17 
0 18 15 1
10 18 
0 23 15 1
11 23 
0 24 15 1
12 24 
0 25 15 1
13 25 
0 26 15 1
14 26 
0 27 15 1
15 27 
0 28 15 1
16 28 
1 3 1 20
17 3 51 
18 51 52 
19 52 53 
20 53 54 
21 54 55 
22 55 56 
23 56 57 
24 57 58 
25 58 59 
26 59 60 
27 60 61 
28 61 62 
29 62 63 
30 63 64 
31 64 65 
32 65 66 
33 66 67 
34 67 68 
35 68 69 
36 69 4 
1 10 1 4
37 9 106 
38 106 107 
39 107 108 
40 108 3 
1 11 1 4
41 4 109 
42 109 110 
43 110 111 
44 111 10 
1 12 1 24
45 10 112 
46 112 113 
47 113 114 
48 114 115 
49 115 116 
50 116 117 
51 117 118 
52 118 119 
53 119 120 
54 120 121 
55 121 122 
56 122 123 
57 123 124 
58 124 125 
59 125 126 
60 126 127 
61 127 128 
62 128 129 
63 129 130 
64 130 131 
65 131 132 
66 132 133 
67 133 134 
68 134 11 
1 13 1 4
69 11 135 
70 135 136 
71 136 137 
72 137 12 
1 14 1 8
73 12 138 
74 138 139 
75 139 140 
76 140 141 
77 141 142 
78 142 143 
79 143 144 
80 144 13 
1 15 1 4
81 13 145 
82 145 146 
83 146 147 
84 147 14 
1 16 1 16
85 14 148 
86 148 149 
87 149 150 
88 150 151 
89 151 152 
90 152 153 
91 153 154 
92 154 155 
93 155 156 
94 156 157 
95 157 158 
96 158 159 
97 159 160 
98 160 161 
99 161 162 
100 162 9 
1 19 1 20
101 18 189 
102 189 190 
103 190 191 
104 191 192 
105 192 193 
106 193 194 
107 194 195 
108 195 196 
109 196 197 
110 197 198 
111 198 199 
112 199 200 
113 200 201 
114 201 202 
115 202 203 
116 203 204 
117 204 205 
118 205 206 
119 206 207 
120 207 17 
1 26 1 4
121 23 240 
122 240 241 
123 241 242 
124 242 18 
1 27 1 16
125 24 243 
126 243 244 
127 244 245 
128 245 246 
129 246 247 
130 247 248 
131 248 249 
132 249 250 
133 250 251 
134 251 252 
135 252 253 
136 253 254 
137 254 255 
138 255 256 
139 256 257 
140 257 23 
1 28 1 4
141 25 258 
142 258 259 
143 259 260 
144 260 24 
1 29 1 8
145 26 261 
146 261 262 
147 262 263 
148 263 264 
149 264 265 
150 265 266 
151 266 267 
152 267 25 
1 30 1 4
153 27 268 
154 268 269 
155 269 270 
156 270 26 
1 31 1 24
157 28 271 
158 271 272 
159 272 273 
160 273 274 
161 274 275 
162 275 276 
163 276 277 
164 277 278 
165 278 279 
166 279 280 
167 280 281 
168 281 282 
169 282 283 
170 283 284 
171 284 285 
172 285 286 
173 286 287 
174 287 288 
175 288 289 
176 289 290 
177 290 291 
178 291 292 
179 292 293 
180 293 27 
1 32 1 4
181 17 294 
182 294 295 
183 295 296 
184 296 28 
2 1 3 236
185 4 88 340 69 
186 87 339 340 88 
187 68 69 340 339 
188 315 341 344 343 
189 303 342 344 341 
190 322 343 344 342 
191 2 35 347 346 
192 34 345 347 35 
193 310 346 347 345 
194 66 67 350 349 
195 68 348 350 67 
196 324 349 350 348 
197 322 351 354 353 
198 307 352 354 351 
199 327 353 354 352 
200 323 355 358 357 
201 319 356 358 355 
202 329 357 358 356 
203 309 359 362 361 
204 308 360 362 359 
205 323 361 362 360 
206 335 363 366 365 
207 333 364 366 363 
208 338 365 366 364 
209 62 63 370 369 
210 64 367 370 63 
211 301 368 370 367 
212 306 369 370 368 
213 298 371 374 373 
214 307 372 374 371 
215 43 42 374 372 
216 41 373 374 42 
217 305 375 378 377 
218 320 376 378 375 
219 39 38 378 376 
220 37 377 378 38 
221 60 61 381 380 
222 62 369 381 61 
223 306 379 381 369 
224 318 380 381 379 
225 39 376 383 40 
226 320 382 383 376 
227 298 373 383 382 
228 41 40 383 373 
229 56 57 387 386 
230 58 384 387 57 
231 299 385 387 384 
232 317 386 387 385 
233 330 388 391 390 
234 328 389 391 388 
235 333 363 391 389 
236 335 390 391 363 
237 58 59 393 384 
238 60 380 393 59 
239 318 392 393 380 
240 299 384 393 392 
241 327 394 398 397 
242 313 395 398 394 
243 334 396 398 395 
244 337 397 398 396 
245 45 44 400 399 
246 43 372 400 44 
247 307 351 400 372 
248 322 399 400 351 
249 307 371 402 352 
250 298 401 402 371 
251 313 394 402 401 
252 327 352 402 394 
253 54 55 405 404 
254 56 386 405 55 
255 317 403 405 386 
256 302 404 405 403 
257 299 406 409 385 
258 336 407 409 406 
259 326 408 409 407 
260 317 385 409 408 
261 303 410 411 342 
262 47 46 411 410 
263 45 399 411 46 
264 322 342 411 399 
265 301 412 414 368 
266 309 361 414 412 
267 323 413 414 361 
268 306 368 414 413 
269 47 410 417 48 
270 303 415 417 410 
271 311 416 417 415 
272 49 48 417 416 
273 49 416 419 50 
274 311 418 419 416 
275 30 29 419 418 
276 1 50 419 29 
277 328 388 423 422 
278 330 420 423 388 
279 321 421 423 420 
280 297 422 423 421 
281 34 33 426 345 
282 32 424 426 33 
283 304 425 426 424 
284 310 345 426 425 
285 305 377 428 427 
286 37 36 428 377 
287 3 51 428 36 
288 52 427 428 51 
289 52 53 430 427 
290 54 404 430 53 
291 302 429 430 404 
292 305 427 430 429 
293 319 355 433 432 
294 323 360 433 355 
295 308 431 433 360 
296 300 432 433 431 
297 32 31 435 424 
298 30 418 435 31 
299 311 434 435 418 
300 304 424 435 434 
301 302 436 438 429 
302 331 437 438 436 
303 320 375 438 437 
304 305 429 438 375 
305 300 431 441 440 
306 308 439 441 431 
307 79 78 441 439 
308 77 440 441 78 
309 308 359 443 439 
310 309 442 443 359 
311 81 80 443 442 
312 79 439 443 80 
313 309 444 446 442 
314 312 445 446 444 
315 83 82 446 445 
316 81 442 446 82 
317 298 382 448 401 
318 320 437 448 382 
319 331 447 448 437 
320 313 401 448 447 
321 316 449 453 452 
322 310 450 453 449 
323 314 451 453 450 
324 332 452 453 451 
325 335 454 456 390 
326 329 356 456 454 
327 319 455 456 356 
328 330 390 456 455 
329 312 457 459 445 
330 324 458 459 457 
331 85 84 459 458 
332 83 445 459 84 
333 75 74 462 461 
334 73 460 462 74 
335 297 421 462 460 
336 321 461 462 421 
337 330 455 464 420 
338 319 432 464 455 
339 300 463 464 432 
340 321 420 464 463 
341 318 379 466 465 
342 306 413 466 379 
343 323 357 466 413 
344 329 465 466 357 
345 329 467 468 465 
346 336 406 468 467 
347 299 392 468 406 
348 318 465 468 392 
349 304 434 470 469 
350 311 415 470 434 
351 303 341 470 415 
352 315 469 470 341 
353 302 403 472 436 
354 317 408 472 403 
355 326 471 472 408 
356 331 436 472 471 
357 337 396 475 474 
358 334 473 475 396 
359 338 364 475 473 
360 333 474 475 364 
361 73 72 478 460 
362 71 476 478 72 
363 316 477 478 476 
364 297 460 478 477 
365 77 76 479 440 
366 75 461 479 76 
367 321 463 479 461 
368 300 440 479 463 
369 87 86 480 339 
370 85 458 480 86 
371 324 348 480 458 
372 68 339 480 348 
373 332 481 484 483 
374 325 482 484 481 
375 333 389 484 482 
376 328 483 484 389 
377 314 450 486 485 
378 310 425 486 450 
379 304 469 486 425 
380 315 485 486 469 
381 301 367 488 487 
382 64 65 488 367 
383 66 349 488 65 
384 324 487 488 349 
385 2 346 489 70 
386 310 449 489 346 
387 316 476 489 449 
388 71 70 489 476 
389 338 473 492 491 
390 334 490 492 473 
391 326 407 492 490 
392 336 491 492 407 
393 327 493 495 353 
394 325 494 495 493 
395 315 343 495 494 
396 322 353 495 343 
397 334 395 496 490 
398 313 447 496 395 
399 331 471 496 447 
400 326 490 496 471 
401 336 467 497 491 
402 329 454 497 467 
403 335 365 497 454 
404 338 491 497 365 
405 297 477 498 422 
406 316 452 498 477 
407 332 483 498 452 
408 328 422 498 483 
409 325 481 499 494 
410 332 451 499 481 
411 314 485 499 451 
412 315 494 499 485 
413 337 474 500 397 
414 333 482 500 474 
415 325 493 500 482 
416 327 397 500 493 
417 312 444 501 457 
418 309 412 501 444 
419 301 487 501 412 
420 324 457 501 487 
2 2 3 55
421 502 508 511 510 
422 90 509 511 508 
423 507 510 511 509 
424 32 33 514 513 
425 34 512 514 33 
426 506 513 514 512 
427 34 35 516 515 
428 2 94 516 35 
429 93 515 516 94 
430 30 517 520 519 
431 503 518 520 517 
432 507 519 520 518 
433 96 95 523 522 
434 7 521 523 95 
435 505 522 523 521 
436 503 524 526 518 
437 101 100 526 524 
438 99 525 526 100 
439 507 518 526 525 
440 507 509 527 519 
441 90 89 527 509 
442 1 29 527 89 
443 30 519 527 29 
444 103 102 530 529 
445 101 524 530 102 
446 503 528 530 524 
447 504 529 530 528 
448 504 531 532 529 
449 505 521 532 531 
450 7 104 532 521 
451 103 529 532 104 
452 99 98 534 525 
453 8 533 534 98 
454 502 510 534 533 
455 507 525 534 510 
456 503 517 536 528 
457 30 31 536 517 
458 32 535 536 31 
459 504 528 536 535 
460 506 537 538 513 
461 505 531 538 537 
462 504 535 538 531 
463 32 513 538 535 
464 506 512 540 539 
465 34 515 540 512 
466 93 92 540 515 
467 6 539 540 92 
468 502 533 541 508 
469 8 105 541 533 
470 5 91 541 105 
471 90 508 541 91 
472 6 97 542 539 
473 96 522 542 97 
474 505 537 542 522 
475 506 539 542 537 
2 3 2 2
476 8 567 569 
477 569 105 8 
2 3 3 140
478 149 546 548 547 
479 1 89 548 546 
480 90 547 548 89 
481 146 147 551 550 
482 14 549 551 147 
483 545 550 551 549 
484 12 138 554 553 
485 139 552 554 138 
486 544 553 554 552 
487 79 555 557 78 
488 123 556 557 555 
489 77 78 557 556 
490 157 558 560 559 
491 41 42 560 558 
492 43 559 560 42 
493 107 108 562 561 
494 3 36 562 108 
495 37 561 562 36 
496 96 563 566 565 
497 136 564 566 563 
498 543 565 566 564 
499 5 105 569 568 
500 545 568 569 567 
501 545 570 571 568 
502 90 91 571 570 
503 5 568 571 91 
504 113 572 574 573 
505 4 109 574 572 
506 110 573 574 109 
507 110 111 575 573 
508 10 112 575 111 
509 113 573 575 112 
510 99 100 578 577 
511 101 576 578 100 
512 141 142 578 576 
513 143 577 578 142 
514 101 102 580 576 
515 103 579 580 102 
516 139 140 580 579 
517 141 576 580 140 
518 8 98 582 581 
519 99 577 582 98 
520 143 144 582 577 
521 13 581 582 144 
522 1 546 584 50 
523 149 150 584 546 
524 151 583 584 150 
525 49 50 584 583 
526 96 97 586 563 
527 6 585 586 97 
528 11 135 586 585 
529 136 563 586 135 
530 11 585 588 134 
531 6 92 588 585 
532 93 587 588 92 
533 133 134 588 587 
534 47 48 590 589 
535 49 583 590 48 
536 151 152 590 583 
537 153 589 590 152 
538 161 591 593 160 
539 37 38 593 591 
540 39 592 593 38 
541 159 160 593 592 
542 113 114 595 572 
543 115 594 595 114 
544 87 88 595 594 
545 4 572 595 88 
546 146 550 596 145 
547 545 567 596 550 
548 8 581 596 567 
549 13 145 596 581 
550 133 587 598 132 
551 93 94 598 587 
552 2 597 598 94 
553 131 132 598 597 
554 107 561 599 106 
555 37 591 599 561 
556 161 162 599 591 
557 9 106 599 162 
558 45 46 601 600 
559 47 589 601 46 
560 153 154 601 589 
561 155 600 601 154 
562 85 86 603 602 
563 87 594 603 86 
564 115 116 603 594 
565 117 602 603 116 
566 131 597 605 130 
567 2 70 605 597 
568 71 604 605 70 
569 129 130 605 604 
570 83 84 607 606 
571 85 602 607 84 
572 117 118 607 602 
573 119 606 607 118 
574 129 604 609 128 
575 71 72 609 604 
576 73 608 609 72 
577 127 128 609 608 
578 159 592 610 158 
579 39 40 610 592 
580 41 558 610 40 
581 157 158 610 558 
582 81 82 612 611 
583 83 606 612 82 
584 119 120 612 606 
585 121 611 612 120 
586 127 608 614 126 
587 73 74 614 608 
588 75 613 614 74 
589 125 126 614 613 
590 79 80 615 555 
591 81 611 615 80 
592 121 122 615 611 
593 123 555 615 122 
594 125 613 616 124 
595 75 76 616 613 
596 77 556 616 76 
597 123 124 616 556 
598 43 44 617 559 
599 45 600 617 44 
600 155 156 617 600 
601 157 559 617 156 
602 14 148 618 549 
603 149 547 618 148 
604 90 570 618 547 
605 545 549 618 570 
606 12 553 620 137 
607 544 619 620 553 
608 543 564 620 619 
609 136 137 620 564 
610 7 95 622 621 
611 96 565 622 95 
612 543 619 622 565 
613 544 621 622 619 
614 544 552 623 621 
615 139 579 623 552 
616 103 104 623 579 
617 7 621 623 104 
2 4 3 237
618 659 666 665 668 
619 664 667 665 666 
620 651 669 672 671 
621 652 670 672 669 
622 664 671 672 670 
623 187 188 674 673 
624 17 207 674 188 
625 206 673 674 207 
626 206 205 677 676 
627 204 675 677 205 
628 637 676 677 675 
629 652 678 681 680 
630 639 679 681 678 
631 655 680 681 679 
632 16 170 684 683 
633 171 682 684 170 
634 624 683 684 682 
635 654 685 688 687 
636 638 686 688 685 
637 659 687 688 686 
638 634 689 692 691 
639 639 690 692 689 
640 645 691 692 690 
641 658 693 696 695 
642 656 694 696 693 
643 660 695 696 694 
644 660 697 700 699 
645 650 698 700 697 
646 662 699 700 698 
647 171 172 703 682 
648 173 701 703 172 
649 633 702 703 701 
650 624 682 703 702 
651 183 704 707 182 
652 632 705 707 704 
653 634 706 707 705 
654 181 182 707 706 
655 200 199 711 710 
656 198 708 711 199 
657 628 709 711 708 
658 636 710 711 709 
659 626 712 715 714 
660 643 713 715 712 
661 175 176 715 713 
662 177 714 715 176 
663 175 713 717 174 
664 643 716 717 713 
665 633 701 717 716 
666 173 174 717 701 
667 219 718 721 218 
668 646 719 721 718 
669 627 720 721 719 
670 217 218 721 720 
671 638 685 724 723 
672 654 722 724 685 
673 624 702 724 722 
674 633 723 724 702 
675 634 691 726 706 
676 645 725 726 691 
677 179 180 726 725 
678 181 706 726 180 
679 192 191 730 729 
680 190 727 730 191 
681 630 728 730 727 
682 641 729 730 728 
683 196 195 734 733 
684 194 731 734 195 
685 625 732 734 731 
686 642 733 734 732 
687 215 216 737 736 
688 217 720 737 216 
689 627 735 737 720 
690 644 736 737 735 
691 179 725 739 178 
692 645 738 739 725 
693 626 714 739 738 
694 177 178 739 714 
695 643 740 742 716 
696 651 741 742 740 
697 638 723 742 741 
698 633 716 742 723 
699 194 193 744 731 
700 192 729 744 193 
701 641 743 744 729 
702 625 731 744 743 
703 198 197 746 708 
704 196 733 746 197 
705 642 745 746 733 
706 628 708 746 745 
707 644 735 749 748 
708 627 747 749 735 
709 650 697 749 747 
710 660 748 749 697 
711 629 750 752 751 
712 213 214 752 750 
713 215 736 752 214 
714 644 751 752 736 
715 653 753 756 755 
716 661 754 756 753 
717 625 743 756 754 
718 641 755 756 743 
719 628 757 759 709 
720 655 679 759 757 
721 639 758 759 679 
722 636 709 759 758 
723 648 760 762 761 
724 202 201 762 760 
725 200 710 762 201 
726 636 761 762 710 
727 656 763 764 694 
728 629 751 764 763 
729 644 748 764 751 
730 660 694 764 748 
731 655 757 767 766 
732 628 745 767 757 
733 642 765 767 745 
734 649 766 767 765 
735 625 754 769 732 
736 661 768 769 754 
737 649 765 769 768 
738 642 732 769 765 
739 632 704 772 771 
740 183 184 772 704 
741 185 770 772 184 
742 637 771 772 770 
743 166 167 776 775 
744 168 773 776 167 
745 640 774 776 773 
746 635 775 776 774 
747 653 755 779 778 
748 641 728 779 755 
749 630 777 779 728 
750 647 778 779 777 
751 209 780 781 208 
752 630 727 781 780 
753 190 189 781 727 
754 18 208 781 189 
755 631 782 786 785 
756 635 783 786 782 
757 657 784 786 783 
758 646 785 786 784 
759 213 750 789 212 
760 629 787 789 750 
761 647 788 789 787 
762 211 212 789 788 
763 211 788 790 210 
764 647 777 790 788 
765 630 780 790 777 
766 209 210 790 780 
767 16 683 792 169 
768 624 791 792 683 
769 640 773 792 791 
770 168 169 792 773 
771 639 689 794 758 
772 634 793 794 689 
773 648 761 794 793 
774 636 758 794 761 
775 221 222 797 796 
776 15 163 797 222 
777 164 795 797 163 
778 631 796 797 795 
779 663 798 801 800 
780 662 698 801 798 
781 650 799 801 698 
782 657 800 801 799 
783 204 203 803 675 
784 202 760 803 203 
785 648 802 803 760 
786 637 675 803 802 
787 649 768 806 805 
788 661 804 806 768 
789 665 667 806 804 
790 664 805 806 667 
791 663 800 808 807 
792 657 783 808 800 
793 635 774 808 783 
794 640 807 808 774 
795 627 719 809 747 
796 646 784 809 719 
797 657 799 809 784 
798 650 747 809 799 
799 637 770 810 676 
800 185 186 810 770 
801 187 673 810 186 
802 206 676 810 673 
803 655 766 811 680 
804 649 805 811 766 
805 664 670 811 805 
806 652 680 811 670 
807 651 740 813 669 
808 643 712 813 740 
809 626 812 813 712 
810 652 669 813 812 
811 653 814 816 753 
812 656 693 816 814 
813 658 815 816 693 
814 661 753 816 815 
815 647 787 817 778 
816 629 763 817 787 
817 656 814 817 763 
818 653 778 817 814 
819 646 718 818 785 
820 219 220 818 718 
821 221 796 818 220 
822 631 785 818 796 
823 645 690 819 738 
824 639 678 819 690 
825 652 812 819 678 
826 626 738 819 812 
827 659 686 820 666 
828 638 741 820 686 
829 651 671 820 741 
830 664 666 820 671 
831 663 821 823 798 
832 654 687 823 821 
833 659 822 823 687 
834 662 798 823 822 
835 631 795 824 782 
836 164 165 824 795 
837 166 775 824 165 
838 635 782 824 775 
839 658 695 826 825 
840 660 699 826 695 
841 662 822 826 699 
842 659 825 826 822 
843 654 821 827 722 
844 663 807 827 821 
845 640 791 827 807 
846 624 722 827 791 
847 658 825 828 815 
848 659 668 828 825 
849 665 804 828 668 
850 661 815 828 804 
851 648 793 829 802 
852 634 705 829 793 
853 632 771 829 705 
854 637 802 829 771 
2 5 3 53
855 168 167 837 836 
856 166 835 837 167 
857 833 836 837 835 
858 166 165 840 839 
859 164 838 840 165 
860 832 839 840 838 
861 16 169 842 239 
862 168 841 842 169 
863 238 239 842 841 
864 20 227 845 844 
865 228 843 845 227 
866 831 844 845 843 
867 224 225 848 847 
868 19 846 848 225 
869 834 847 848 846 
870 230 231 851 850 
871 232 849 851 231 
872 832 850 851 849 
873 830 852 855 854 
874 22 853 855 852 
875 833 854 855 853 
876 834 846 857 856 
877 19 226 857 846 
878 20 844 857 226 
879 831 856 857 844 
880 228 229 859 843 
881 230 850 859 229 
882 832 858 859 850 
883 831 843 859 858 
884 168 836 860 841 
885 833 853 860 836 
886 22 237 860 853 
887 238 841 860 237 
888 832 849 862 839 
889 232 861 862 849 
890 833 835 862 861 
891 166 839 862 835 
892 831 858 864 856 
893 832 838 864 858 
894 164 863 864 838 
895 834 856 864 863 
896 15 223 865 163 
897 224 847 865 223 
898 834 863 865 847 
899 164 163 865 863 
900 232 233 867 861 
901 21 866 867 233 
902 830 854 867 866 
903 833 861 867 854 
904 830 866 868 852 
905 21 234 868 866 
906 235 236 868 234 
907 22 852 868 236 
2 6 3 138
908 21 233 874 873 
909 232 872 874 233 
910 869 873 874 872 
911 224 223 877 876 
912 15 875 877 223 
913 244 876 877 875 
914 259 878 880 260 
915 19 879 880 878 
916 24 260 880 879 
917 26 270 883 882 
918 269 881 883 270 
919 869 882 883 881 
920 256 884 870 886 
921 209 885 870 884 
922 179 178 889 888 
923 177 887 889 178 
924 282 888 889 887 
925 213 890 892 214 
926 252 891 892 890 
927 215 214 892 891 
928 272 271 894 893 
929 28 296 894 271 
930 295 893 894 296 
931 295 294 896 893 
932 17 895 896 294 
933 272 893 896 895 
934 228 897 899 229 
935 266 265 899 897 
936 264 898 899 265 
937 230 229 899 898 
938 230 898 901 231 
939 264 263 901 898 
940 262 900 901 263 
941 232 231 901 900 
942 246 245 903 902 
943 244 875 903 245 
944 15 222 903 875 
945 221 902 903 222 
946 235 904 906 236 
947 269 268 906 904 
948 27 905 906 268 
949 22 236 906 905 
950 27 293 908 905 
951 292 907 908 293 
952 238 237 908 907 
953 22 905 908 237 
954 246 902 910 247 
955 221 220 910 902 
956 219 909 910 220 
957 248 247 910 909 
958 211 210 912 911 
959 209 884 912 210 
960 256 255 912 884 
961 254 911 912 255 
962 187 913 914 188 
963 274 273 914 913 
964 272 895 914 273 
965 17 188 914 895 
966 16 239 916 915 
967 238 907 916 239 
968 292 291 916 907 
969 290 915 916 291 
970 248 909 918 249 
971 219 218 918 909 
972 217 917 918 218 
973 250 249 918 917 
974 274 913 920 275 
975 187 186 920 913 
976 185 919 920 186 
977 276 275 920 919 
978 171 170 922 921 
979 16 915 922 170 
980 290 289 922 915 
981 288 921 922 289 
982 276 919 924 277 
983 185 184 924 919 
984 183 923 924 184 
985 278 277 924 923 
986 173 172 926 925 
987 171 921 926 172 
988 288 287 926 921 
989 286 925 926 287 
990 213 212 927 890 
991 211 911 927 212 
992 254 253 927 911 
993 252 890 927 253 
994 278 923 929 279 
995 183 182 929 923 
996 181 928 929 182 
997 280 279 929 928 
998 228 227 932 897 
999 20 930 932 227 
1000 871 931 932 930 
1001 266 897 932 931 
1002 869 872 933 882 
1003 232 900 933 872 
1004 262 261 933 900 
1005 26 882 933 261 
1006 175 174 935 934 
1007 173 925 935 174 
1008 286 285 935 925 
1009 284 934 935 285 
1010 280 928 936 281 
1011 181 180 936 928 
1012 179 888 936 180 
1013 282 281 936 888 
1014 177 176 937 887 
1015 175 934 937 176 
1016 284 283 937 934 
1017 282 887 937 283 
1018 250 917 938 251 
1019 217 216 938 917 
1020 215 891 938 216 
1021 252 251 938 891 
1022 224 876 939 225 
1023 244 243 939 876 
1024 24 879 939 243 
1025 19 225 939 879 
1026 20 226 941 930 
1027 19 878 941 226 
1028 259 940 941 878 
1029 871 930 941 940 
1030 870 885 943 942 
1031 209 208 943 885 
1032 18 242 943 208 
1033 241 942 943 242 
1034 869 881 944 873 
1035 269 904 944 881 
1036 235 234 944 904 
1037 21 873 944 234 
1038 23 257 945 240 
1039 256 886 945 257 
1040 870 942 945 886 
1041 241 240 945 942 
1042 871 940 946 931 
1043 259 258 946 940 
1044 25 267 946 258 
1045 266 931 946 267 
$EndElements
